<?xml version="1.0" encoding="utf-8"?>
<!-- Generator: Adobe Illustrator 17.0.0, SVG Export Plug-In . SVG Version: 6.00 Build 0)  -->
<!DOCTYPE svg PUBLIC "-//W3C//DTD SVG 1.1//EN" "http://www.w3.org/Graphics/SVG/1.1/DTD/svg11.dtd">
<svg version="1.1" id="Capa_1" xmlns="http://www.w3.org/2000/svg" xmlns:xlink="http://www.w3.org/1999/xlink" x="0px" y="0px"
	 width="2000px" height="656px" viewBox="0 0 2000 656" enable-background="new 0 0 2000 656" xml:space="preserve">
<g>
	<g>
		
			<radialGradient id="SVGID_1_" cx="1003.0979" cy="327" r="353.8729" gradientTransform="matrix(1.133763e-010 -1.0644 2.5253 4.779022e-011 174.2424 1393.4576)" gradientUnits="userSpaceOnUse">
			<stop  offset="0" style="stop-color:#F4F5F7"/>
			<stop  offset="0.6045" style="stop-color:#F2F3F6"/>
			<stop  offset="0.9045" style="stop-color:#ECEDF0"/>
			<stop  offset="1" style="stop-color:#E8EAEC"/>
		</radialGradient>
		<rect fill="url(#SVGID_1_)" width="2000" height="651.438"/>
		<path fill="#E4E6EA" d="M0,118.26c0,0,1560.45-241.084,2000,31.932V0H0L0,118.26z"/>
		<linearGradient id="SVGID_2_" gradientUnits="userSpaceOnUse" x1="2.435809e-008" y1="89.0387" x2="2000" y2="89.0387">
			<stop  offset="0" style="stop-color:#F4F5F7"/>
			<stop  offset="1" style="stop-color:#E4E6EA"/>
		</linearGradient>
		<path fill="url(#SVGID_2_)" d="M0.278,84.731C1871.397-47.785,2000,49.607,2000,49.607C1605.902-33.416,0,162.964,0,162.964"/>
		<path opacity="0.3" fill="none" stroke="#9B9B9B" stroke-width="0.1" stroke-miterlimit="10" d="M0,123.049
			c0,0,1677.868-218.732,2000,60.67"/>
		<path opacity="0.3" fill="none" stroke="#9B9B9B" stroke-width="0.1" stroke-miterlimit="10" d="M0,160.584
			c0,0,1677.868-256.266,2000,23.136"/>
		<linearGradient id="SVGID_3_" gradientUnits="userSpaceOnUse" x1="-2.766865e-008" y1="490.8595" x2="2000" y2="490.8595">
			<stop  offset="0" style="stop-color:#727176"/>
			<stop  offset="1" style="stop-color:#FFFFFF"/>
		</linearGradient>
		<path opacity="0.8" fill="url(#SVGID_3_)" d="M2000,325.719v325.719H0C0,651.438,1927.855,719.978,2000,325.719z"/>
		<linearGradient id="SVGID_4_" gradientUnits="userSpaceOnUse" x1="1000" y1="651.438" x2="1000" y2="440.7692">
			<stop  offset="0" style="stop-color:#D8D9DD"/>
			<stop  offset="0.1672" style="stop-color:#DFE1E4"/>
			<stop  offset="0.4396" style="stop-color:#E3E5E8"/>
			<stop  offset="0.716" style="stop-color:#E5E7EA"/>
			<stop  offset="1" style="stop-color:#E4E6EA"/>
		</linearGradient>
		<path opacity="0.7" fill="url(#SVGID_4_)" d="M0,611.603v39.835h2000V440.769C2000,440.769,1598.127,705.802,0,611.603z"/>
		<path opacity="0.5" fill="none" stroke="#87868A" stroke-width="0.1" stroke-miterlimit="10" d="M0,611.603
			c0,0,1878.615,78.04,2000-285.884"/>
		
			<radialGradient id="SVGID_5_" cx="999" cy="324.9021" r="353.8729" gradientTransform="matrix(2.5253 0 0 1.0644 -1522.7273 -20.1202)" gradientUnits="userSpaceOnUse">
			<stop  offset="0" style="stop-color:#FFFFFF"/>
			<stop  offset="0.9583" style="stop-color:#FFFFFF;stop-opacity:0.0417"/>
			<stop  offset="1" style="stop-color:#FFFFFF;stop-opacity:0"/>
		</radialGradient>
		<rect opacity="0.5" fill="url(#SVGID_5_)" width="2000" height="651.438"/>
	</g>
	
		<radialGradient id="SVGID_6_" cx="396" cy="557.0425" r="288.6248" gradientTransform="matrix(2.5254 0 0 1 0 0)" gradientUnits="userSpaceOnUse">
		<stop  offset="0" style="stop-color:#A1291C"/>
		<stop  offset="0.1641" style="stop-color:#9F291C"/>
		<stop  offset="0.3939" style="stop-color:#99281C"/>
		<stop  offset="0.6626" style="stop-color:#8D271C"/>
		<stop  offset="0.9587" style="stop-color:#7B251D"/>
		<stop  offset="1" style="stop-color:#78251D"/>
	</radialGradient>
	<path fill="url(#SVGID_6_)" d="M0,458.085V656h2000.103C2000.103,656,268.661,651.575,0,458.085z"/>
	
		<radialGradient id="SVGID_7_" cx="396" cy="562.7738" r="287.6692" gradientTransform="matrix(2.5254 0 0 1 0 0)" gradientUnits="userSpaceOnUse">
		<stop  offset="0" style="stop-color:#78251D"/>
		<stop  offset="0.0413" style="stop-color:#7B251D"/>
		<stop  offset="0.3374" style="stop-color:#8D271C"/>
		<stop  offset="0.6061" style="stop-color:#99281C"/>
		<stop  offset="0.8359" style="stop-color:#9F291C"/>
		<stop  offset="1" style="stop-color:#A1291C"/>
	</radialGradient>
	<path opacity="0.8" fill="url(#SVGID_7_)" d="M1.263,469.548L0,655.967h2000.103C2000.103,655.967,269.924,663.038,1.263,469.548z"
		/>
</g>
<g>
	<g>
		<g>
			<path fill="#C3C4C9" d="M644.42,181.598h53.909l70.349,103.364V181.598h54.418v186.831h-54.418L698.71,265.845v102.585h-54.29
				V181.598z"/>
		</g>
		<g>
			<path fill="#D8D9DD" d="M768.671,368.429V181.598h96.22c17.843,0,31.479,1.528,40.911,4.587
				c9.43,3.059,17.033,8.73,22.812,17.013c5.776,8.285,8.667,18.375,8.667,30.269c0,10.366-2.21,19.308-6.631,26.826
				c-4.421,7.52-10.502,13.617-18.235,18.288c-4.93,2.976-11.689,5.44-20.277,7.392c6.877,2.298,11.888,4.595,15.03,6.889
				c2.121,1.53,5.198,4.804,9.233,9.822c4.033,5.019,6.728,8.888,8.086,11.608l27.959,54.138h-65.234l-30.859-57.095
				c-3.909-7.39-7.39-12.19-10.449-14.401c-4.165-2.886-8.88-4.333-14.147-4.333h-5.099v75.829H768.671z M826.658,257.299H851
				c2.633,0,7.731-0.848,15.294-2.549c3.824-0.765,6.946-2.718,9.367-5.864c2.421-3.142,3.631-6.753,3.631-10.832
				c0-6.03-1.91-10.66-5.734-13.891c-3.824-3.227-11.005-4.843-21.539-4.843h-25.361V257.299z"/>
		</g>
	</g>
	<linearGradient id="SVGID_8_" gradientUnits="userSpaceOnUse" x1="636.0881" y1="422.415" x2="973.8757" y2="422.415">
		<stop  offset="0" style="stop-color:#93B536"/>
		<stop  offset="0.4996" style="stop-color:#91B436"/>
		<stop  offset="0.6795" style="stop-color:#8AAD36"/>
		<stop  offset="0.8077" style="stop-color:#7EA037"/>
		<stop  offset="0.9106" style="stop-color:#6C8E36"/>
		<stop  offset="0.9985" style="stop-color:#587934"/>
		<stop  offset="1" style="stop-color:#587934"/>
	</linearGradient>
	<polygon fill="url(#SVGID_8_)" points="973.876,416.175 973.876,428.655 636.088,422.415 	"/>
	
		<linearGradient id="SVGID_9_" gradientUnits="userSpaceOnUse" x1="623.7322" y1="284.9546" x2="961.5198" y2="284.9546" gradientTransform="matrix(-1 0 0 -1 1987.6442 707.3696)">
		<stop  offset="0" style="stop-color:#AA1D1A"/>
		<stop  offset="0.4911" style="stop-color:#A91F1A"/>
		<stop  offset="0.668" style="stop-color:#A4241D"/>
		<stop  offset="0.7941" style="stop-color:#9B2A20"/>
		<stop  offset="0.896" style="stop-color:#8E2E23"/>
		<stop  offset="0.9823" style="stop-color:#7E3125"/>
		<stop  offset="1" style="stop-color:#7A3125"/>
	</linearGradient>
	<polygon fill="url(#SVGID_9_)" points="1026.124,428.655 1026.124,416.175 1363.912,422.415 	"/>
	<g>
		<g>
			<path fill="#626266" d="M648.01,510.329v-47.625h11.348l8.923,17.455c2.549,5.013,5.099,10.948,7.011,16.319h0.191
				c-0.637-6.288-0.828-12.718-0.828-19.854v-13.92h8.927v47.625h-10.201l-9.178-18.373c-2.549-5.086-5.354-11.232-7.457-16.818
				l-0.191,0.073c0.252,6.288,0.382,13.002,0.382,20.776v14.342H648.01z"/>
			<path fill="#626266" d="M701.888,466.167c0,2.967-2.038,5.371-5.224,5.371c-3.061,0-5.103-2.403-5.038-5.371
				c-0.065-3.109,1.977-5.44,5.099-5.44C699.851,460.728,701.827,463.058,701.888,466.167z M691.882,510.329v-34.553h9.69v34.553
				H691.882z"/>
			<path fill="#626266" d="M732.752,509.481c-1.721,0.848-4.973,1.555-8.671,1.555c-10.071,0-16.51-6.783-16.51-17.662
				c0-10.108,6.247-18.373,17.849-18.373c2.549,0,5.354,0.491,7.396,1.34l-1.53,7.989c-1.149-0.568-2.87-1.064-5.419-1.064
				c-5.099,0-8.415,4.031-8.35,9.682c0,6.361,3.824,9.682,8.541,9.682c2.294,0,4.08-0.426,5.545-1.06L732.752,509.481z"/>
			<path fill="#626266" d="M768.207,492.663c0,12.649-8.099,18.442-16.449,18.442c-9.113,0-16.128-6.641-16.128-17.805
				c0-11.163,6.629-18.3,16.639-18.3C761.829,475,768.207,482.279,768.207,492.663z M745.64,493.016
				c0,5.939,2.229,10.388,6.373,10.388c3.759,0,6.182-4.169,6.182-10.388c0-5.155-1.786-10.384-6.182-10.384
				C747.362,482.632,745.64,487.93,745.64,493.016z"/>
			<path fill="#626266" d="M774.21,460.159h9.69v50.17h-9.69V460.159z"/>
			<path fill="#626266" d="M809.466,510.329l-0.572-3.463h-0.191c-2.042,2.756-5.229,4.238-8.927,4.238
				c-6.308,0-10.071-5.086-10.071-10.595c0-8.975,7.27-13.286,18.296-13.213v-0.495c0-1.839-0.893-4.453-5.671-4.453
				c-3.191,0-6.568,1.202-8.606,2.614l-1.786-6.925c2.168-1.344,6.438-3.036,12.113-3.036c10.388,0,13.704,6.783,13.704,14.91
				v12.012c0,3.321,0.126,6.499,0.447,8.407H809.466z M808.321,494.007c-5.103-0.069-9.052,1.271-9.052,5.44
				c0,2.756,1.656,4.1,3.824,4.1c2.423,0,4.4-1.766,5.038-3.958c0.126-0.564,0.191-1.202,0.191-1.835V494.007z M814.76,460.728
				l-7.778,10.737h-6.694l5.484-10.737H814.76z"/>
			<path fill="#626266" d="M825.355,500.932c1.786,1.202,5.484,2.614,8.35,2.614c2.935,0,4.145-1.129,4.145-2.898
				c0-1.766-0.958-2.614-4.591-3.954c-6.438-2.403-8.923-6.292-8.858-10.388c0-6.43,4.969-11.305,12.686-11.305
				c3.633,0,6.885,0.917,8.797,1.977l-1.721,7.421c-1.405-0.848-4.08-1.977-6.759-1.977c-2.359,0-3.698,1.06-3.698,2.825
				c0,1.624,1.214,2.472,5.038,3.958c5.927,2.261,8.415,5.582,8.476,10.668c0,6.43-4.587,11.163-13.514,11.163
				c-4.08,0-7.713-0.99-10.071-2.403L825.355,500.932z"/>
		</g>
		<g>
			<path fill="#626266" d="M868.932,463.342c2.805-0.637,6.822-0.99,10.646-0.99c5.927,0,9.751,1.202,12.43,3.889
				c2.168,2.119,3.377,5.371,3.377,9.044c0,6.288-3.568,10.457-8.094,12.15v0.215c3.313,1.271,5.289,4.66,6.312,9.609
				c1.401,6.641,2.419,11.232,3.312,13.071h-5.736c-0.702-1.344-1.656-5.44-2.87-11.374c-1.275-6.572-3.568-9.044-8.606-9.259
				h-5.224v20.634h-5.547V463.342z M874.479,485.035h5.671c5.931,0,9.69-3.605,9.69-9.044c0-6.15-4.015-8.833-9.881-8.902
				c-2.675,0-4.591,0.28-5.48,0.564V485.035z"/>
			<path fill="#626266" d="M931.226,492.947c0,12.649-7.904,18.158-15.361,18.158c-8.35,0-14.788-6.783-14.788-17.593
				c0-11.447,6.755-18.158,15.296-18.158C925.234,475.354,931.226,482.49,931.226,492.947z M906.747,493.3
				c0,7.49,3.889,13.144,9.373,13.144c5.354,0,9.369-5.582,9.369-13.286c0-5.793-2.614-13.14-9.243-13.14
				C909.617,480.018,906.747,486.801,906.747,493.3z"/>
			<path fill="#626266" d="M938.313,485.388c0-3.536-0.061-6.43-0.252-9.255h4.908l0.252,5.509h0.195
				c1.721-3.252,4.587-6.288,9.686-6.288c4.21,0,7.396,2.825,8.736,6.852h0.126c0.958-1.908,2.168-3.39,3.442-4.449
				c1.851-1.555,3.889-2.403,6.82-2.403c4.08,0,10.136,2.967,10.136,14.837v20.139h-5.48V490.97c0-6.572-2.168-10.53-6.694-10.53
				c-3.187,0-5.675,2.614-6.629,5.655c-0.256,0.848-0.447,1.977-0.447,3.109v21.125h-5.484v-20.492c0-5.44-2.168-9.397-6.438-9.397
				c-3.503,0-6.053,3.109-6.946,6.219c-0.321,0.917-0.447,1.977-0.447,3.036v20.634h-5.484V485.388z"/>
			<path fill="#626266" d="M994.625,494.36c0.126,8.411,4.973,11.87,10.581,11.87c4.015,0,6.438-0.775,8.541-1.766l0.954,4.453
				c-1.977,0.99-5.354,2.119-10.262,2.119c-9.497,0-15.168-6.925-15.168-17.24s5.48-18.442,14.468-18.442
				c10.069,0,12.749,9.82,12.749,16.112c0,1.271-0.126,2.261-0.191,2.894H994.625z M1011.068,489.911
				c0.065-3.958-1.465-10.104-7.776-10.104c-5.671,0-8.159,5.793-8.606,10.104H1011.068z"/>
			<path fill="#626266" d="M1023.445,486.801c0-4.027-0.061-7.49-0.252-10.668h4.908l0.191,6.71h0.256
				c1.4-4.591,4.778-7.49,8.541-7.49c0.637,0,1.084,0.073,1.591,0.211v5.866c-0.572-0.142-1.145-0.211-1.912-0.211
				c-3.95,0-6.755,3.321-7.522,7.985c-0.126,0.844-0.252,1.835-0.252,2.894v18.231h-5.549V486.801z"/>
			<path fill="#626266" d="M1071.581,492.947c0,12.649-7.904,18.158-15.361,18.158c-8.35,0-14.788-6.783-14.788-17.593
				c0-11.447,6.755-18.158,15.296-18.158C1065.589,475.354,1071.581,482.49,1071.581,492.947z M1047.103,493.3
				c0,7.49,3.889,13.144,9.373,13.144c5.354,0,9.369-5.582,9.369-13.286c0-5.793-2.614-13.14-9.243-13.14
				C1049.973,480.018,1047.103,486.801,1047.103,493.3z"/>
		</g>
		<g>
			<path fill="#626266" d="M1111.014,510.471v-3.105l3.584-3.856c8.622-9.089,12.519-13.92,12.572-19.558
				c0-3.8-1.664-7.307-6.702-7.307c-3.065,0-5.61,1.725-7.169,3.162l-1.453-3.564c2.334-2.188,5.659-3.8,9.556-3.8
				c7.274,0,10.339,5.525,10.339,10.875c0,6.901-4.522,12.483-11.638,20.078l-2.699,2.76v0.114h15.17v4.201H1111.014z"/>
			<path fill="#626266" d="M1160.096,491.372c0,12.714-4.258,19.733-11.74,19.733c-6.596,0-11.066-6.848-11.167-19.217
				c0-12.539,4.883-19.444,11.74-19.444C1156.045,472.443,1160.096,479.462,1160.096,491.372z M1141.76,491.948
				c0,9.722,2.699,15.243,6.856,15.243c4.676,0,6.909-6.04,6.909-15.588c0-9.207-2.131-15.247-6.856-15.247
				C1144.666,476.356,1141.76,481.763,1141.76,491.948z"/>
			<path fill="#626266" d="M1174.219,477.793h-0.106l-5.87,3.511l-0.881-3.856l7.376-4.372h3.897v37.395h-4.417V477.793z"/>
			<path fill="#626266" d="M1210.209,476.645c-0.934-0.057-2.127,0-3.426,0.231c-7.169,1.323-10.96,7.132-11.74,13.286h0.154
				c1.612-2.359,4.417-4.315,8.155-4.315c5.975,0,10.185,4.778,10.185,12.085c0,6.844-4.21,13.173-11.224,13.173
				c-7.218,0-11.947-6.215-11.947-15.937c0-7.364,2.391-13.173,5.716-16.855c2.805-3.049,6.544-4.948,10.806-5.525
				c1.348-0.227,2.492-0.284,3.321-0.284V476.645z M1208.914,498.216c0-5.35-2.756-8.569-6.962-8.569
				c-2.752,0-5.298,1.896-6.548,4.603c-0.308,0.572-0.52,1.319-0.52,2.241c0.105,6.158,2.651,10.701,7.429,10.701
				C1206.263,507.191,1208.914,503.566,1208.914,498.216z"/>
			<path fill="#626266" d="M1240.642,493.04v3.739h-12.832v-3.739H1240.642z"/>
			<path fill="#626266" d="M1255.544,510.471v-3.105l3.584-3.856c8.622-9.089,12.519-13.92,12.572-19.558
				c0-3.8-1.664-7.307-6.702-7.307c-3.065,0-5.61,1.725-7.169,3.162l-1.453-3.564c2.334-2.188,5.659-3.8,9.556-3.8
				c7.274,0,10.339,5.525,10.339,10.875c0,6.901-4.522,12.483-11.638,20.078l-2.7,2.76v0.114h15.17v4.201H1255.544z"/>
			<path fill="#626266" d="M1304.626,491.372c0,12.714-4.258,19.733-11.74,19.733c-6.597,0-11.066-6.848-11.167-19.217
				c0-12.539,4.883-19.444,11.74-19.444C1300.575,472.443,1304.626,479.462,1304.626,491.372z M1286.29,491.948
				c0,9.722,2.7,15.243,6.856,15.243c4.676,0,6.909-6.04,6.909-15.588c0-9.207-2.131-15.247-6.856-15.247
				C1289.197,476.356,1286.29,481.763,1286.29,491.948z"/>
			<path fill="#626266" d="M1318.749,477.793h-0.105l-5.87,3.511l-0.881-3.856l7.376-4.372h3.897v37.395h-4.417V477.793z"/>
			<path fill="#626266" d="M1335.052,500.981c0-4.717,2.549-8.054,6.702-10.01l-0.053-0.175c-3.739-1.957-5.35-5.176-5.35-8.399
				c0-5.927,4.522-9.954,10.445-9.954c6.544,0,9.816,4.547,9.816,9.207c0,3.162-1.401,6.556-5.557,8.744v0.175
				c4.206,1.839,6.803,5.119,6.803,9.661c0,6.503-5.038,10.875-11.48,10.875C1339.314,511.105,1335.052,506.444,1335.052,500.981z
				 M1353.234,500.749c0-4.547-2.854-6.73-7.429-8.168c-3.946,1.262-6.077,4.141-6.077,7.709c-0.154,3.796,2.444,7.132,6.755,7.132
				C1350.587,507.423,1353.234,504.602,1353.234,500.749z M1340.666,482.052c0,3.739,2.545,5.752,6.438,6.905
				c2.911-1.096,5.143-3.394,5.143-6.791c0-2.988-1.608-6.097-5.712-6.097C1342.74,476.068,1340.666,478.828,1340.666,482.052z"/>
		</g>
	</g>
	<g>
		<path fill="#5C5C60" d="M1007.753,331.089l4.652,16.958c0.512,2.05,1.149,4.591,1.53,6.43h0.191
			c0.447-1.839,0.958-4.453,1.405-6.43l3.824-16.958h10.392l-7.27,22.751c-4.461,13.709-7.457,19.221-10.96,22.684
			c-3.381,3.248-6.95,4.38-9.373,4.733l-2.04-9.117c1.212-0.211,2.742-0.844,4.208-1.835c1.465-0.848,3.061-2.545,4.015-4.311
			c0.321-0.495,0.511-1.059,0.511-1.555c0-0.353-0.065-0.917-0.447-1.766l-11.411-31.584H1007.753z"/>
		<path fill="#5C5C60" d="M1047.035,318.653c3.126-0.566,7.778-0.99,12.941-0.99c6.373,0,10.839,1.059,13.895,3.745
			c2.553,2.261,3.954,5.584,3.954,9.964c0,6.077-3.889,10.246-7.587,11.728v0.215c2.996,1.34,4.656,4.522,5.74,8.902
			c1.335,5.371,2.675,11.586,3.503,13.424h-9.941c-0.702-1.344-1.721-5.228-2.996-11.094c-1.149-5.935-2.996-7.559-6.95-7.632
			h-2.931v18.726h-9.629V318.653z M1056.664,339.145h3.824c4.843,0,7.713-2.687,7.713-6.856c0-4.38-2.679-6.57-7.141-6.641
			c-2.359,0-3.698,0.213-4.396,0.353V339.145z"/>
		<path fill="#5C5C60" d="M1091.993,351.79c0.321,4.453,4.27,6.572,8.797,6.572c3.317,0,5.992-0.495,8.606-1.413l1.275,7.279
			c-3.187,1.413-7.076,2.119-11.281,2.119c-10.583,0-16.639-6.783-16.639-17.593c0-8.76,4.908-18.442,15.746-18.442
			c10.071,0,13.895,8.691,13.895,17.24c0,1.839-0.191,3.463-0.317,4.238H1091.993z M1103.404,344.442
			c0-2.614-1.019-6.994-5.48-6.994c-4.08,0-5.74,4.096-5.996,6.994H1103.404z"/>
		<path fill="#5C5C60" d="M1118.144,356.243c1.786,1.202,5.484,2.614,8.35,2.614c2.935,0,4.145-1.129,4.145-2.898
			c0-1.766-0.958-2.614-4.591-3.954c-6.438-2.403-8.923-6.292-8.858-10.388c0-6.43,4.969-11.305,12.686-11.305
			c3.633,0,6.885,0.917,8.797,1.977l-1.721,7.421c-1.405-0.848-4.08-1.977-6.759-1.977c-2.359,0-3.698,1.059-3.698,2.825
			c0,1.624,1.214,2.472,5.038,3.958c5.927,2.261,8.415,5.582,8.476,10.668c0,6.43-4.587,11.163-13.514,11.163
			c-4.08,0-7.713-0.99-10.071-2.403L1118.144,356.243z"/>
		<path fill="#5C5C60" d="M1175.271,354.546c0,4.522,0.126,8.196,0.256,11.094h-8.415l-0.447-4.875h-0.191
			c-1.21,2.119-4.145,5.651-9.755,5.651c-6.308,0-10.964-4.38-10.964-15.048v-20.279h9.755v18.582c0,5.017,1.465,8.058,4.843,8.058
			c2.679,0,4.21-2.05,4.847-3.747c0.256-0.637,0.317-1.486,0.317-2.33v-20.563h9.755V354.546z"/>
		<path fill="#5C5C60" d="M1183.061,315.473h9.69v50.168h-9.69V315.473z"/>
		<path fill="#5C5C60" d="M1211.432,321.196v9.893h6.95v7.914h-6.95v12.507c0,4.169,0.893,6.077,3.828,6.077
			c1.21,0,2.168-0.142,2.866-0.284l0.065,8.127c-1.275,0.564-3.568,0.917-6.312,0.917c-3.122,0-5.736-1.202-7.266-2.967
			c-1.782-2.05-2.675-5.371-2.675-10.246v-14.131h-4.145v-7.914h4.145v-7.49L1211.432,321.196z"/>
		<path fill="#5C5C60" d="M1241.724,365.641l-0.572-3.463h-0.191c-2.042,2.756-5.229,4.238-8.927,4.238
			c-6.308,0-10.071-5.086-10.071-10.595c0-8.975,7.27-13.286,18.296-13.213v-0.495c0-1.839-0.893-4.453-5.671-4.453
			c-3.191,0-6.568,1.202-8.606,2.614l-1.786-6.925c2.168-1.342,6.438-3.036,12.113-3.036c10.388,0,13.704,6.783,13.704,14.91v12.012
			c0,3.321,0.126,6.499,0.447,8.407H1241.724z M1240.579,349.318c-5.103-0.069-9.052,1.271-9.052,5.44c0,2.756,1.656,4.1,3.824,4.1
			c2.423,0,4.4-1.766,5.038-3.958c0.126-0.564,0.191-1.202,0.191-1.835V349.318z"/>
		<path fill="#5C5C60" d="M1287.887,315.473v39.853c0,3.885,0.13,7.985,0.256,10.315h-8.606l-0.447-5.086h-0.126
			c-1.977,3.885-5.74,5.862-9.755,5.862c-7.392,0-13.323-6.994-13.323-17.731c-0.065-11.663,6.503-18.373,13.96-18.373
			c3.824,0,6.82,1.484,8.224,3.885h0.126v-18.724H1287.887z M1278.197,345.713c0-0.564-0.061-1.34-0.126-1.908
			c-0.572-2.894-2.679-5.298-5.675-5.298c-4.396,0-6.694,4.38-6.694,9.82c0,5.866,2.614,9.54,6.633,9.54
			c2.805,0,5.034-2.119,5.606-5.155c0.195-0.779,0.256-1.555,0.256-2.476V345.713z"/>
		<path fill="#5C5C60" d="M1326.472,347.974c0,12.649-8.099,18.442-16.449,18.442c-9.113,0-16.128-6.641-16.128-17.804
			c0-11.163,6.629-18.3,16.64-18.3C1320.094,330.312,1326.472,337.59,1326.472,347.974z M1303.905,348.327
			c0,5.939,2.229,10.388,6.373,10.388c3.759,0,6.182-4.169,6.182-10.388c0-5.155-1.786-10.384-6.182-10.384
			C1305.627,337.943,1303.905,343.241,1303.905,348.327z"/>
		<path fill="#5C5C60" d="M1332.414,356.243c1.786,1.202,5.484,2.614,8.35,2.614c2.935,0,4.145-1.129,4.145-2.898
			c0-1.766-0.958-2.614-4.591-3.954c-6.438-2.403-8.922-6.292-8.858-10.388c0-6.43,4.969-11.305,12.686-11.305
			c3.633,0,6.885,0.917,8.797,1.977l-1.721,7.421c-1.405-0.848-4.08-1.977-6.759-1.977c-2.359,0-3.698,1.059-3.698,2.825
			c0,1.624,1.214,2.472,5.038,3.958c5.927,2.261,8.415,5.582,8.476,10.668c0,6.43-4.587,11.163-13.514,11.163
			c-4.08,0-7.713-0.99-10.071-2.403L1332.414,356.243z"/>
	</g>
	<g>
		<path fill="#5C5C60" d="M1028.978,243.918v39.853c0,3.885,0.13,7.985,0.256,10.315h-8.606l-0.447-5.086h-0.126
			c-1.977,3.885-5.74,5.862-9.755,5.862c-7.392,0-13.321-6.994-13.321-17.731c-0.063-11.663,6.503-18.373,13.958-18.373
			c3.824,0,6.82,1.484,8.224,3.885h0.126v-18.724H1028.978z M1019.288,274.158c0-0.564-0.061-1.34-0.126-1.908
			c-0.572-2.894-2.679-5.298-5.675-5.298c-4.396,0-6.694,4.38-6.694,9.82c0,5.866,2.614,9.54,6.633,9.54
			c2.805,0,5.034-2.119,5.606-5.155c0.195-0.779,0.256-1.555,0.256-2.476V274.158z"/>
		<path fill="#5C5C60" d="M1044.229,280.235c0.321,4.453,4.271,6.572,8.797,6.572c3.317,0,5.992-0.495,8.606-1.413l1.275,7.278
			c-3.187,1.413-7.075,2.119-11.281,2.119c-10.583,0-16.639-6.783-16.639-17.593c0-8.76,4.908-18.442,15.746-18.442
			c10.071,0,13.895,8.691,13.895,17.24c0,1.839-0.191,3.463-0.317,4.238H1044.229z M1055.64,272.888c0-2.614-1.019-6.994-5.48-6.994
			c-4.08,0-5.74,4.096-5.996,6.994H1055.64z"/>
		<path fill="#5C5C60" d="M1089.442,255.505h-11.537v-9.044h33.019v9.044h-11.732v38.58h-9.751V255.505z"/>
		<path fill="#5C5C60" d="M1112.341,270.911c0-5.09-0.13-8.411-0.256-11.376h8.35l0.321,6.359h0.256
			c1.591-5.017,5.415-7.136,8.411-7.136c0.893,0,1.34,0,2.042,0.14v10.106c-0.702-0.142-1.53-0.284-2.614-0.284
			c-3.568,0-5.992,2.119-6.629,5.44c-0.13,0.706-0.191,1.555-0.191,2.403v17.524h-9.69V270.911z"/>
		<path fill="#5C5C60" d="M1153.593,294.086l-0.572-3.463h-0.191c-2.042,2.756-5.229,4.238-8.927,4.238
			c-6.308,0-10.071-5.086-10.071-10.595c0-8.975,7.27-13.286,18.296-13.213v-0.495c0-1.839-0.893-4.453-5.671-4.453
			c-3.191,0-6.568,1.202-8.606,2.614l-1.786-6.925c2.168-1.342,6.438-3.036,12.113-3.036c10.388,0,13.705,6.783,13.705,14.91v12.012
			c0,3.321,0.126,6.499,0.447,8.407H1153.593z M1152.448,277.763c-5.103-0.069-9.052,1.271-9.052,5.44c0,2.756,1.656,4.1,3.824,4.1
			c2.423,0,4.4-1.766,5.038-3.958c0.126-0.564,0.191-1.202,0.191-1.835V277.763z"/>
		<path fill="#5C5C60" d="M1169.29,294.086c0.126-2.261,0.256-6.43,0.256-10.315v-39.853h9.69v19.714h0.126
			c1.851-2.967,5.099-4.875,9.434-4.875c7.457,0,12.941,6.852,12.876,17.451c0,12.438-7.136,18.653-14.277,18.653
			c-3.633,0-7.14-1.482-9.373-5.582h-0.126l-0.382,4.806H1169.29z M1179.236,279.387c0,0.71,0.061,1.344,0.191,1.908
			c0.637,2.898,2.87,5.09,5.671,5.09c4.145,0,6.694-3.536,6.694-9.751c0-5.371-2.168-9.613-6.694-9.613
			c-2.61,0-5.034,2.192-5.671,5.302c-0.13,0.637-0.191,1.271-0.191,1.977V279.387z"/>
		<path fill="#5C5C60" d="M1225.399,294.086l-0.572-3.463h-0.191c-2.042,2.756-5.229,4.238-8.927,4.238
			c-6.308,0-10.071-5.086-10.071-10.595c0-8.975,7.27-13.286,18.296-13.213v-0.495c0-1.839-0.893-4.453-5.671-4.453
			c-3.191,0-6.568,1.202-8.606,2.614l-1.786-6.925c2.168-1.342,6.438-3.036,12.113-3.036c10.388,0,13.704,6.783,13.704,14.91v12.012
			c0,3.321,0.126,6.499,0.447,8.407H1225.399z M1224.255,277.763c-5.103-0.069-9.052,1.271-9.052,5.44c0,2.756,1.656,4.1,3.824,4.1
			c2.423,0,4.4-1.766,5.038-3.958c0.126-0.564,0.191-1.202,0.191-1.835V277.763z"/>
		<path fill="#5C5C60" d="M1234.915,300.447c2.549-0.215,4.526-0.848,5.736-2.261c1.405-1.628,1.912-4.384,1.912-11.236v-27.415
			h9.755v29.96c0,7.559-1.53,12.15-4.4,15.121c-2.866,2.967-7.392,4.238-12.048,4.238L1234.915,300.447z M1252.573,249.924
			c0,2.967-1.977,5.371-5.229,5.371c-3.061,0-5.038-2.403-5.038-5.371c0-3.109,1.977-5.44,5.164-5.44
			C1250.596,244.484,1252.508,246.814,1252.573,249.924z"/>
		<path fill="#5C5C60" d="M1290.699,276.419c0,12.649-8.099,18.442-16.449,18.442c-9.113,0-16.128-6.641-16.128-17.804
			s6.629-18.3,16.639-18.3C1284.321,258.757,1290.699,266.035,1290.699,276.419z M1268.132,276.772
			c0,5.939,2.229,10.388,6.373,10.388c3.759,0,6.182-4.169,6.182-10.388c0-5.155-1.786-10.384-6.182-10.384
			C1269.854,266.388,1268.132,271.686,1268.132,276.772z"/>
	</g>
	<g>
		<path fill="#5C5C60" d="M1032.231,220.562c-2.484,0.986-7.392,2.614-13.193,2.614c-6.503,0-11.857-1.839-16.067-6.288
			c-3.698-3.958-5.992-10.319-5.992-17.735c0.063-14.204,8.862-24.59,23.268-24.59c4.973,0,8.862,1.2,10.709,2.19l-1.34,5.017
			c-2.294-1.131-5.164-2.05-9.495-2.05c-10.457,0-17.277,7.207-17.277,19.148c0,12.085,6.564,19.221,16.574,19.221
			c3.633,0,6.117-0.568,7.392-1.275v-14.2h-8.732v-4.948h14.151V220.562z"/>
		<path fill="#5C5C60" d="M1068.773,205.299c0,12.649-7.904,18.158-15.361,18.158c-8.35,0-14.788-6.783-14.788-17.593
			c0-11.447,6.755-18.158,15.296-18.158C1062.782,187.705,1068.773,194.842,1068.773,205.299z M1044.295,205.652
			c0,7.49,3.889,13.144,9.373,13.144c5.354,0,9.369-5.582,9.369-13.286c0-5.793-2.614-13.14-9.243-13.14
			C1047.165,192.37,1044.295,199.153,1044.295,205.652z"/>
		<path fill="#5C5C60" d="M1075.609,222.681c0.126-2.33,0.252-5.793,0.252-8.833v-41.335h5.549v21.48h0.126
			c1.977-3.816,5.545-6.288,10.518-6.288c7.648,0,13.067,7.067,13.002,17.451c0,12.227-6.946,18.3-13.83,18.3
			c-4.461,0-8.034-1.908-10.327-6.43h-0.191l-0.256,5.655H1075.609z M1081.41,208.972c0,0.779,0.126,1.555,0.252,2.261
			c1.084,4.311,4.335,7.278,8.415,7.278c5.866,0,9.369-5.298,9.369-13.144c0-6.852-3.187-12.718-9.178-12.718
			c-3.824,0-7.392,2.898-8.541,7.632c-0.126,0.706-0.317,1.555-0.317,2.545V208.972z"/>
		<path fill="#5C5C60" d="M1118.395,178.872c0.065,2.121-1.34,3.816-3.568,3.816c-1.977,0-3.377-1.695-3.377-3.816
			c0-2.19,1.465-3.885,3.503-3.885C1117.056,174.987,1118.395,176.682,1118.395,178.872z M1112.148,222.681v-34.198h5.61v34.198
			H1112.148z"/>
		<path fill="#5C5C60" d="M1130.196,206.711c0.126,8.411,4.973,11.87,10.579,11.87c4.019,0,6.442-0.775,8.545-1.766l0.954,4.453
			c-1.977,0.99-5.354,2.119-10.262,2.119c-9.499,0-15.17-6.925-15.17-17.24c0-10.315,5.48-18.442,14.468-18.442
			c10.071,0,12.751,9.82,12.751,16.112c0,1.271-0.126,2.261-0.191,2.894H1130.196z M1146.641,202.262
			c0.065-3.958-1.465-10.104-7.778-10.104c-5.671,0-8.159,5.793-8.606,10.104H1146.641z"/>
		<path fill="#5C5C60" d="M1159.018,199.153c0-4.027-0.061-7.49-0.252-10.67h4.908l0.191,6.712h0.256
			c1.401-4.591,4.778-7.49,8.541-7.49c0.637,0,1.084,0.071,1.591,0.211v5.866c-0.572-0.142-1.145-0.211-1.912-0.211
			c-3.95,0-6.755,3.321-7.522,7.985c-0.126,0.844-0.256,1.835-0.256,2.894v18.231h-5.545V199.153z"/>
		<path fill="#5C5C60" d="M1180.126,197.74c0-3.536-0.061-6.43-0.252-9.257h4.969l0.321,5.653h0.126
			c1.53-3.252,5.103-6.43,10.201-6.43c4.27,0,10.899,2.825,10.899,14.557v20.419h-5.61v-19.712c0-5.513-1.847-10.104-7.14-10.104
			c-3.694,0-6.564,2.894-7.522,6.357c-0.252,0.779-0.382,1.839-0.382,2.898v20.561h-5.61V197.74z"/>
		<path fill="#5C5C60" d="M1243.441,205.299c0,12.649-7.904,18.158-15.361,18.158c-8.35,0-14.788-6.783-14.788-17.593
			c0-11.447,6.755-18.158,15.296-18.158C1237.449,187.705,1243.441,194.842,1243.441,205.299z M1218.963,205.652
			c0,7.49,3.889,13.144,9.373,13.144c5.354,0,9.369-5.582,9.369-13.286c0-5.793-2.614-13.14-9.243-13.14
			S1218.963,199.153,1218.963,205.652z"/>
	</g>
	<g>
		<linearGradient id="SVGID_10_" gradientUnits="userSpaceOnUse" x1="736.1601" y1="180.7229" x2="862.6429" y2="180.7229">
			<stop  offset="0" style="stop-color:#587934"/>
			<stop  offset="0.1396" style="stop-color:#648535"/>
			<stop  offset="0.4664" style="stop-color:#7DA037"/>
			<stop  offset="0.7629" style="stop-color:#8EB036"/>
			<stop  offset="1" style="stop-color:#93B536"/>
		</linearGradient>
		<path fill-rule="evenodd" clip-rule="evenodd" fill="url(#SVGID_10_)" d="M789.789,148.147c9.82-0.625,14.595,7.282,10.129,17.679
			c-4.467,10.398-16.097,18.45-25.453,17.996c-8.836-0.429-12.361-8.347-8.345-17.695
			C770.135,156.78,780.515,148.738,789.789,148.147L789.789,148.147z M736.503,161.836c-1.869,29.138,3.124,54.941,34.323,54.713
			c33.433-0.238,58.368-24.174,85.271-62c2.788-3.932,8.144-11.078,6.085-9.404c-2.468,1.995-15.288,13.648-34.236,27.173
			c-16.959,12.117-38.16,19.251-53.028,20.173c-10.377,0.622-19.078-1.572-26.422-7.018
			C739.297,178.628,738.176,168.393,736.503,161.836L736.503,161.836z"/>
		<linearGradient id="SVGID_11_" gradientUnits="userSpaceOnUse" x1="669.3994" y1="334.0103" x2="805.6506" y2="334.0103">
			<stop  offset="0" style="stop-color:#587934"/>
			<stop  offset="0.1396" style="stop-color:#648535"/>
			<stop  offset="0.4664" style="stop-color:#7DA037"/>
			<stop  offset="0.7629" style="stop-color:#8EB036"/>
			<stop  offset="1" style="stop-color:#93B536"/>
		</linearGradient>
		<path fill-rule="evenodd" clip-rule="evenodd" fill="url(#SVGID_11_)" d="M718.985,361.566
			c-10.489-4.096-15.314-17.153-11.319-29.354c3.995-12.202,15.64-19.977,26.563-17.208c11.604,2.942,17.906,16.471,13.463,30.042
			C743.249,358.615,730.128,365.917,718.985,361.566L718.985,361.566z M804.221,390.045c6.204-53.724-7.364-97.216-48.894-109.296
			c-32.822-9.555-55.968,6.254-80.32,37.112c-2.375,3.018-6.779,8.299-5.316,7.403c1.772-1.074,11.626-8.285,26.771-15.723
			c15.116-7.436,35.124-7.776,50.642-2.453c12.167,4.205,22.984,12.243,32.503,25.526
			C792.952,351.276,801.891,375.352,804.221,390.045L804.221,390.045z"/>
		<g>
			<linearGradient id="SVGID_12_" gradientUnits="userSpaceOnUse" x1="674.3143" y1="223.1914" x2="733.3981" y2="223.1914">
				<stop  offset="0" style="stop-color:#7A3125"/>
				<stop  offset="0.1824" style="stop-color:#873024"/>
				<stop  offset="0.4929" style="stop-color:#9B2A20"/>
				<stop  offset="0.7746" style="stop-color:#A6221C"/>
				<stop  offset="1" style="stop-color:#AA1D1A"/>
			</linearGradient>
			<path fill-rule="evenodd" clip-rule="evenodd" fill="url(#SVGID_12_)" d="M726.309,171.691c0,0-0.68,77.142-51.994,100.59
				c0,0,17.97,9.598,34.323-9.515C708.637,262.766,749.417,218.928,726.309,171.691z"/>
			<linearGradient id="SVGID_13_" gradientUnits="userSpaceOnUse" x1="693.3628" y1="227.7002" x2="713.3494" y2="227.7002">
				<stop  offset="0" style="stop-color:#7A3125"/>
				<stop  offset="0.1824" style="stop-color:#873024"/>
				<stop  offset="0.4929" style="stop-color:#9B2A20"/>
				<stop  offset="0.7746" style="stop-color:#A6221C"/>
				<stop  offset="1" style="stop-color:#AA1D1A"/>
			</linearGradient>
			<path fill-rule="evenodd" clip-rule="evenodd" fill="url(#SVGID_13_)" d="M696.858,224.842
				c-4.193,9.531-4.683,18.537-1.094,20.116s9.897-4.868,14.09-14.399s4.683-18.537,1.094-20.116
				C707.359,208.864,701.051,215.311,696.858,224.842z"/>
		</g>
		<g>
			<linearGradient id="SVGID_14_" gradientUnits="userSpaceOnUse" x1="837.8456" y1="261.5958" x2="891.6614" y2="261.5958">
				<stop  offset="0" style="stop-color:#7A3125"/>
				<stop  offset="0.1824" style="stop-color:#873024"/>
				<stop  offset="0.4929" style="stop-color:#9B2A20"/>
				<stop  offset="0.7746" style="stop-color:#A6221C"/>
				<stop  offset="1" style="stop-color:#AA1D1A"/>
			</linearGradient>
			<path fill-rule="evenodd" clip-rule="evenodd" fill="url(#SVGID_14_)" d="M890.706,267.343
				c-3.91,17.657-18.7,29.398-33.033,26.224c-14.333-3.174-22.783-20.062-18.872-37.719c3.91-17.657,18.7-29.399,33.033-26.224
				C886.167,232.798,894.617,249.686,890.706,267.343z"/>
			<linearGradient id="SVGID_15_" gradientUnits="userSpaceOnUse" x1="795.2328" y1="270.7883" x2="882.9409" y2="270.7883">
				<stop  offset="0" style="stop-color:#7A3125"/>
				<stop  offset="0.1824" style="stop-color:#873024"/>
				<stop  offset="0.4929" style="stop-color:#9B2A20"/>
				<stop  offset="0.7746" style="stop-color:#A6221C"/>
				<stop  offset="1" style="stop-color:#AA1D1A"/>
			</linearGradient>
			<path fill-rule="evenodd" clip-rule="evenodd" fill="url(#SVGID_15_)" d="M882.941,386.435
				c-195.258-111.18-3.539-231.293-3.539-231.293S758.382,267.447,882.941,386.435z"/>
		</g>
	</g>
</g>
</svg>
