<?xml version="1.0" encoding="utf-8"?>
<!-- Generator: Adobe Illustrator 17.0.0, SVG Export Plug-In . SVG Version: 6.00 Build 0)  -->
<!DOCTYPE svg PUBLIC "-//W3C//DTD SVG 1.1//EN" "http://www.w3.org/Graphics/SVG/1.1/DTD/svg11.dtd">
<svg version="1.1" id="Capa_1" xmlns="http://www.w3.org/2000/svg" xmlns:xlink="http://www.w3.org/1999/xlink" x="0px" y="0px"
	 width="100px" height="100px" viewBox="0 0 100 100" enable-background="new 0 0 100 100" xml:space="preserve">
<g id="Capa_2">
	<rect fill="#AA1D19" width="100" height="100"/>
</g>
<g id="Capa_1_1_">
	<g>
		<path fill="#FFFFFF" d="M16.048,42.997c2.283,0,3.437,0.725,4.072,1.401h0.141c0.071-0.876,0.236-1.476,1.412-1.476
			c0.59,0,1.295,0.15,1.719,0.325l-0.165,1.651c-0.494-0.076-0.823-0.076-1.107-0.076c-1.012,0-1.035,0.575-1.082,1.426
			c0.117,0.375,0.188,0.876,0.188,1.226c0,2.701-2.142,4.176-5.343,4.176c-0.117,0-0.376,0-0.541-0.026
			c-0.753,0.301-2.001,0.952-2.001,1.902c0,0.749,0.777,0.925,1.318,0.925h4.024c2.942,0,4.518,1.152,4.518,3.576
			c-0.02,3.627-4.352,4.477-7.411,4.477c-1.977,0-5.789-0.45-5.789-3.402c0-1.725,1.153-2.575,2.165-3.15v-0.15
			c-1.247-0.425-1.459-1.176-1.459-1.751c0-1.476,1.436-2.402,2.684-2.876l-0.023-0.125c-1.648-0.551-2.636-1.802-2.636-3.602
			C10.753,44.697,12.8,42.997,16.048,42.997z M15.178,56.477c-0.66,0.125-2.165,0.801-2.165,2.201c0,1.575,1.882,1.876,3.341,1.876
			c1.695,0,3.79-0.526,3.814-2.401c0-1.001-0.518-1.676-2.002-1.676H15.178L15.178,56.477z M15.978,49.849
			c1.505,0,2.495-0.825,2.495-2.451s-0.871-2.576-2.377-2.576c-1.601,0-2.424,0.976-2.424,2.601
			C13.672,48.65,14.378,49.849,15.978,49.849z"/>
		<path fill="#FFFFFF" d="M23.78,50.025c0-4.527,2.187-7.028,6.237-7.028c4.071,0,6.213,2.45,6.213,7.028
			c0,4.977-2.542,6.952-6.237,6.952C26.321,56.978,23.78,54.927,23.78,50.025z M33.17,50.025c0-3.452-1.294-4.677-3.153-4.677
			c-1.883,0-3.178,1.2-3.178,4.701c0,3.127,1.223,4.601,3.178,4.601C31.993,54.651,33.17,53.202,33.17,50.025z"/>
		<path fill="#FFFFFF" d="M38.123,37.494h3.012v4.628l-0.07,2.676l0.117,0.05c0.848-0.876,1.907-1.851,3.696-1.851
			c3.318,0,5.107,3.076,5.107,6.752c0,4.477-1.954,7.228-6.144,7.228c-1.342,0-2.777-0.174-4.307-0.975l-0.494,0.751h-0.918
			L38.123,37.494L38.123,37.494z M41.135,47.174v6.903c0.777,0.4,1.671,0.625,2.402,0.625c2.471,0,3.389-2.076,3.389-4.802
			c0-2.627-1.035-4.527-2.73-4.527C42.971,45.373,41.889,46.123,41.135,47.174z"/>
		<path d="M52.63,53.45c1.012,0,1.766,0.751,1.766,1.8c0,1.001-0.755,1.726-1.766,1.726c-1.011,0-1.741-0.725-1.741-1.726
			C50.889,54.202,51.618,53.45,52.63,53.45z"/>
		<path fill="#FFFFFF" d="M88.329,53.626c-1.06-1.551-1.413-2.15-2.544-4.051c0.658-1.024,2.332-3.677,3.861-6.353h-3.202
			c-1.222,2.326-2.258,4.002-2.682,4.752h-0.118c-0.658-1.075-1.153-1.926-1.906-3.076c-0.964-1.451-1.507-1.726-2.8-1.726
			c-0.401,0-0.753,0.025-1.201,0.05v2.076c0.447,0,0.964,0.225,1.506,1.001c0.895,1.275,1.388,2.099,2.261,3.501
			c-0.559,0.862-1.467,2.336-1.821,2.803c-0.357,0.471-1.19,1.549-2.319,1.549c-1.52,0-1.543-1.241-1.543-2.095
			c0-0.454,0-3.908,0-3.908c0-3.177-1.296-5.152-4.167-5.152c-1.458,0-2.965,0.6-4.424,2.126h-0.166
			c-0.634-1.351-1.788-2.126-3.482-2.126c-1.529,0-2.777,0.576-4.19,2.026l-0.164-0.025l-0.307-1.776h-2.518v13.532h3.012v-9.355
			c0.682-1.075,1.952-1.851,3.107-1.851c1.412,0,2.094,1.001,2.094,3.051v8.155h3.011v-9.506c0.707-1.075,1.908-1.7,3.061-1.7
			c1.437,0,2.119,1.001,2.119,3.051L72.8,52.79c0,2.138,1.29,3.963,4.081,3.963c3.934,0,4.681-2.035,5.332-3.069
			c0.542-0.862,1.29-2.235,1.29-2.235h0.115c0.801,1.351,1.39,2.402,2.262,3.652c0.986,1.375,1.528,1.775,2.729,1.775
			c0.471,0,1.035-0.05,1.39-0.125V54.6C89.293,54.578,88.821,54.252,88.329,53.626z"/>
	</g>
</g>
</svg>
