<?xml version="1.0" encoding="utf-8"?>
<!-- Generator: Adobe Illustrator 17.0.0, SVG Export Plug-In . SVG Version: 6.00 Build 0)  -->
<!DOCTYPE svg PUBLIC "-//W3C//DTD SVG 1.1//EN" "http://www.w3.org/Graphics/SVG/1.1/DTD/svg11.dtd">
<svg version="1.1" xmlns="http://www.w3.org/2000/svg" xmlns:xlink="http://www.w3.org/1999/xlink" x="0px" y="0px" width="100px"
	 height="100px" viewBox="0 0 100 100" enable-background="new 0 0 100 100" xml:space="preserve">
<g id="Capa_1">
	<g id="Capa_2">
		<linearGradient id="SVGID_1_" gradientUnits="userSpaceOnUse" x1="50" y1="100" x2="50" y2="-2.244633e-09">
			<stop  offset="0" style="stop-color:#F59A19"/>
			<stop  offset="1" style="stop-color:#FDCB57"/>
		</linearGradient>
		<rect fill="url(#SVGID_1_)" width="100" height="100"/>
	</g>
</g>
<g id="Capa_2_1_">
	<g>
		<g>
			<path fill="#FFFFFF" d="M23.77,15h52.461c-0.001,1.451-0.002,2.903,0.001,4.354c-1.46,0.025-2.922-0.009-4.382,0.016
				c-0.006,1.451,0.004,2.903-0.004,4.354c-0.675,0.012-1.352-0.006-2.027,0.013c0.042,0.344,0.161,0.672,0.285,0.994
				c1.807,5.669,1.076,12.099-2.007,17.195c-1.782,3.005-4.339,5.558-7.377,7.287c-0.483,0.256-0.968,0.51-1.439,0.787
				c0.471,0.276,0.955,0.528,1.437,0.784c3.323,1.894,6.069,4.768,7.864,8.142c1.059,1.96,1.776,4.094,2.182,6.281
				c0.428,2.508,0.406,5.086-0.028,7.59c-0.13,0.594-0.294,1.18-0.419,1.776c-0.122,0.577-0.429,1.099-0.496,1.69
				c0.675,0.017,1.351-0.001,2.027,0.012c0.007,1.45-0.001,2.902,0.003,4.353c1.46,0.027,2.922-0.008,4.383,0.017
				c-0.007,1.451-0.002,2.903-0.003,4.354H23.769c0-1.451,0.004-2.903-0.002-4.354c1.462-0.022,2.922,0.008,4.383-0.016
				c0.003-1.451-0.003-2.903,0.003-4.354c0.683-0.011,1.368,0.018,2.051-0.03c-0.13-0.602-0.413-1.156-0.541-1.758
				c-0.106-0.503-0.236-1.001-0.361-1.5c-0.758-4.062-0.38-8.352,1.223-12.171c1.574-3.822,4.304-7.178,7.777-9.429
				c0.755-0.535,1.614-0.895,2.393-1.389c-0.803-0.505-1.681-0.88-2.454-1.432c-4.786-3.11-8.082-8.321-9.03-13.931
				c-0.527-3.284-0.335-6.697,0.674-9.873c0.127-0.333,0.252-0.671,0.296-1.028c-0.675-0.019-1.352,0-2.027-0.009
				c-0.009-1.453-0.002-2.906-0.003-4.359c-1.462-0.021-2.923,0.009-4.383-0.015C23.772,17.903,23.769,16.451,23.77,15z
				 M34.842,23.754c-0.216,0.659-0.52,1.285-0.737,1.942c-0.14,0.507-0.295,1.008-0.439,1.512
				c-0.744,3.443-0.512,7.139,0.915,10.379c1.884,4.551,5.923,8.177,10.689,9.466c0.122,0.063,0.371,0.075,0.343,0.267
				c0.007,1.677-0.004,3.356,0.004,5.034c-0.013,0.155,0.028,0.33-0.054,0.472c-0.324,0.141-0.669,0.226-1.006,0.325
				c-2.943,0.976-5.598,2.803-7.546,5.22c-1.733,2.091-2.891,4.628-3.453,7.28c-0.569,3.114-0.367,6.403,0.81,9.358
				c0.167,0.406,0.33,0.815,0.472,1.232c1.492,0.063,2.988,0.017,4.482,0.021c0.013-0.561-0.208-1.096-0.207-1.655
				c-0.07-1.969,0.349-3.969,1.277-5.711c0.783-1.485,1.931-2.766,3.293-3.744c1.239-0.876,2.665-1.461,4.143-1.789
				c0.021-5.971,0.019-11.945,0.001-17.916c-0.909-0.278-1.886-0.303-2.752-0.725c-1.432-0.429-2.752-1.17-3.955-2.049
				c-1.988-1.5-3.545-3.521-4.607-5.765c4.607-0.023,9.214-0.003,13.821-0.01c4.386,0.008,8.772-0.015,13.158,0.011
				c-0.338,0.585-0.581,1.223-0.973,1.776c-1.255,2.014-2.998,3.734-5.059,4.915c-1.04,0.655-2.222,1.008-3.366,1.428
				c-0.64,0.15-1.298,0.221-1.926,0.423c-0.013,5.971-0.023,11.942,0.004,17.914c1.236,0.282,2.444,0.719,3.522,1.391
				c1.702,1.011,3.08,2.529,3.995,4.279c0.912,1.838,1.335,3.926,1.173,5.975c-0.07,0.415-0.183,0.824-0.183,1.248
				c1.361,0.029,2.723,0.001,4.085,0.013c0.135-0.027,0.375,0.049,0.424-0.132c0.29-0.781,0.649-1.538,0.857-2.346
				c0.529-1.61,0.708-3.32,0.693-5.01c0.01-4.428-1.893-8.814-5.092-11.869c-1.71-1.695-3.833-2.946-6.101-3.733
				c-0.369-0.113-0.75-0.196-1.104-0.356c-0.106-0.131-0.038-0.32-0.06-0.474c0.006-1.72,0-3.44,0.003-5.159
				c0.342-0.143,0.697-0.252,1.054-0.348c0.564-0.143,1.068-0.441,1.616-0.627c4.387-1.975,7.793-5.978,9.063-10.615
				c0.697-2.315,0.764-4.79,0.441-7.176c-0.208-1.625-0.805-3.159-1.403-4.672c-0.727-0.063-1.458-0.011-2.186-0.027
				c-8.946,0-17.891,0-26.837,0C35.704,23.73,35.271,23.713,34.842,23.754z"/>
		</g>
	</g>
</g>
</svg>
