<?xml version="1.0" encoding="utf-8"?>
<!-- Generator: Adobe Illustrator 17.0.0, SVG Export Plug-In . SVG Version: 6.00 Build 0)  -->
<!DOCTYPE svg PUBLIC "-//W3C//DTD SVG 1.1//EN" "http://www.w3.org/Graphics/SVG/1.1/DTD/svg11.dtd">
<svg version="1.1" id="Capa_1" xmlns="http://www.w3.org/2000/svg" xmlns:xlink="http://www.w3.org/1999/xlink" x="0px" y="0px"
	 width="100px" height="100px" viewBox="0 0 100 100" enable-background="new 0 0 100 100" xml:space="preserve">
<g id="Capa_2">
	<linearGradient id="SVGID_1_" gradientUnits="userSpaceOnUse" x1="50" y1="100" x2="50" y2="-2.244633e-09">
		<stop  offset="0" style="stop-color:#1D97B1"/>
		<stop  offset="1" style="stop-color:#00A99E"/>
	</linearGradient>
	<rect fill="url(#SVGID_1_)" width="100" height="100"/>
	<g>
		<g>
			<path fill="#FFFFFF" d="M37.373,19.825c2.957-3.227,7.193-5.24,11.565-5.458c4.063-0.244,8.191,1.038,11.395,3.549
				c4.244,3.253,6.813,8.616,6.54,13.971c-0.168,2.123-0.857,4.16-1.602,6.142c-1.654,4.26-3.817,8.302-6.06,12.275
				c-2.897,5.093-6.058,10.032-9.308,14.907c-3.224-4.76-6.296-9.625-9.161-14.608c-2.312-4.089-4.551-8.239-6.249-12.627
				c-0.765-2.047-1.478-4.16-1.594-6.359C32.77,27.301,34.44,22.984,37.373,19.825z M47.491,18.711
				c-2.983,0.582-5.714,2.322-7.513,4.768c-1.903,2.535-2.744,5.832-2.294,8.97c0.443,3.305,2.328,6.375,5.046,8.299
				c2.6,1.879,5.956,2.663,9.119,2.139c3.277-0.509,6.291-2.422,8.176-5.146c1.756-2.506,2.514-5.686,2.066-8.713
				c-0.464-3.379-2.438-6.498-5.256-8.406C54.144,18.764,50.695,18.067,47.491,18.711z"/>
		</g>
		<path fill="#FFFFFF" d="M66.281,42.625c4.026,1.547,8.058,3.072,12.079,4.634c3.035,12.805,6.094,25.602,9.14,38.402
			c-7.277-3.649-14.543-7.324-21.82-10.973c-5.227,2.545-10.454,5.091-15.68,7.628c-5.232-2.537-10.456-5.091-15.688-7.625
			c-7.274,3.651-14.538,7.321-21.812,10.97c3.049-12.802,6.102-25.602,9.146-38.407c3.961-1.528,7.927-3.038,11.89-4.558
			c0.097,0.212,0.294,0.634,0.391,0.844c-3.824,1.463-7.644,2.936-11.471,4.391c-2.881,11.995-5.722,24.003-8.582,36.003
			c6.807-3.431,13.62-6.855,20.43-10.286c5.232,2.543,10.464,5.091,15.696,7.636c5.232-2.548,10.464-5.091,15.696-7.638
			c6.807,3.434,13.623,6.857,20.433,10.289c-2.86-12-5.709-24-8.579-35.995c-3.885-1.489-7.772-2.978-11.657-4.467
			C66.021,43.189,66.15,42.906,66.281,42.625z"/>
		<path fill="#FFFFFF" d="M65.258,44.691c3.714,1.418,7.426,2.839,11.135,4.265c1.877,7.88,3.754,15.759,5.631,23.639
			c-5.098-1.827-10.194-3.659-15.287-5.494c-0.553-7.106-1.093-14.218-1.651-21.324C65.044,45.399,65.101,45.037,65.258,44.691z"/>
		<path fill="#FFFFFF" d="M24.293,49.53c3.549-1.337,7.08-2.724,10.632-4.055c-0.309,4.281-0.661,8.553-0.978,12.831
			c-4.362,1.879-8.729,3.741-13.091,5.617C22.005,59.126,23.132,54.324,24.293,49.53z"/>
		<path fill="#FFFFFF" d="M52.813,65.803c3.416-5.093,6.661-10.307,9.649-15.667c0.425,5.478,0.847,10.957,1.269,16.435
			C60.089,66.322,56.451,66.062,52.813,65.803z"/>
		<path fill="#FFFFFF" d="M37.512,50.471c2.322,4.168,4.834,8.226,7.405,12.241c-2.679-1.402-5.345-2.834-8.021-4.246
			C37.098,55.8,37.308,53.137,37.512,50.471z"/>
		<path fill="#FFFFFF" d="M20.023,67.483c4.553-1.955,9.109-3.911,13.665-5.859c-0.265,3.439-0.535,6.881-0.794,10.323
			c-5.279,2.661-10.559,5.321-15.843,7.974C18.039,75.774,19.032,71.63,20.023,67.483z"/>
		<path fill="#FFFFFF" d="M36.65,61.669c3.945,2.068,7.856,4.199,11.814,6.241c0.142,3.413,0.021,6.839,0.06,10.26
			c-4.228-2.047-8.448-4.11-12.674-6.163C36.118,68.56,36.38,65.116,36.65,61.669z"/>
		<path fill="#FFFFFF" d="M51.476,68.665c4.16,0.291,8.32,0.585,12.48,0.878c0.068,0.82,0.134,1.641,0.194,2.464
			c-4.226,2.052-8.446,4.113-12.674,6.163C51.473,75.001,51.476,71.834,51.476,68.665z"/>
		<path fill="#FFFFFF" d="M66.989,70.324c4.986,1.788,9.974,3.578,14.96,5.376c0.336,1.408,0.671,2.815,1.004,4.223
			c-5.284-2.653-10.564-5.316-15.846-7.977C67.065,71.404,67.025,70.864,66.989,70.324z"/>
	</g>
</g>
</svg>
