<?xml version="1.0" encoding="utf-8"?>
<!-- Generator: Adobe Illustrator 17.0.0, SVG Export Plug-In . SVG Version: 6.00 Build 0)  -->
<!DOCTYPE svg PUBLIC "-//W3C//DTD SVG 1.1//EN" "http://www.w3.org/Graphics/SVG/1.1/DTD/svg11.dtd">
<svg version="1.1" id="Capa_1" xmlns="http://www.w3.org/2000/svg" xmlns:xlink="http://www.w3.org/1999/xlink" x="0px" y="0px"
	 width="229px" height="114px" viewBox="0 0 229 114" enable-background="new 0 0 229 114" xml:space="preserve">
<g>
	
		<linearGradient id="SVGID_1_" gradientUnits="userSpaceOnUse" x1="-140.241" y1="732.4824" x2="-140.241" y2="759.7121" gradientTransform="matrix(1 0 0 1 168 -673.542)">
		<stop  offset="0.5" style="stop-color:#FFFFFF"/>
		<stop  offset="0.6006" style="stop-color:#FCFEFD"/>
		<stop  offset="0.6814" style="stop-color:#F2FAF6"/>
		<stop  offset="0.7554" style="stop-color:#E1F3EC"/>
		<stop  offset="0.8252" style="stop-color:#C9E9DC"/>
		<stop  offset="0.8922" style="stop-color:#AADCC8"/>
		<stop  offset="0.9561" style="stop-color:#85CDB0"/>
		<stop  offset="1" style="stop-color:#67C19D"/>
	</linearGradient>
	<path opacity="0.5" fill="url(#SVGID_1_)" enable-background="new    " d="M15.292,77.732V71.89l24.934,14.278h-10.2L15.292,77.732
		z"/>
	
		<linearGradient id="SVGID_2_" gradientUnits="userSpaceOnUse" x1="-53.032" y1="729.4873" x2="-53.032" y2="759.712" gradientTransform="matrix(1 0 0 1 168 -673.542)">
		<stop  offset="0.5" style="stop-color:#FFFFFF"/>
		<stop  offset="0.5812" style="stop-color:#FCFCFC"/>
		<stop  offset="0.6464" style="stop-color:#F2F2F2"/>
		<stop  offset="0.7061" style="stop-color:#E1E1E1"/>
		<stop  offset="0.7625" style="stop-color:#C9C9C9"/>
		<stop  offset="0.8166" style="stop-color:#AAAAAA"/>
		<stop  offset="0.8689" style="stop-color:#848484"/>
		<stop  offset="0.9199" style="stop-color:#585858"/>
		<stop  offset="0.9686" style="stop-color:#252525"/>
		<stop  offset="1" style="stop-color:#000000"/>
	</linearGradient>
	<path opacity="0.25" fill="url(#SVGID_2_)" enable-background="new    " d="M78.997,70.288h8.728l4.048,2.316
		c-0.324-0.966-0.146-1.652,0.531-2.062c0.676-0.41,1.996-0.613,3.963-0.613c2.116,0,4.182,0.225,6.198,0.673
		c2.016,0.446,4.189,1.116,6.522,2.003c-0.216-1.036,0.004-1.74,0.666-2.116c0.658-0.372,1.952-0.56,3.879-0.56
		c2.839,0,5.94,0.506,9.302,1.517c3.361,1.015,6.922,2.595,10.685,4.748l17.42,9.976h-9.423l-15.801-9.047
		c-2.271-1.3-6.024-2.424-8.22-2.424c-1.195,0-1.702,0.262-1.526,0.778c0.176,0.517,0.887,1.353,2.89,2.498l14.312,8.194h-9.424
		l-15.281-8.749c-2.266-1.297-5.833-2.75-8.386-2.75c-1.169,0-1.668,0.262-1.496,0.791c0.171,0.529,1.312,1.396,3.417,2.602
		l14.157,8.105h-9.425L78.997,70.288z"/>
	
		<linearGradient id="SVGID_3_" gradientUnits="userSpaceOnUse" x1="16.438" y1="729.4873" x2="16.438" y2="759.712" gradientTransform="matrix(1 0 0 1 168 -673.542)">
		<stop  offset="0.5" style="stop-color:#FFFFFF"/>
		<stop  offset="0.5812" style="stop-color:#FCFCFC"/>
		<stop  offset="0.6464" style="stop-color:#F2F2F2"/>
		<stop  offset="0.7061" style="stop-color:#E1E1E1"/>
		<stop  offset="0.7625" style="stop-color:#C9C9C9"/>
		<stop  offset="0.8166" style="stop-color:#AAAAAA"/>
		<stop  offset="0.8689" style="stop-color:#848484"/>
		<stop  offset="0.9199" style="stop-color:#585858"/>
		<stop  offset="0.9686" style="stop-color:#252525"/>
		<stop  offset="1" style="stop-color:#000000"/>
	</linearGradient>
	<path opacity="0.25" fill="url(#SVGID_3_)" enable-background="new    " d="M153.313,69.929h12.371l12.221,4.524l-2.871-4.524h11.5
		l4.234,7.737l24.795,8.502h-12.166l-14.17-5.23l3.232,5.23h-11.297l-4.971-8.502L153.313,69.929z"/>
	
		<linearGradient id="SVGID_4_" gradientUnits="userSpaceOnUse" x1="-127.1424" y1="732.4834" x2="-127.1424" y2="759.7123" gradientTransform="matrix(1 0 0 1 168 -673.542)">
		<stop  offset="0.5" style="stop-color:#FFFFFF"/>
		<stop  offset="0.6006" style="stop-color:#FCFEFD"/>
		<stop  offset="0.6814" style="stop-color:#F2FAF6"/>
		<stop  offset="0.7554" style="stop-color:#E1F3EC"/>
		<stop  offset="0.8252" style="stop-color:#C9E9DC"/>
		<stop  offset="0.8922" style="stop-color:#AADCC8"/>
		<stop  offset="0.9561" style="stop-color:#85CDB0"/>
		<stop  offset="1" style="stop-color:#67C19D"/>
	</linearGradient>
	<path opacity="0.5" fill="url(#SVGID_4_)" enable-background="new    " d="M44.594,72.314c-5.398-1.591-9.929-2.386-13.593-2.386
		c-2.318,0-3.932,0.275-4.853,0.822l-1.466-0.838h-7.556l28.389,16.256h7.556l-1.447-0.83c2.794,0.552,5.295,0.83,7.505,0.83
		c3.75,0,5.571-0.791,5.455-2.379c-0.116-1.586-2.141-3.506-6.075-5.758C54.63,75.812,49.991,73.905,44.594,72.314z M51.239,81.657
		c-3.34,0-8.867-1.613-12.348-3.607c-3.482-1.994-3.599-3.609-0.259-3.609c3.34,0,8.867,1.615,12.347,3.609
		C54.461,80.043,54.576,81.657,51.239,81.657z"/>
	
		<linearGradient id="SVGID_5_" gradientUnits="userSpaceOnUse" x1="-92.4887" y1="732.4834" x2="-92.4887" y2="759.7115" gradientTransform="matrix(1 0 0 1 168 -673.542)">
		<stop  offset="0.5" style="stop-color:#FFFFFF"/>
		<stop  offset="0.6006" style="stop-color:#FCFEFD"/>
		<stop  offset="0.6814" style="stop-color:#F2FAF6"/>
		<stop  offset="0.7554" style="stop-color:#E1F3EC"/>
		<stop  offset="0.8252" style="stop-color:#C9E9DC"/>
		<stop  offset="0.8922" style="stop-color:#AADCC8"/>
		<stop  offset="0.9561" style="stop-color:#85CDB0"/>
		<stop  offset="1" style="stop-color:#67C19D"/>
	</linearGradient>
	<path opacity="0.5" fill="url(#SVGID_5_)" enable-background="new    " d="M75.195,72.314c-5.397-1.591-9.927-2.386-13.593-2.386
		c-3.907,0-5.83,0.779-5.77,2.339c0.062,1.56,2.088,3.481,6.076,5.767c3.918,2.241,8.597,4.157,14.035,5.75
		c5.44,1.59,10.036,2.385,13.789,2.385c3.751,0,5.569-0.791,5.455-2.377c-0.116-1.586-2.141-3.506-6.075-5.758
		C85.231,75.812,80.594,73.905,75.195,72.314z M81.839,81.657c-3.337,0-8.865-1.613-12.347-3.607
		c-3.481-1.994-3.597-3.609-0.257-3.609c3.339,0,8.865,1.615,12.347,3.609S85.179,81.657,81.839,81.657z"/>
	
		<linearGradient id="SVGID_6_" gradientUnits="userSpaceOnUse" x1="-14.2816" y1="729.4873" x2="-14.2816" y2="759.712" gradientTransform="matrix(1 0 0 1 168 -673.542)">
		<stop  offset="0.5" style="stop-color:#FFFFFF"/>
		<stop  offset="0.5812" style="stop-color:#FCFCFC"/>
		<stop  offset="0.6464" style="stop-color:#F2F2F2"/>
		<stop  offset="0.7061" style="stop-color:#E1E1E1"/>
		<stop  offset="0.7625" style="stop-color:#C9C9C9"/>
		<stop  offset="0.8166" style="stop-color:#AAAAAA"/>
		<stop  offset="0.8689" style="stop-color:#848484"/>
		<stop  offset="0.9199" style="stop-color:#585858"/>
		<stop  offset="0.9686" style="stop-color:#252525"/>
		<stop  offset="1" style="stop-color:#000000"/>
	</linearGradient>
	<path opacity="0.25" fill="url(#SVGID_6_)" enable-background="new    " d="M163.405,76.018c-2.979-1.381-6.314-2.615-10.001-3.703
		c-5.397-1.591-9.929-2.386-13.595-2.386c-3.906,0-5.83,0.778-5.77,2.339c0.006,0.094,0.016,0.189,0.035,0.288
		c0.071,0.394,0.266,0.81,0.575,1.247c0.196,0.275,0.442,0.561,0.731,0.854c0.431,0.436,0.959,0.889,1.599,1.361
		c0.056,0.041,0.114,0.083,0.17,0.123c0.825,0.602,1.81,1.23,2.968,1.893c1.246,0.715,2.575,1.396,3.979,2.045
		c2.998,1.389,6.351,2.621,10.057,3.705c5.439,1.592,10.033,2.387,13.786,2.387s5.571-0.791,5.455-2.379
		c-0.006-0.086-0.021-0.174-0.038-0.26l-9.738-1.988c-0.354,0.418-1.219,0.666-2.609,0.666c-2.611,0-6.385-0.86-9.797-2.131h19.276
		c-0.054-0.041-0.116-0.084-0.172-0.127c-0.834-0.609-1.829-1.25-2.997-1.918C166.092,77.329,164.788,76.659,163.405,76.018z
		 M144.543,76.469c-1.603-1.514-0.974-2.579,1.938-2.579s7.266,1.065,10.949,2.579H144.543z"/>
	<g>
		<path fill="#404040" d="M56.244,96.344v-5.646h1.139v5.646C57.383,96.344,56.244,96.344,56.244,96.344z"/>
		<path fill="#404040" d="M62.181,96.344h-1.083v-2.086c0-0.443-0.022-0.729-0.069-0.857c-0.045-0.131-0.122-0.23-0.225-0.303
			c-0.105-0.073-0.23-0.107-0.375-0.107c-0.188,0-0.357,0.051-0.506,0.152c-0.149,0.105-0.25,0.24-0.305,0.408
			c-0.056,0.17-0.083,0.482-0.083,0.939v1.854h-1.082v-4.09h1.004v0.6c0.357-0.462,0.807-0.691,1.349-0.691
			c0.239,0,0.457,0.043,0.655,0.129c0.197,0.086,0.348,0.195,0.447,0.33c0.102,0.133,0.172,0.283,0.212,0.453s0.06,0.412,0.06,0.729
			L62.181,96.344L62.181,96.344z"/>
		<path fill="#404040" d="M62.806,92.254h0.6v-0.31c0-0.344,0.037-0.601,0.109-0.771c0.074-0.168,0.208-0.307,0.406-0.414
			c0.195-0.105,0.444-0.158,0.745-0.158c0.306,0,0.609,0.046,0.904,0.139l-0.146,0.754c-0.172-0.039-0.337-0.061-0.497-0.061
			c-0.158,0-0.268,0.033-0.337,0.107c-0.067,0.074-0.102,0.215-0.102,0.422v0.289h0.809v0.853h-0.809v3.237h-1.083v-3.237h-0.6
			L62.806,92.254L62.806,92.254z"/>
		<path fill="#404040" d="M65.656,94.243c0-0.361,0.088-0.709,0.265-1.046c0.177-0.336,0.428-0.594,0.754-0.771
			c0.325-0.178,0.687-0.266,1.088-0.266c0.618,0,1.125,0.199,1.521,0.603c0.395,0.401,0.593,0.909,0.593,1.524
			c0,0.617-0.199,1.131-0.598,1.537c-0.401,0.407-0.903,0.609-1.508,0.609c-0.374,0-0.732-0.084-1.073-0.253
			s-0.599-0.417-0.776-0.746C65.745,95.11,65.656,94.711,65.656,94.243z M66.764,94.299c0,0.406,0.096,0.717,0.29,0.932
			c0.192,0.217,0.43,0.324,0.712,0.324c0.283,0,0.519-0.108,0.711-0.324c0.192-0.215,0.286-0.527,0.286-0.939
			c0-0.399-0.094-0.709-0.286-0.924c-0.192-0.216-0.428-0.324-0.711-0.324c-0.283,0-0.52,0.108-0.712,0.324
			C66.86,93.583,66.764,93.893,66.764,94.299z"/>
		<path fill="#404040" d="M71.76,96.344h-1.083v-4.09h1.006v0.582c0.172-0.275,0.326-0.455,0.462-0.545
			c0.14-0.086,0.294-0.129,0.47-0.129c0.247,0,0.484,0.066,0.712,0.203l-0.335,0.942c-0.183-0.118-0.352-0.179-0.509-0.179
			c-0.15,0-0.279,0.043-0.384,0.127c-0.105,0.082-0.188,0.234-0.249,0.451c-0.06,0.219-0.09,0.676-0.09,1.373
			C71.76,95.079,71.76,96.344,71.76,96.344z"/>
		<path fill="#404040" d="M73.712,92.254h0.997v0.559c0.357-0.434,0.783-0.65,1.276-0.65c0.261,0,0.489,0.055,0.682,0.16
			c0.192,0.109,0.35,0.272,0.473,0.49c0.179-0.218,0.374-0.381,0.582-0.49c0.209-0.105,0.43-0.16,0.666-0.16
			c0.301,0,0.555,0.062,0.763,0.184c0.208,0.121,0.363,0.301,0.466,0.535c0.074,0.177,0.112,0.457,0.112,0.85v2.614h-1.082v-2.339
			c0-0.403-0.038-0.668-0.112-0.784c-0.102-0.154-0.256-0.229-0.462-0.229c-0.152,0-0.293,0.045-0.428,0.137
			c-0.132,0.094-0.23,0.229-0.289,0.408c-0.058,0.178-0.088,0.459-0.088,0.846v1.963h-1.083v-2.242c0-0.396-0.02-0.654-0.058-0.77
			s-0.098-0.201-0.179-0.26c-0.08-0.054-0.188-0.082-0.328-0.082c-0.167,0-0.317,0.045-0.452,0.133
			c-0.132,0.092-0.228,0.221-0.286,0.391c-0.058,0.169-0.087,0.451-0.087,0.844v1.986h-1.082L73.712,92.254L73.712,92.254z"/>
		<path fill="#404040" d="M81.617,93.5l-0.983-0.176c0.111-0.396,0.299-0.689,0.569-0.879s0.671-0.283,1.202-0.283
			c0.484,0,0.843,0.057,1.079,0.17c0.235,0.114,0.402,0.26,0.498,0.437c0.096,0.175,0.146,0.499,0.146,0.968L84.115,95
			c0,0.358,0.018,0.625,0.052,0.795c0.035,0.172,0.1,0.354,0.196,0.549h-1.071c-0.029-0.07-0.063-0.178-0.105-0.318
			c-0.017-0.066-0.029-0.107-0.038-0.127c-0.185,0.18-0.383,0.312-0.593,0.404c-0.21,0.088-0.435,0.133-0.674,0.133
			c-0.421,0-0.752-0.113-0.996-0.342c-0.243-0.229-0.364-0.518-0.364-0.867c0-0.23,0.056-0.438,0.167-0.617
			c0.111-0.182,0.265-0.32,0.464-0.416c0.198-0.097,0.486-0.182,0.859-0.252c0.506-0.096,0.857-0.186,1.051-0.266v-0.109
			c0-0.207-0.051-0.355-0.154-0.443c-0.102-0.09-0.295-0.133-0.581-0.133c-0.194,0-0.342,0.037-0.451,0.112
			C81.771,93.179,81.682,93.312,81.617,93.5z M83.063,94.381c-0.138,0.045-0.357,0.1-0.658,0.164
			c-0.299,0.065-0.497,0.127-0.589,0.188c-0.142,0.101-0.212,0.229-0.212,0.382c0,0.151,0.056,0.281,0.17,0.393
			c0.113,0.111,0.258,0.164,0.432,0.164c0.194,0,0.381-0.062,0.559-0.191c0.13-0.098,0.217-0.215,0.257-0.357
			c0.029-0.092,0.042-0.268,0.042-0.526L83.063,94.381L83.063,94.381z"/>
		<path fill="#404040" d="M88.761,93.463l-1.068,0.193c-0.034-0.215-0.118-0.375-0.245-0.482c-0.126-0.107-0.292-0.162-0.495-0.162
			c-0.269,0-0.484,0.094-0.646,0.279c-0.16,0.188-0.241,0.498-0.241,0.936c0,0.484,0.083,0.826,0.247,1.027
			c0.163,0.199,0.381,0.301,0.656,0.301c0.205,0,0.374-0.061,0.504-0.176c0.13-0.117,0.223-0.318,0.277-0.604l1.062,0.183
			c-0.111,0.486-0.321,0.855-0.634,1.104c-0.314,0.25-0.732,0.373-1.26,0.373c-0.598,0-1.075-0.188-1.43-0.563
			c-0.357-0.377-0.535-0.901-0.535-1.568c0-0.676,0.18-1.2,0.537-1.578c0.357-0.375,0.839-0.562,1.448-0.562
			c0.499,0,0.894,0.106,1.188,0.32C88.42,92.696,88.632,93.024,88.761,93.463z"/>
		<path fill="#404040" d="M89.581,91.7v-1.003h1.082V91.7H89.581z M89.581,96.344v-4.09h1.082v4.09
			C90.663,96.344,89.581,96.344,89.581,96.344z"/>
		<path fill="#404040" d="M91.522,94.243c0-0.361,0.089-0.709,0.267-1.046c0.176-0.336,0.428-0.594,0.752-0.771
			c0.325-0.178,0.688-0.266,1.088-0.266c0.618,0,1.126,0.199,1.521,0.603s0.593,0.909,0.593,1.524c0,0.617-0.2,1.131-0.598,1.537
			c-0.399,0.407-0.901,0.609-1.508,0.609c-0.375,0-0.732-0.084-1.073-0.253c-0.339-0.169-0.598-0.417-0.774-0.746
			C91.611,95.11,91.522,94.711,91.522,94.243z M92.631,94.299c0,0.406,0.096,0.717,0.288,0.932c0.192,0.217,0.43,0.324,0.713,0.324
			c0.282,0,0.518-0.108,0.71-0.324c0.192-0.215,0.288-0.527,0.288-0.939c0-0.399-0.096-0.709-0.288-0.924
			c-0.192-0.216-0.428-0.324-0.71-0.324c-0.283,0-0.521,0.108-0.713,0.324C92.728,93.583,92.631,93.893,92.631,94.299z
			 M93.086,91.754l0.531-1.151h1.213l-1.059,1.151H93.086z"/>
		<path fill="#404040" d="M100.311,96.344h-1.083v-2.086c0-0.443-0.023-0.729-0.068-0.857c-0.047-0.131-0.122-0.23-0.225-0.303
			c-0.105-0.073-0.23-0.107-0.377-0.107c-0.187,0-0.355,0.051-0.504,0.152c-0.149,0.105-0.252,0.24-0.307,0.408
			c-0.054,0.17-0.082,0.482-0.082,0.939v1.854h-1.082v-4.09h1.004v0.6c0.357-0.462,0.807-0.691,1.349-0.691
			c0.239,0,0.457,0.043,0.654,0.129c0.198,0.086,0.348,0.195,0.448,0.33c0.102,0.133,0.172,0.283,0.212,0.453s0.06,0.412,0.06,0.729
			L100.311,96.344L100.311,96.344z"/>
		<path fill="#404040" d="M103.608,96.344v-5.646h1.83c0.692,0,1.146,0.028,1.354,0.084c0.325,0.086,0.597,0.271,0.814,0.555
			c0.217,0.283,0.328,0.65,0.328,1.101c0,0.347-0.063,0.638-0.19,0.873c-0.125,0.235-0.285,0.423-0.479,0.558
			c-0.194,0.135-0.39,0.223-0.593,0.268c-0.27,0.054-0.666,0.082-1.18,0.082h-0.745v2.129h-1.139V96.344z M104.747,91.652v1.603
			h0.625c0.448,0,0.749-0.028,0.901-0.088c0.15-0.06,0.271-0.15,0.355-0.277c0.087-0.125,0.129-0.271,0.129-0.439
			c0-0.203-0.06-0.373-0.18-0.507c-0.122-0.134-0.274-0.218-0.458-0.251c-0.136-0.025-0.41-0.039-0.821-0.039L104.747,91.652
			L104.747,91.652z"/>
		<path fill="#404040" d="M111.552,96.344V95.73c-0.147,0.22-0.345,0.392-0.586,0.519c-0.243,0.125-0.498,0.188-0.769,0.188
			c-0.275,0-0.522-0.059-0.739-0.182c-0.22-0.119-0.377-0.287-0.475-0.508c-0.096-0.218-0.145-0.521-0.145-0.904v-2.588h1.082v1.879
			c0,0.574,0.02,0.928,0.06,1.059c0.04,0.128,0.112,0.23,0.217,0.309c0.105,0.076,0.238,0.113,0.401,0.113
			c0.185,0,0.35-0.052,0.497-0.154c0.147-0.101,0.247-0.227,0.301-0.375c0.053-0.149,0.08-0.52,0.08-1.104v-1.727h1.082v4.09
			L111.552,96.344L111.552,96.344z M110.151,91.754l0.531-1.151h1.214l-1.059,1.151H110.151z"/>
		<path fill="#404040" d="M113.631,96.344v-5.646h1.084v2.033c0.334-0.379,0.729-0.568,1.186-0.568c0.499,0,0.91,0.18,1.236,0.541
			c0.326,0.36,0.49,0.879,0.49,1.555c0,0.697-0.167,1.236-0.5,1.613s-0.735,0.564-1.211,0.564c-0.233,0-0.464-0.057-0.692-0.174
			c-0.227-0.117-0.424-0.289-0.587-0.518v0.6C114.637,96.344,113.631,96.344,113.631,96.344z M114.707,94.209
			c0,0.426,0.067,0.737,0.201,0.938c0.187,0.289,0.437,0.435,0.747,0.435c0.239,0,0.442-0.103,0.611-0.308
			c0.166-0.204,0.252-0.524,0.252-0.966c0-0.467-0.086-0.803-0.254-1.01c-0.171-0.207-0.389-0.311-0.651-0.311
			c-0.259,0-0.477,0.1-0.647,0.303C114.793,93.495,114.707,93.801,114.707,94.209z"/>
		<path fill="#404040" d="M118.497,96.344v-5.646h1.084v5.646C119.581,96.344,118.497,96.344,118.497,96.344z"/>
		<path fill="#404040" d="M120.687,91.7v-1.003h1.082V91.7H120.687z M120.687,96.344v-4.09h1.082v4.09
			C121.769,96.344,120.687,96.344,120.687,96.344z"/>
		<path fill="#404040" d="M126.447,93.463l-1.065,0.193c-0.036-0.215-0.118-0.375-0.245-0.482c-0.128-0.107-0.291-0.162-0.494-0.162
			c-0.271,0-0.486,0.094-0.646,0.279c-0.16,0.187-0.242,0.498-0.242,0.936c0,0.484,0.082,0.826,0.244,1.027
			c0.164,0.199,0.383,0.301,0.656,0.301c0.205,0,0.374-0.061,0.506-0.176c0.131-0.117,0.225-0.318,0.277-0.604l1.062,0.183
			c-0.11,0.486-0.322,0.855-0.637,1.104c-0.312,0.25-0.732,0.373-1.259,0.373c-0.599,0-1.074-0.188-1.431-0.563
			c-0.356-0.377-0.534-0.901-0.534-1.568c0-0.676,0.178-1.2,0.536-1.578c0.355-0.375,0.84-0.562,1.447-0.562
			c0.498,0,0.894,0.106,1.188,0.32C126.108,92.696,126.318,93.024,126.447,93.463z"/>
		<path fill="#404040" d="M128.077,93.5l-0.981-0.176c0.108-0.396,0.301-0.689,0.567-0.879c0.271-0.189,0.672-0.283,1.203-0.283
			c0.481,0,0.842,0.057,1.078,0.17c0.237,0.114,0.402,0.26,0.498,0.437c0.098,0.175,0.145,0.499,0.145,0.968L130.575,95
			c0,0.358,0.018,0.625,0.053,0.795c0.035,0.172,0.101,0.354,0.193,0.549h-1.068c-0.027-0.07-0.063-0.178-0.104-0.318
			c-0.021-0.066-0.03-0.107-0.04-0.127c-0.186,0.18-0.381,0.312-0.593,0.404c-0.21,0.088-0.435,0.133-0.675,0.133
			c-0.42,0-0.752-0.113-0.994-0.342c-0.243-0.229-0.365-0.518-0.365-0.867c0-0.23,0.057-0.438,0.167-0.617
			c0.11-0.182,0.265-0.32,0.464-0.416c0.197-0.097,0.486-0.182,0.861-0.252c0.506-0.096,0.855-0.186,1.05-0.266v-0.109
			c0-0.207-0.051-0.355-0.151-0.443c-0.104-0.09-0.299-0.133-0.582-0.133c-0.192,0-0.344,0.037-0.451,0.112
			C128.231,93.179,128.141,93.312,128.077,93.5z M129.523,94.381c-0.138,0.045-0.356,0.1-0.657,0.164
			c-0.3,0.065-0.498,0.127-0.59,0.188c-0.143,0.101-0.213,0.229-0.213,0.382c0,0.151,0.057,0.281,0.171,0.393
			c0.112,0.111,0.257,0.164,0.431,0.164c0.195,0,0.383-0.062,0.56-0.191c0.131-0.098,0.217-0.215,0.258-0.357
			c0.029-0.092,0.042-0.268,0.042-0.526L129.523,94.381L129.523,94.381z"/>
		<path fill="#404040" d="M137.596,96.344h-1.006v-0.6c-0.166,0.231-0.363,0.405-0.59,0.52c-0.229,0.115-0.457,0.172-0.688,0.172
			c-0.472,0-0.872-0.188-1.207-0.566c-0.336-0.379-0.504-0.906-0.504-1.586c0-0.693,0.163-1.22,0.489-1.58
			c0.326-0.361,0.736-0.541,1.236-0.541c0.457,0,0.854,0.189,1.188,0.568v-2.033h1.081L137.596,96.344L137.596,96.344z
			 M134.708,94.209c0,0.438,0.062,0.754,0.183,0.949c0.176,0.282,0.418,0.424,0.729,0.424c0.25,0,0.463-0.106,0.639-0.318
			c0.173-0.213,0.261-0.527,0.261-0.948c0-0.472-0.084-0.81-0.255-1.017c-0.169-0.205-0.385-0.309-0.651-0.309
			c-0.255,0-0.471,0.102-0.643,0.305C134.793,93.5,134.708,93.804,134.708,94.209z"/>
		<path fill="#404040" d="M141.032,95.042l1.078,0.182c-0.139,0.396-0.357,0.697-0.656,0.902c-0.299,0.207-0.673,0.311-1.123,0.311
			c-0.711,0-1.238-0.23-1.578-0.695c-0.271-0.373-0.405-0.844-0.405-1.41c0-0.678,0.18-1.209,0.532-1.592
			c0.355-0.386,0.804-0.576,1.344-0.576c0.609,0,1.09,0.199,1.441,0.603c0.351,0.403,0.521,1.019,0.504,1.848h-2.713
			c0.01,0.32,0.096,0.57,0.264,0.748c0.166,0.181,0.376,0.269,0.623,0.269c0.171,0,0.312-0.045,0.429-0.137
			C140.885,95.396,140.973,95.247,141.032,95.042z M141.092,93.948c-0.006-0.312-0.088-0.552-0.24-0.714
			c-0.156-0.164-0.344-0.243-0.562-0.243c-0.238,0-0.434,0.084-0.588,0.258c-0.152,0.172-0.229,0.404-0.227,0.699
			C139.475,93.948,141.092,93.948,141.092,93.948z"/>
		<path fill="#404040" d="M145.017,93.556c0-0.575,0.085-1.06,0.26-1.448c0.128-0.289,0.304-0.546,0.524-0.773
			c0.223-0.229,0.467-0.397,0.729-0.508c0.353-0.15,0.757-0.224,1.218-0.224c0.83,0,1.498,0.257,1.996,0.774
			c0.5,0.515,0.75,1.232,0.75,2.15c0,0.912-0.248,1.624-0.744,2.141c-0.494,0.515-1.156,0.771-1.986,0.771
			c-0.84,0-1.508-0.256-2.004-0.769C145.266,95.161,145.017,94.454,145.017,93.556z M146.192,93.517c0,0.64,0.148,1.125,0.444,1.455
			c0.294,0.329,0.671,0.495,1.124,0.495c0.455,0,0.826-0.164,1.119-0.492c0.291-0.328,0.437-0.818,0.437-1.475
			c0-0.646-0.142-1.129-0.427-1.445c-0.282-0.319-0.658-0.479-1.129-0.479s-0.85,0.16-1.137,0.481
			C146.336,92.381,146.192,92.868,146.192,93.517z"/>
		<path fill="#404040" d="M150.902,92.254h0.603v-0.31c0-0.344,0.035-0.601,0.109-0.771c0.073-0.168,0.207-0.307,0.404-0.414
			c0.195-0.105,0.445-0.158,0.746-0.158c0.308,0,0.607,0.046,0.904,0.139l-0.146,0.754c-0.173-0.039-0.338-0.061-0.497-0.061
			c-0.155,0-0.269,0.033-0.337,0.107c-0.066,0.074-0.102,0.215-0.102,0.422v0.289h0.809v0.853h-0.809v3.237h-1.082v-3.237H150.9
			L150.902,92.254L150.902,92.254z"/>
		<path fill="#404040" d="M154.002,91.7v-1.003h1.084V91.7H154.002z M154.002,96.344v-4.09h1.084v4.09
			C155.086,96.344,154.002,96.344,154.002,96.344z"/>
		<path fill="#404040" d="M159.761,93.463l-1.067,0.193c-0.035-0.215-0.115-0.375-0.242-0.482s-0.293-0.162-0.498-0.162
			c-0.268,0-0.483,0.094-0.644,0.279c-0.161,0.188-0.241,0.498-0.241,0.936c0,0.484,0.082,0.826,0.245,1.027
			c0.161,0.199,0.382,0.301,0.656,0.301c0.204,0,0.374-0.061,0.506-0.176c0.13-0.117,0.222-0.318,0.276-0.604l1.062,0.183
			c-0.109,0.486-0.322,0.855-0.637,1.104c-0.312,0.25-0.732,0.373-1.258,0.373c-0.602,0-1.075-0.188-1.434-0.563
			c-0.355-0.377-0.533-0.901-0.533-1.568c0-0.676,0.178-1.2,0.535-1.578c0.357-0.375,0.842-0.562,1.449-0.562
			c0.498,0,0.893,0.106,1.188,0.32S159.631,93.024,159.761,93.463z"/>
		<path fill="#404040" d="M160.583,91.7v-1.003h1.082V91.7H160.583z M160.583,96.344v-4.09h1.082v4.09
			C161.665,96.344,160.583,96.344,160.583,96.344z"/>
		<path fill="#404040" d="M162.524,94.243c0-0.361,0.087-0.709,0.266-1.046c0.178-0.336,0.428-0.594,0.752-0.771
			c0.326-0.178,0.688-0.266,1.088-0.266c0.619,0,1.127,0.199,1.521,0.603c0.396,0.401,0.596,0.909,0.596,1.524
			c0,0.617-0.199,1.131-0.602,1.537c-0.398,0.407-0.9,0.609-1.507,0.609c-0.375,0-0.731-0.084-1.072-0.253s-0.599-0.417-0.776-0.746
			C162.611,95.11,162.524,94.711,162.524,94.243z M163.631,94.299c0,0.406,0.097,0.717,0.289,0.932
			c0.192,0.217,0.432,0.324,0.711,0.324c0.283,0,0.521-0.108,0.713-0.324c0.191-0.215,0.287-0.527,0.287-0.939
			c0-0.399-0.096-0.709-0.287-0.924c-0.191-0.216-0.43-0.324-0.713-0.324c-0.279,0-0.519,0.108-0.711,0.324
			C163.728,93.583,163.631,93.893,163.631,94.299z"/>
		<path fill="#404040" d="M169.774,96.344v-5.646h1.707l1.023,3.852l1.015-3.852h1.71v5.646h-1.059V91.9l-1.121,4.442h-1.1
			l-1.115-4.442v4.442h-1.061v0.002H169.774z"/>
		<path fill="#404040" d="M178.723,95.042l1.076,0.182c-0.137,0.396-0.355,0.697-0.655,0.902c-0.299,0.207-0.674,0.311-1.122,0.311
			c-0.711,0-1.238-0.23-1.579-0.695c-0.271-0.373-0.405-0.844-0.405-1.41c0-0.678,0.178-1.209,0.532-1.592
			c0.354-0.386,0.802-0.576,1.345-0.576c0.607,0,1.088,0.199,1.438,0.603c0.354,0.401,0.521,1.019,0.505,1.848h-2.711
			c0.01,0.32,0.096,0.57,0.262,0.748c0.168,0.181,0.375,0.269,0.625,0.269c0.17,0,0.312-0.045,0.428-0.137
			C178.577,95.396,178.665,95.247,178.723,95.042z M178.784,93.948c-0.008-0.312-0.089-0.552-0.24-0.714
			c-0.154-0.164-0.344-0.243-0.563-0.243c-0.237,0-0.433,0.084-0.586,0.258c-0.153,0.172-0.229,0.404-0.228,0.699
			C177.167,93.948,178.784,93.948,178.784,93.948z"/>
		<path fill="#404040" d="M180.221,96.344l1.474-2.106l-1.411-1.983h1.318l0.727,1.125l0.762-1.125h1.271l-1.387,1.938l1.514,2.152
			h-1.327l-0.832-1.269l-0.838,1.269L180.221,96.344L180.221,96.344z"/>
		<path fill="#404040" d="M185.125,91.7v-1.003h1.084V91.7H185.125z M185.125,96.344v-4.09h1.084v4.09
			C186.209,96.344,185.125,96.344,185.125,96.344z"/>
		<path fill="#404040" d="M189.991,97.9v-2.058c-0.142,0.183-0.314,0.326-0.525,0.435c-0.213,0.106-0.438,0.158-0.684,0.158
			c-0.465,0-0.847-0.175-1.146-0.522c-0.354-0.408-0.533-0.961-0.533-1.658c0-0.658,0.168-1.172,0.499-1.539
			c0.334-0.37,0.745-0.553,1.238-0.553c0.273,0,0.508,0.058,0.707,0.172c0.199,0.115,0.375,0.291,0.529,0.523v-0.604h0.996V97.9
			H189.991z M190.027,94.249c0-0.418-0.087-0.729-0.256-0.934c-0.172-0.206-0.386-0.307-0.642-0.307
			c-0.264,0-0.482,0.104-0.656,0.312c-0.178,0.208-0.266,0.539-0.266,0.989c0,0.449,0.084,0.773,0.254,0.973
			c0.172,0.2,0.379,0.301,0.627,0.301c0.252,0,0.469-0.112,0.656-0.338C189.932,95.023,190.027,94.69,190.027,94.249z"/>
		<path fill="#404040" d="M194.829,96.344V95.73c-0.147,0.22-0.344,0.392-0.586,0.519c-0.244,0.125-0.5,0.188-0.77,0.188
			c-0.275,0-0.521-0.059-0.74-0.182c-0.217-0.119-0.377-0.287-0.473-0.508c-0.098-0.218-0.146-0.521-0.146-0.904v-2.588h1.082v1.879
			c0,0.574,0.02,0.928,0.061,1.059c0.039,0.128,0.111,0.23,0.218,0.309c0.106,0.076,0.239,0.113,0.399,0.113
			c0.187,0,0.351-0.052,0.498-0.154c0.146-0.101,0.246-0.227,0.301-0.375c0.053-0.149,0.078-0.52,0.078-1.104v-1.727h1.086v4.09
			L194.829,96.344L194.829,96.344z"/>
		<path fill="#404040" d="M199.323,95.042l1.079,0.182c-0.138,0.396-0.356,0.697-0.655,0.902c-0.302,0.207-0.674,0.311-1.123,0.311
			c-0.713,0-1.238-0.23-1.58-0.695c-0.271-0.373-0.402-0.844-0.402-1.41c0-0.678,0.176-1.209,0.531-1.592
			c0.354-0.386,0.802-0.576,1.343-0.576c0.608,0,1.09,0.199,1.44,0.603c0.352,0.403,0.521,1.019,0.504,1.848h-2.711
			c0.008,0.32,0.097,0.57,0.263,0.748c0.167,0.181,0.375,0.269,0.624,0.269c0.171,0,0.312-0.045,0.428-0.137
			C199.178,95.396,199.265,95.247,199.323,95.042z M199.385,93.948c-0.008-0.312-0.09-0.552-0.243-0.714
			c-0.154-0.164-0.341-0.243-0.562-0.243c-0.235,0-0.432,0.084-0.586,0.258c-0.154,0.172-0.229,0.404-0.227,0.699
			C197.767,93.948,199.385,93.948,199.385,93.948z"/>
		<path fill="#404040" d="M205.063,96.344h-1.082v-2.086c0-0.443-0.023-0.729-0.068-0.857c-0.049-0.131-0.123-0.23-0.228-0.303
			c-0.104-0.073-0.229-0.107-0.376-0.107c-0.186,0-0.354,0.051-0.504,0.152c-0.148,0.105-0.25,0.24-0.307,0.408
			c-0.057,0.17-0.082,0.482-0.082,0.939v1.854h-1.082v-4.09h1.006v0.6c0.355-0.462,0.807-0.691,1.346-0.691
			c0.24,0,0.459,0.043,0.656,0.129s0.347,0.195,0.447,0.33c0.102,0.133,0.174,0.283,0.213,0.453s0.061,0.412,0.061,0.729V96.344
			L205.063,96.344z"/>
		<path fill="#404040" d="M205.779,95.178l1.087-0.166c0.045,0.21,0.139,0.369,0.279,0.479c0.143,0.11,0.34,0.164,0.594,0.164
			c0.281,0,0.491-0.051,0.633-0.152c0.094-0.073,0.142-0.17,0.142-0.291c0-0.082-0.025-0.149-0.076-0.203
			c-0.056-0.051-0.176-0.1-0.362-0.143c-0.871-0.193-1.427-0.369-1.66-0.527c-0.322-0.221-0.483-0.527-0.483-0.92
			c0-0.354,0.14-0.653,0.419-0.895c0.281-0.24,0.714-0.361,1.303-0.361c0.559,0,0.977,0.09,1.248,0.273
			c0.271,0.182,0.459,0.451,0.562,0.809l-1.021,0.188c-0.043-0.158-0.127-0.28-0.248-0.365c-0.121-0.086-0.296-0.127-0.521-0.127
			c-0.284,0-0.487,0.039-0.612,0.119c-0.082,0.058-0.123,0.131-0.123,0.22c0,0.077,0.035,0.143,0.106,0.196
			c0.1,0.071,0.437,0.172,1.012,0.304c0.576,0.131,0.98,0.293,1.209,0.481c0.225,0.192,0.337,0.461,0.337,0.807
			c0,0.375-0.156,0.696-0.47,0.966c-0.313,0.271-0.775,0.403-1.391,0.403c-0.557,0-0.998-0.11-1.322-0.338
			C206.09,95.872,205.877,95.564,205.779,95.178z"/>
		<path fill="#404040" d="M212.917,95.042l1.078,0.182c-0.14,0.396-0.358,0.697-0.656,0.902c-0.301,0.207-0.674,0.311-1.123,0.311
			c-0.711,0-1.238-0.23-1.579-0.695c-0.271-0.373-0.404-0.844-0.404-1.41c0-0.678,0.179-1.209,0.531-1.592
			c0.354-0.386,0.801-0.576,1.344-0.576c0.608,0,1.089,0.199,1.44,0.603c0.353,0.401,0.521,1.019,0.504,1.848h-2.711
			c0.009,0.32,0.096,0.57,0.263,0.748c0.166,0.181,0.375,0.269,0.623,0.269c0.17,0,0.312-0.045,0.428-0.137
			C212.769,95.396,212.856,95.247,212.917,95.042z M212.975,93.948c-0.005-0.312-0.086-0.552-0.24-0.714
			c-0.154-0.164-0.341-0.243-0.562-0.243c-0.236,0-0.432,0.084-0.584,0.258c-0.154,0.172-0.23,0.404-0.229,0.699
			C211.36,93.948,212.975,93.948,212.975,93.948z"/>
	</g>
	<path fill="#67C19D" d="M40.604,24.396c0,4.069-3.299,7.368-7.369,7.368c-4.066,0-7.365-3.298-7.365-7.368
		c0-4.069,3.299-7.366,7.365-7.366C37.305,17.03,40.604,20.327,40.604,24.396z"/>
	
		<radialGradient id="SVGID_7_" cx="-212.4944" cy="650.1748" r="4.301" gradientTransform="matrix(1.1084 0 0 1.1085 270.0755 -699.8179)" gradientUnits="userSpaceOnUse">
		<stop  offset="0" style="stop-color:#FFFFFF"/>
		<stop  offset="0.75" style="stop-color:#FFFFFF;stop-opacity:0"/>
	</radialGradient>
	<circle fill="url(#SVGID_7_)" cx="33.238" cy="24.397" r="6.549"/>
	
		<linearGradient id="SVGID_8_" gradientUnits="userSpaceOnUse" x1="-134.763" y1="704.487" x2="-134.763" y2="691.391" gradientTransform="matrix(1 0 0 1 168 -673.542)">
		<stop  offset="0" style="stop-color:#FFFFFF"/>
		<stop  offset="0.1447" style="stop-color:#FFFFFF;stop-opacity:0.8553"/>
		<stop  offset="1" style="stop-color:#FFFFFF;stop-opacity:0"/>
	</linearGradient>
	<circle fill="url(#SVGID_8_)" cx="33.237" cy="24.397" r="6.548"/>
	<path fill="#67C19D" d="M30.026,35.542h10.199v50.626H30.026V35.542z"/>
	<g>
		<g>
			
				<linearGradient id="SVGID_9_" gradientUnits="userSpaceOnUse" x1="-132.8745" y1="758.955" x2="-132.8745" y2="709.839" gradientTransform="matrix(1 0 0 1 168 -673.542)">
				<stop  offset="0" style="stop-color:#FFFFFF"/>
				<stop  offset="0.1455" style="stop-color:#FFFFFF;stop-opacity:0.8545"/>
				<stop  offset="1" style="stop-color:#FFFFFF;stop-opacity:0"/>
			</linearGradient>
			<path fill="url(#SVGID_9_)" d="M30.78,85.413V36.297h8.691v49.116H30.78z"/>
		</g>
	</g>
	<path fill="#A6A6A6" d="M106.733,59.567h8.727v3.883c1.365-1.619,2.744-2.771,4.136-3.457c1.391-0.685,3.066-1.026,5.033-1.026
		c2.115,0,3.789,0.375,5.021,1.127c1.232,0.75,2.24,1.87,3.023,3.356c1.596-1.736,3.05-2.918,4.359-3.545
		c1.311-0.626,2.932-0.938,4.859-0.938c2.84,0,5.059,0.848,6.652,2.542c1.594,1.697,2.391,4.346,2.391,7.953v16.707h-9.423
		c0,0,0-15.151,0-15.153c0-2.177-1.793-4.058-3.988-4.058c-1.192,0-2.155,0.434-2.885,1.303c-0.729,0.867-1.472,2.262-1.472,4.182
		V86.17h-9.426V71.516c0-2.174-1.027-4.609-3.582-4.609c-1.168,0-2.129,0.443-2.88,1.328c-0.75,0.887-1.125,2.338-1.125,4.357
		v13.576h-9.425V59.567H106.733z"/>
	<path fill="#A6A6A6" d="M181.674,58.967h12.371l4.315,7.581l5.035-7.581h11.5l-9.278,12.959l9.944,14.242h-12.166l-5.035-8.76
		l-5.901,8.76h-11.297l9.879-14.242L181.674,58.967z"/>
	<path fill="#67C19D" d="M68.789,62.963c-2.618-2.664-5.761-3.997-9.427-3.997c-2.315,0-4.411,0.463-6.291,1.381V58.94h-7.556
		v37.404h7.556V84.779c1.831,0.923,3.849,1.39,6.059,1.39c3.75,0,6.954-1.326,9.608-3.981c2.652-2.655,3.981-5.871,3.981-9.646
		C72.719,68.82,71.408,65.629,68.789,62.963z M59.117,78.612c-3.339,0-6.046-2.705-6.046-6.046c0-3.338,2.707-6.044,6.046-6.044
		c3.337,0,6.044,2.706,6.044,6.044C65.161,75.907,62.455,78.612,59.117,78.612z"/>
	<path fill="#67C19D" d="M99.392,62.963c-2.618-2.664-5.759-3.997-9.425-3.997c-3.908,0-7.193,1.307-9.854,3.917
		c-2.661,2.613-3.994,5.832-3.994,9.658c0,3.756,1.333,6.967,3.994,9.631c2.661,2.666,5.868,3.996,9.621,3.996
		c3.751,0,6.953-1.326,9.606-3.981c2.653-2.655,3.981-5.871,3.981-9.646C103.32,68.82,102.011,65.629,99.392,62.963z M89.72,78.612
		c-3.339,0-6.045-2.705-6.045-6.046c0-3.338,2.706-6.044,6.045-6.044s6.044,2.706,6.044,6.044
		C95.764,75.907,93.059,78.612,89.72,78.612z"/>
	<path fill="#A6A6A6" d="M181.133,69.167c-0.568-2.314-1.744-4.383-3.535-6.203c-2.618-2.664-5.76-3.997-9.426-3.997
		c-3.906,0-7.191,1.307-9.854,3.917c-0.159,0.158-0.317,0.32-0.469,0.482c-0.614,0.659-1.146,1.356-1.603,2.092
		c-0.287,0.459-0.537,0.937-0.758,1.426c-0.332,0.729-0.594,1.49-0.783,2.283c-0.017,0.068-0.029,0.137-0.043,0.205
		c-0.225,1.008-0.34,2.062-0.34,3.17c0,1.197,0.139,2.34,0.408,3.426c0.578,2.322,1.771,4.391,3.586,6.205
		c2.662,2.666,5.867,3.996,9.62,3.996s6.954-1.326,9.608-3.981c0.143-0.146,0.281-0.291,0.416-0.437l-6.267-3.33
		c-1.088,0.701-2.381,1.113-3.771,1.113c-2.612,0-4.887-1.438-6.078-3.566h19.275c0.019-0.07,0.032-0.141,0.051-0.213
		c0.231-1.021,0.354-2.092,0.354-3.213C181.528,71.363,181.396,70.238,181.133,69.167z M161.483,69.922
		c1.041-2.535,3.532-4.321,6.443-4.321c2.912,0,5.402,1.786,6.445,4.321H161.483z"/>
	<polygon fill="#B3E0CE" points="30.026,86.168 26.249,84.006 26.249,40.604 30.026,35.542 	"/>
</g>
</svg>
