<?xml version="1.0" encoding="utf-8"?>
<!-- Generator: Adobe Illustrator 17.0.0, SVG Export Plug-In . SVG Version: 6.00 Build 0)  -->
<!DOCTYPE svg PUBLIC "-//W3C//DTD SVG 1.1//EN" "http://www.w3.org/Graphics/SVG/1.1/DTD/svg11.dtd">
<svg version="1.1" id="Capa_1" xmlns="http://www.w3.org/2000/svg" xmlns:xlink="http://www.w3.org/1999/xlink" x="0px" y="0px"
	 width="100px" height="100px" viewBox="0 0 100 100" enable-background="new 0 0 100 100" xml:space="preserve">
<g>
	<g opacity="0.3">
		<path fill="#7F7F7F" d="M13.96,30.037h1.043v7.208h3.454v0.875H13.96V30.037z"/>
		<path fill="#7F7F7F" d="M20.007,35.41c0.024,1.427,0.935,2.015,1.991,2.015c0.755,0,1.211-0.132,1.607-0.3l0.18,0.756
			c-0.372,0.168-1.007,0.36-1.931,0.36c-1.787,0-2.854-1.175-2.854-2.927c0-1.751,1.032-3.13,2.723-3.13
			c1.895,0,2.399,1.667,2.399,2.734c0,0.216-0.024,0.384-0.036,0.492H20.007z M23.102,34.654c0.012-0.671-0.276-1.715-1.463-1.715
			c-1.067,0-1.535,0.983-1.619,1.715H23.102z"/>
		<path fill="#7F7F7F" d="M25.815,32.315l1.271,3.43c0.132,0.384,0.276,0.839,0.372,1.187h0.024
			c0.108-0.348,0.228-0.792,0.372-1.211l1.151-3.406h1.115l-1.583,4.138c-0.756,1.991-1.271,3.01-1.991,3.634
			c-0.516,0.456-1.031,0.636-1.295,0.684l-0.264-0.887c0.264-0.084,0.612-0.252,0.924-0.516c0.288-0.228,0.647-0.636,0.887-1.176
			c0.048-0.108,0.084-0.192,0.084-0.251c0-0.06-0.024-0.144-0.072-0.276l-2.147-5.349H25.815z"/>
		<path fill="#7F7F7F" d="M39.815,37.76c-0.468,0.168-1.391,0.444-2.482,0.444c-1.224,0-2.231-0.312-3.022-1.067
			c-0.695-0.672-1.127-1.751-1.127-3.01c0.012-2.411,1.667-4.174,4.378-4.174c0.935,0,1.667,0.204,2.015,0.372l-0.252,0.852
			c-0.432-0.192-0.971-0.348-1.787-0.348c-1.967,0-3.25,1.223-3.25,3.25c0,2.051,1.235,3.262,3.118,3.262
			c0.684,0,1.151-0.096,1.391-0.216v-2.411h-1.643v-0.839h2.663V37.76z"/>
		<path fill="#7F7F7F" d="M42.027,35.41c0.024,1.427,0.935,2.015,1.991,2.015c0.755,0,1.211-0.132,1.607-0.3l0.18,0.756
			c-0.372,0.168-1.007,0.36-1.931,0.36c-1.787,0-2.854-1.175-2.854-2.927c0-1.751,1.032-3.13,2.723-3.13
			c1.895,0,2.399,1.667,2.399,2.734c0,0.216-0.024,0.384-0.036,0.492H42.027z M45.121,34.654c0.012-0.671-0.276-1.715-1.463-1.715
			c-1.067,0-1.535,0.983-1.619,1.715H45.121z"/>
		<path fill="#7F7F7F" d="M47.451,33.886c0-0.6-0.012-1.091-0.048-1.571h0.936l0.06,0.959h0.024
			c0.288-0.552,0.959-1.091,1.919-1.091c0.803,0,2.05,0.479,2.05,2.47v3.466h-1.055v-3.346c0-0.936-0.348-1.715-1.344-1.715
			c-0.695,0-1.235,0.492-1.415,1.079c-0.048,0.132-0.072,0.312-0.072,0.492v3.49h-1.056V33.886z"/>
		<path fill="#7F7F7F" d="M54.697,35.41c0.024,1.427,0.936,2.015,1.991,2.015c0.756,0,1.211-0.132,1.607-0.3l0.18,0.756
			c-0.372,0.168-1.008,0.36-1.931,0.36c-1.787,0-2.854-1.175-2.854-2.927c0-1.751,1.031-3.13,2.723-3.13
			c1.895,0,2.398,1.667,2.398,2.734c0,0.216-0.024,0.384-0.036,0.492H54.697z M57.792,34.654c0.012-0.671-0.276-1.715-1.463-1.715
			c-1.067,0-1.535,0.983-1.619,1.715H57.792z"/>
		<path fill="#7F7F7F" d="M60.122,34.126c0-0.684-0.013-1.271-0.049-1.811h0.924l0.036,1.139h0.048
			c0.264-0.779,0.899-1.271,1.607-1.271c0.12,0,0.203,0.012,0.3,0.036v0.996c-0.108-0.024-0.216-0.036-0.36-0.036
			c-0.743,0-1.271,0.564-1.415,1.355c-0.023,0.144-0.048,0.312-0.048,0.492v3.094h-1.043V34.126z"/>
		<path fill="#7F7F7F" d="M67.2,38.12l-0.084-0.731H67.08c-0.323,0.456-0.947,0.863-1.775,0.863c-1.175,0-1.774-0.828-1.774-1.667
			c0-1.403,1.247-2.171,3.49-2.159v-0.12c0-0.479-0.132-1.343-1.319-1.343c-0.54,0-1.104,0.168-1.512,0.432l-0.239-0.695
			c0.479-0.312,1.175-0.516,1.906-0.516c1.775,0,2.207,1.211,2.207,2.375v2.171c0,0.503,0.024,0.995,0.096,1.391H67.2z
			 M67.044,35.158c-1.151-0.024-2.458,0.18-2.458,1.307c0,0.684,0.455,1.008,0.995,1.008c0.756,0,1.235-0.48,1.403-0.972
			c0.036-0.108,0.06-0.228,0.06-0.336V35.158z"/>
		<path fill="#7F7F7F" d="M69.771,29.605h1.055v8.515h-1.055V29.605z"/>
		<path fill="#7F7F7F" d="M80.159,29.605v7.016c0,0.516,0.012,1.103,0.048,1.499H79.26l-0.048-1.007h-0.024
			c-0.323,0.647-1.031,1.139-1.979,1.139c-1.403,0-2.482-1.187-2.482-2.95c-0.013-1.931,1.188-3.118,2.603-3.118
			c0.888,0,1.487,0.419,1.751,0.887h0.023v-3.466H80.159z M79.104,34.678c0-0.132-0.012-0.312-0.048-0.444
			c-0.155-0.672-0.731-1.224-1.523-1.224c-1.091,0-1.738,0.959-1.738,2.243c0,1.175,0.575,2.146,1.715,2.146
			c0.708,0,1.355-0.468,1.547-1.259c0.036-0.144,0.048-0.288,0.048-0.456V34.678z"/>
		<path fill="#7F7F7F" d="M82.501,35.41c0.024,1.427,0.936,2.015,1.991,2.015c0.756,0,1.211-0.132,1.607-0.3l0.18,0.756
			c-0.372,0.168-1.008,0.36-1.931,0.36c-1.787,0-2.854-1.175-2.854-2.927c0-1.751,1.031-3.13,2.723-3.13
			c1.895,0,2.398,1.667,2.398,2.734c0,0.216-0.024,0.384-0.036,0.492H82.501z M85.596,34.654c0.012-0.671-0.276-1.715-1.463-1.715
			c-1.067,0-1.535,0.983-1.619,1.715H85.596z"/>
		<path fill="#7F7F7F" d="M24.421,52.256c-0.384,0.192-1.151,0.384-2.135,0.384c-2.279,0-3.994-1.439-3.994-4.089
			c0-2.531,1.715-4.246,4.222-4.246c1.008,0,1.643,0.216,1.919,0.36l-0.252,0.852c-0.396-0.192-0.959-0.336-1.631-0.336
			c-1.895,0-3.154,1.211-3.154,3.334c0,1.979,1.139,3.25,3.106,3.25c0.636,0,1.283-0.133,1.703-0.336L24.421,52.256z"/>
		<path fill="#7F7F7F" d="M30.817,49.57c0,2.146-1.487,3.082-2.89,3.082c-1.571,0-2.783-1.151-2.783-2.986
			c0-1.943,1.271-3.082,2.878-3.082C29.69,46.583,30.817,47.794,30.817,49.57z M26.211,49.629c0,1.271,0.732,2.231,1.763,2.231
			c1.007,0,1.763-0.947,1.763-2.255c0-0.983-0.492-2.23-1.739-2.23C26.751,47.375,26.211,48.526,26.211,49.629z"/>
		<path fill="#7F7F7F" d="M32.152,48.286c0-0.6-0.012-1.091-0.048-1.571h0.936l0.06,0.959h0.024
			c0.288-0.552,0.959-1.091,1.919-1.091c0.803,0,2.051,0.479,2.051,2.47v3.466h-1.056v-3.346c0-0.936-0.348-1.715-1.343-1.715
			c-0.695,0-1.235,0.492-1.415,1.079c-0.048,0.132-0.072,0.312-0.072,0.492v3.49h-1.056V48.286z"/>
		<path fill="#7F7F7F" d="M40.036,45.048v1.667h1.511v0.803h-1.511v3.13c0,0.72,0.204,1.128,0.792,1.128
			c0.276,0,0.479-0.036,0.611-0.072l0.048,0.792c-0.204,0.084-0.528,0.144-0.936,0.144c-0.492,0-0.888-0.156-1.14-0.443
			c-0.3-0.313-0.408-0.828-0.408-1.512v-3.166h-0.899v-0.803h0.899v-1.392L40.036,45.048z"/>
		<path fill="#7F7F7F" d="M45.95,52.52l-0.084-0.731H45.83c-0.324,0.456-0.947,0.863-1.775,0.863c-1.175,0-1.775-0.827-1.775-1.667
			c0-1.403,1.247-2.17,3.49-2.158v-0.12c0-0.479-0.132-1.343-1.319-1.343c-0.54,0-1.104,0.168-1.511,0.432l-0.24-0.695
			c0.48-0.312,1.175-0.516,1.907-0.516c1.775,0,2.207,1.211,2.207,2.375v2.171c0,0.503,0.024,0.995,0.096,1.391H45.95z
			 M45.794,49.558c-1.151-0.024-2.458,0.18-2.458,1.307c0,0.684,0.456,1.008,0.996,1.008c0.755,0,1.235-0.479,1.403-0.972
			c0.036-0.107,0.06-0.228,0.06-0.336V49.558z"/>
		<path fill="#7F7F7F" d="M48.472,52.52c0.024-0.396,0.048-0.983,0.048-1.499v-7.016h1.043v3.646h0.024
			c0.372-0.648,1.043-1.067,1.979-1.067c1.439,0,2.459,1.199,2.446,2.962c0,2.075-1.307,3.106-2.603,3.106
			c-0.839,0-1.511-0.323-1.942-1.091h-0.036l-0.048,0.959H48.472z M49.563,50.193c0,0.132,0.024,0.264,0.048,0.384
			c0.204,0.731,0.815,1.235,1.583,1.235c1.104,0,1.764-0.899,1.764-2.231c0-1.163-0.6-2.159-1.728-2.159
			c-0.72,0-1.391,0.492-1.607,1.295c-0.024,0.12-0.06,0.264-0.06,0.432V50.193z"/>
		<path fill="#7F7F7F" d="M56.523,45.084c0.012,0.36-0.252,0.648-0.672,0.648c-0.371,0-0.636-0.288-0.636-0.648
			c0-0.372,0.276-0.66,0.66-0.66C56.271,44.424,56.523,44.712,56.523,45.084z M55.349,52.52v-5.804h1.055v5.804H55.349z"/>
		<path fill="#7F7F7F" d="M58.156,44.005h1.055v8.515h-1.055V44.005z"/>
		<path fill="#7F7F7F" d="M62.163,45.084c0.012,0.36-0.252,0.648-0.672,0.648c-0.371,0-0.636-0.288-0.636-0.648
			c0-0.372,0.276-0.66,0.66-0.66C61.911,44.424,62.163,44.712,62.163,45.084z M60.988,52.52v-5.804h1.055v5.804H60.988z"/>
		<path fill="#7F7F7F" d="M68.809,44.005v7.016c0,0.516,0.012,1.104,0.048,1.499h-0.947l-0.048-1.007h-0.024
			c-0.323,0.647-1.031,1.139-1.979,1.139c-1.403,0-2.482-1.188-2.482-2.95c-0.013-1.931,1.188-3.118,2.603-3.118
			c0.888,0,1.487,0.419,1.751,0.887h0.023v-3.466H68.809z M67.753,49.078c0-0.132-0.012-0.312-0.048-0.444
			c-0.155-0.672-0.731-1.224-1.522-1.224c-1.092,0-1.739,0.959-1.739,2.243c0,1.175,0.575,2.146,1.715,2.146
			c0.708,0,1.355-0.468,1.547-1.259c0.036-0.144,0.048-0.288,0.048-0.456V49.078z"/>
		<path fill="#7F7F7F" d="M73.777,52.52l-0.084-0.731h-0.036c-0.324,0.456-0.947,0.863-1.775,0.863
			c-1.175,0-1.774-0.827-1.774-1.667c0-1.403,1.247-2.17,3.49-2.158v-0.12c0-0.479-0.132-1.343-1.319-1.343
			c-0.54,0-1.104,0.168-1.512,0.432l-0.239-0.695c0.479-0.312,1.175-0.516,1.906-0.516c1.775,0,2.207,1.211,2.207,2.375v2.171
			c0,0.503,0.024,0.995,0.096,1.391H73.777z M73.621,49.558c-1.151-0.024-2.458,0.18-2.458,1.307c0,0.684,0.455,1.008,0.995,1.008
			c0.756,0,1.235-0.479,1.403-0.972c0.036-0.107,0.06-0.228,0.06-0.336V49.558z"/>
		<path fill="#7F7F7F" d="M81.36,44.005v7.016c0,0.516,0.012,1.104,0.048,1.499h-0.947l-0.048-1.007h-0.024
			c-0.323,0.647-1.031,1.139-1.979,1.139c-1.403,0-2.482-1.188-2.482-2.95c-0.013-1.931,1.188-3.118,2.603-3.118
			c0.888,0,1.487,0.419,1.751,0.887h0.023v-3.466H81.36z M80.305,49.078c0-0.132-0.012-0.312-0.048-0.444
			c-0.155-0.672-0.731-1.224-1.523-1.224c-1.091,0-1.738,0.959-1.738,2.243c0,1.175,0.575,2.146,1.715,2.146
			c0.708,0,1.355-0.468,1.547-1.259c0.036-0.144,0.048-0.288,0.048-0.456V49.078z"/>
		<path fill="#7F7F7F" d="M17.694,66.56c-0.468,0.168-1.391,0.444-2.482,0.444c-1.224,0-2.231-0.313-3.022-1.067
			c-0.695-0.672-1.127-1.751-1.127-3.011c0.012-2.41,1.667-4.174,4.378-4.174c0.935,0,1.667,0.204,2.015,0.372l-0.252,0.852
			c-0.432-0.192-0.971-0.348-1.787-0.348c-1.967,0-3.25,1.223-3.25,3.25c0,2.051,1.235,3.262,3.118,3.262
			c0.684,0,1.151-0.096,1.391-0.216v-2.41h-1.643v-0.84h2.663V66.56z"/>
		<path fill="#7F7F7F" d="M24.115,65.337c0,0.6,0.012,1.127,0.048,1.583h-0.936l-0.06-0.947h-0.024
			c-0.276,0.467-0.887,1.079-1.919,1.079c-0.911,0-2.003-0.504-2.003-2.543v-3.394h1.056v3.214c0,1.104,0.336,1.847,1.295,1.847
			c0.708,0,1.199-0.491,1.391-0.959c0.06-0.156,0.096-0.348,0.096-0.54v-3.562h1.056V65.337z"/>
		<path fill="#7F7F7F" d="M25.822,66.92c0.024-0.396,0.048-0.983,0.048-1.499v-7.017h1.043v3.646h0.024
			c0.372-0.648,1.043-1.067,1.979-1.067c1.439,0,2.458,1.199,2.447,2.962c0,2.075-1.308,3.106-2.603,3.106
			c-0.84,0-1.511-0.324-1.943-1.092h-0.036l-0.048,0.96H25.822z M26.913,64.593c0,0.132,0.024,0.264,0.048,0.384
			c0.204,0.731,0.815,1.235,1.583,1.235c1.104,0,1.763-0.899,1.763-2.23c0-1.163-0.6-2.159-1.727-2.159
			c-0.72,0-1.391,0.492-1.607,1.296c-0.024,0.119-0.06,0.264-0.06,0.432V64.593z"/>
		<path fill="#7F7F7F" d="M33.285,64.209c0.024,1.428,0.936,2.015,1.991,2.015c0.755,0,1.211-0.132,1.607-0.3l0.18,0.756
			c-0.372,0.168-1.007,0.36-1.931,0.36c-1.787,0-2.854-1.176-2.854-2.927s1.032-3.13,2.723-3.13c1.895,0,2.399,1.667,2.399,2.734
			c0,0.216-0.024,0.384-0.036,0.491H33.285z M36.379,63.453c0.012-0.671-0.276-1.715-1.463-1.715c-1.067,0-1.535,0.983-1.619,1.715
			H36.379z"/>
		<path fill="#7F7F7F" d="M38.709,62.926c0-0.684-0.012-1.271-0.048-1.811h0.923l0.036,1.139h0.048
			c0.264-0.779,0.899-1.271,1.607-1.271c0.12,0,0.204,0.012,0.3,0.035v0.996c-0.108-0.024-0.216-0.036-0.359-0.036
			c-0.744,0-1.271,0.563-1.416,1.355c-0.024,0.144-0.048,0.312-0.048,0.491v3.095h-1.043V62.926z"/>
		<path fill="#7F7F7F" d="M42.681,62.686c0-0.6-0.012-1.091-0.048-1.57h0.936l0.06,0.959h0.024c0.288-0.552,0.959-1.091,1.919-1.091
			c0.803,0,2.051,0.479,2.051,2.47v3.467h-1.056v-3.347c0-0.936-0.348-1.715-1.343-1.715c-0.695,0-1.235,0.492-1.415,1.079
			c-0.048,0.132-0.072,0.313-0.072,0.492v3.49h-1.056V62.686z"/>
		<path fill="#7F7F7F" d="M52.555,66.92l-0.084-0.731h-0.036c-0.324,0.455-0.947,0.863-1.774,0.863
			c-1.176,0-1.775-0.828-1.775-1.667c0-1.403,1.247-2.171,3.49-2.159v-0.12c0-0.479-0.132-1.343-1.319-1.343
			c-0.54,0-1.104,0.168-1.511,0.432l-0.24-0.695c0.48-0.313,1.175-0.516,1.907-0.516c1.775,0,2.207,1.211,2.207,2.374v2.171
			c0,0.504,0.024,0.995,0.096,1.392H52.555z M52.398,63.957c-1.151-0.023-2.458,0.18-2.458,1.308c0,0.684,0.456,1.008,0.996,1.008
			c0.756,0,1.235-0.48,1.403-0.972c0.036-0.108,0.06-0.229,0.06-0.336V63.957z"/>
		<path fill="#7F7F7F" d="M55.125,62.686c0-0.6-0.013-1.091-0.049-1.57H56l0.048,0.936h0.036c0.324-0.552,0.863-1.067,1.823-1.067
			c0.791,0,1.391,0.479,1.643,1.163h0.024c0.18-0.324,0.407-0.576,0.647-0.756c0.348-0.264,0.731-0.407,1.283-0.407
			c0.768,0,1.907,0.503,1.907,2.519v3.418h-1.031v-3.286c0-1.115-0.408-1.787-1.26-1.787c-0.6,0-1.067,0.443-1.247,0.959
			c-0.048,0.145-0.084,0.336-0.084,0.528v3.586h-1.031v-3.479c0-0.923-0.408-1.595-1.212-1.595c-0.659,0-1.139,0.527-1.307,1.056
			c-0.061,0.155-0.084,0.335-0.084,0.516v3.502h-1.031V62.686z"/>
		<path fill="#7F7F7F" d="M65.72,64.209c0.024,1.428,0.936,2.015,1.991,2.015c0.756,0,1.211-0.132,1.607-0.3l0.18,0.756
			c-0.372,0.168-1.008,0.36-1.931,0.36c-1.787,0-2.854-1.176-2.854-2.927s1.031-3.13,2.723-3.13c1.895,0,2.398,1.667,2.398,2.734
			c0,0.216-0.024,0.384-0.036,0.491H65.72z M68.814,63.453c0.012-0.671-0.276-1.715-1.463-1.715c-1.067,0-1.535,0.983-1.619,1.715
			H68.814z"/>
		<path fill="#7F7F7F" d="M71.145,62.686c0-0.6-0.013-1.091-0.049-1.57h0.936l0.061,0.959h0.023c0.288-0.552,0.96-1.091,1.919-1.091
			c0.804,0,2.051,0.479,2.051,2.47v3.467H75.03v-3.347c0-0.936-0.348-1.715-1.344-1.715c-0.695,0-1.235,0.492-1.415,1.079
			c-0.048,0.132-0.072,0.313-0.072,0.492v3.49h-1.055V62.686z"/>
		<path fill="#7F7F7F" d="M79.027,59.448v1.667h1.512v0.803h-1.512v3.131c0,0.72,0.204,1.127,0.792,1.127
			c0.275,0,0.479-0.036,0.611-0.071l0.048,0.791c-0.203,0.084-0.527,0.145-0.936,0.145c-0.491,0-0.887-0.156-1.139-0.444
			c-0.3-0.312-0.408-0.827-0.408-1.511v-3.167h-0.899v-0.803h0.899v-1.392L79.027,59.448z"/>
		<path fill="#7F7F7F" d="M84.942,66.92l-0.084-0.731h-0.036c-0.323,0.455-0.947,0.863-1.775,0.863
			c-1.175,0-1.774-0.828-1.774-1.667c0-1.403,1.247-2.171,3.49-2.159v-0.12c0-0.479-0.132-1.343-1.319-1.343
			c-0.54,0-1.104,0.168-1.512,0.432l-0.239-0.695c0.479-0.313,1.175-0.516,1.906-0.516c1.775,0,2.207,1.211,2.207,2.374v2.171
			c0,0.504,0.024,0.995,0.096,1.392H84.942z M84.786,63.957c-1.151-0.023-2.458,0.18-2.458,1.308c0,0.684,0.455,1.008,0.995,1.008
			c0.756,0,1.235-0.48,1.403-0.972c0.036-0.108,0.06-0.229,0.06-0.336V63.957z"/>
		<path fill="#7F7F7F" d="M87.513,58.404h1.055v8.516h-1.055V58.404z"/>
	</g>
	<g>
		<path fill="#7F7F7F" d="M13.86,29.836h1.043v7.208h3.454v0.875H13.86V29.836z"/>
		<path fill="#7F7F7F" d="M19.908,35.209c0.024,1.427,0.935,2.015,1.991,2.015c0.755,0,1.211-0.132,1.607-0.3l0.18,0.756
			c-0.372,0.168-1.007,0.36-1.931,0.36c-1.787,0-2.854-1.175-2.854-2.927c0-1.751,1.032-3.13,2.723-3.13
			c1.895,0,2.399,1.667,2.399,2.734c0,0.216-0.024,0.384-0.036,0.492H19.908z M23.002,34.454c0.012-0.671-0.276-1.715-1.463-1.715
			c-1.067,0-1.535,0.983-1.619,1.715H23.002z"/>
		<path fill="#7F7F7F" d="M25.715,32.115l1.271,3.43c0.132,0.384,0.276,0.839,0.372,1.187h0.024
			c0.108-0.348,0.228-0.792,0.372-1.211l1.151-3.406h1.115l-1.583,4.138c-0.756,1.991-1.271,3.01-1.991,3.634
			c-0.516,0.456-1.031,0.636-1.295,0.684l-0.264-0.887c0.264-0.084,0.612-0.252,0.924-0.516c0.288-0.228,0.647-0.636,0.887-1.176
			c0.048-0.108,0.084-0.192,0.084-0.251c0-0.06-0.024-0.144-0.072-0.276l-2.147-5.349H25.715z"/>
		<path fill="#7F7F7F" d="M39.716,37.56c-0.468,0.168-1.391,0.444-2.482,0.444c-1.224,0-2.231-0.312-3.022-1.067
			c-0.695-0.672-1.127-1.751-1.127-3.01c0.012-2.411,1.667-4.174,4.378-4.174c0.935,0,1.667,0.204,2.015,0.372l-0.252,0.852
			c-0.432-0.192-0.971-0.348-1.787-0.348c-1.967,0-3.25,1.223-3.25,3.25c0,2.051,1.235,3.262,3.118,3.262
			c0.684,0,1.151-0.096,1.391-0.216v-2.411h-1.643v-0.839h2.663V37.56z"/>
		<path fill="#7F7F7F" d="M41.927,35.209c0.024,1.427,0.935,2.015,1.991,2.015c0.755,0,1.211-0.132,1.607-0.3l0.18,0.756
			c-0.372,0.168-1.007,0.36-1.931,0.36c-1.787,0-2.854-1.175-2.854-2.927c0-1.751,1.032-3.13,2.723-3.13
			c1.895,0,2.399,1.667,2.399,2.734c0,0.216-0.024,0.384-0.036,0.492H41.927z M45.021,34.454c0.012-0.671-0.276-1.715-1.463-1.715
			c-1.067,0-1.535,0.983-1.619,1.715H45.021z"/>
		<path fill="#7F7F7F" d="M47.351,33.686c0-0.6-0.012-1.091-0.048-1.571h0.936l0.06,0.959h0.024
			c0.288-0.552,0.959-1.091,1.919-1.091c0.803,0,2.05,0.479,2.05,2.47v3.466h-1.055v-3.346c0-0.936-0.349-1.715-1.344-1.715
			c-0.695,0-1.235,0.492-1.415,1.079c-0.048,0.132-0.072,0.312-0.072,0.492v3.49h-1.056V33.686z"/>
		<path fill="#7F7F7F" d="M54.598,35.209c0.024,1.427,0.936,2.015,1.991,2.015c0.756,0,1.211-0.132,1.607-0.3l0.18,0.756
			c-0.372,0.168-1.008,0.36-1.931,0.36c-1.787,0-2.854-1.175-2.854-2.927c0-1.751,1.031-3.13,2.723-3.13
			c1.895,0,2.398,1.667,2.398,2.734c0,0.216-0.024,0.384-0.036,0.492H54.598z M57.692,34.454c0.012-0.671-0.276-1.715-1.463-1.715
			c-1.067,0-1.535,0.983-1.619,1.715H57.692z"/>
		<path fill="#7F7F7F" d="M60.022,33.926c0-0.684-0.013-1.271-0.049-1.811h0.924l0.036,1.139h0.048
			c0.264-0.779,0.899-1.271,1.607-1.271c0.12,0,0.203,0.012,0.3,0.036v0.996c-0.108-0.024-0.216-0.036-0.36-0.036
			c-0.743,0-1.271,0.564-1.415,1.355c-0.023,0.144-0.048,0.312-0.048,0.492v3.094h-1.043V33.926z"/>
		<path fill="#7F7F7F" d="M67.101,37.92l-0.084-0.731H66.98c-0.323,0.456-0.947,0.863-1.775,0.863c-1.175,0-1.774-0.828-1.774-1.667
			c0-1.403,1.247-2.171,3.49-2.159v-0.12c0-0.479-0.132-1.343-1.319-1.343c-0.54,0-1.104,0.168-1.512,0.432l-0.239-0.695
			c0.479-0.312,1.175-0.516,1.906-0.516c1.775,0,2.207,1.211,2.207,2.375v2.171c0,0.503,0.024,0.995,0.096,1.391H67.101z
			 M66.944,34.958c-1.151-0.024-2.458,0.18-2.458,1.307c0,0.684,0.455,1.008,0.995,1.008c0.756,0,1.235-0.48,1.403-0.972
			c0.036-0.108,0.06-0.228,0.06-0.336V34.958z"/>
		<path fill="#7F7F7F" d="M69.671,29.405h1.055v8.515h-1.055V29.405z"/>
		<path fill="#7F7F7F" d="M80.06,29.405v7.016c0,0.516,0.012,1.103,0.048,1.499H79.16l-0.048-1.007h-0.024
			c-0.323,0.647-1.031,1.139-1.979,1.139c-1.403,0-2.482-1.187-2.482-2.95c-0.013-1.931,1.188-3.118,2.603-3.118
			c0.888,0,1.487,0.419,1.751,0.887h0.023v-3.466H80.06z M79.004,34.478c0-0.132-0.012-0.312-0.048-0.444
			c-0.155-0.672-0.731-1.224-1.523-1.224c-1.091,0-1.738,0.959-1.738,2.243c0,1.175,0.575,2.146,1.715,2.146
			c0.708,0,1.355-0.468,1.547-1.259c0.036-0.144,0.048-0.288,0.048-0.456V34.478z"/>
		<path fill="#7F7F7F" d="M82.401,35.209c0.024,1.427,0.936,2.015,1.991,2.015c0.756,0,1.211-0.132,1.607-0.3l0.18,0.756
			c-0.372,0.168-1.008,0.36-1.931,0.36c-1.787,0-2.854-1.175-2.854-2.927c0-1.751,1.031-3.13,2.723-3.13
			c1.895,0,2.398,1.667,2.398,2.734c0,0.216-0.024,0.384-0.036,0.492H82.401z M85.496,34.454c0.012-0.671-0.276-1.715-1.463-1.715
			c-1.067,0-1.535,0.983-1.619,1.715H85.496z"/>
		<path fill="#7F7F7F" d="M24.321,52.057c-0.384,0.191-1.151,0.384-2.135,0.384c-2.279,0-3.994-1.439-3.994-4.09
			c0-2.531,1.715-4.246,4.222-4.246c1.008,0,1.643,0.216,1.919,0.36l-0.252,0.852c-0.396-0.192-0.959-0.336-1.631-0.336
			c-1.895,0-3.154,1.211-3.154,3.334c0,1.979,1.139,3.25,3.106,3.25c0.636,0,1.283-0.132,1.703-0.336L24.321,52.057z"/>
		<path fill="#7F7F7F" d="M30.717,49.37c0,2.147-1.487,3.083-2.89,3.083c-1.571,0-2.783-1.151-2.783-2.987
			c0-1.943,1.271-3.082,2.878-3.082C29.59,46.383,30.717,47.594,30.717,49.37z M26.112,49.429c0,1.272,0.732,2.231,1.763,2.231
			c1.007,0,1.763-0.947,1.763-2.255c0-0.983-0.492-2.23-1.739-2.23C26.652,47.175,26.112,48.326,26.112,49.429z"/>
		<path fill="#7F7F7F" d="M32.052,48.086c0-0.6-0.012-1.091-0.048-1.571h0.936L33,47.475h0.024c0.288-0.552,0.959-1.091,1.919-1.091
			c0.803,0,2.051,0.479,2.051,2.47v3.467h-1.056v-3.347c0-0.936-0.348-1.715-1.343-1.715c-0.695,0-1.235,0.492-1.415,1.079
			c-0.048,0.132-0.072,0.312-0.072,0.492v3.491h-1.056V48.086z"/>
		<path fill="#7F7F7F" d="M39.936,44.848v1.667h1.511v0.803h-1.511v3.13c0,0.72,0.204,1.127,0.792,1.127
			c0.276,0,0.479-0.036,0.611-0.071l0.048,0.791c-0.204,0.084-0.528,0.145-0.936,0.145c-0.492,0-0.888-0.156-1.14-0.444
			c-0.3-0.312-0.408-0.827-0.408-1.511v-3.167h-0.899v-0.803h0.899v-1.392L39.936,44.848z"/>
		<path fill="#7F7F7F" d="M45.851,52.32l-0.084-0.731H45.73c-0.324,0.455-0.947,0.863-1.775,0.863c-1.175,0-1.775-0.828-1.775-1.667
			c0-1.404,1.247-2.171,3.49-2.159v-0.12c0-0.479-0.132-1.343-1.319-1.343c-0.54,0-1.104,0.168-1.511,0.432l-0.24-0.695
			c0.48-0.312,1.175-0.516,1.907-0.516c1.775,0,2.207,1.211,2.207,2.375v2.171c0,0.504,0.024,0.995,0.096,1.392H45.851z
			 M45.694,49.357c-1.151-0.024-2.458,0.18-2.458,1.308c0,0.684,0.456,1.008,0.996,1.008c0.755,0,1.235-0.48,1.403-0.972
			c0.036-0.108,0.06-0.229,0.06-0.336V49.357z"/>
		<path fill="#7F7F7F" d="M48.373,52.32c0.024-0.396,0.048-0.983,0.048-1.499v-7.017h1.043v3.646h0.024
			c0.372-0.648,1.043-1.067,1.979-1.067c1.439,0,2.459,1.199,2.446,2.962c0,2.076-1.307,3.107-2.603,3.107
			c-0.839,0-1.511-0.324-1.942-1.092h-0.036l-0.048,0.96H48.373z M49.464,49.993c0,0.132,0.024,0.264,0.048,0.384
			c0.204,0.731,0.815,1.235,1.583,1.235c1.104,0,1.764-0.899,1.764-2.231c0-1.163-0.6-2.159-1.728-2.159
			c-0.72,0-1.391,0.492-1.607,1.295c-0.024,0.12-0.06,0.264-0.06,0.432V49.993z"/>
		<path fill="#7F7F7F" d="M56.424,44.884c0.012,0.36-0.252,0.648-0.672,0.648c-0.371,0-0.636-0.288-0.636-0.648
			c0-0.372,0.276-0.66,0.66-0.66C56.172,44.224,56.424,44.512,56.424,44.884z M55.249,52.32v-5.805h1.055v5.805H55.249z"/>
		<path fill="#7F7F7F" d="M58.057,43.805h1.055v8.516h-1.055V43.805z"/>
		<path fill="#7F7F7F" d="M62.063,44.884c0.012,0.36-0.252,0.648-0.672,0.648c-0.371,0-0.636-0.288-0.636-0.648
			c0-0.372,0.276-0.66,0.66-0.66C61.812,44.224,62.063,44.512,62.063,44.884z M60.889,52.32v-5.805h1.055v5.805H60.889z"/>
		<path fill="#7F7F7F" d="M68.709,43.805v7.017c0,0.516,0.012,1.103,0.048,1.499H67.81l-0.048-1.008h-0.024
			c-0.323,0.647-1.031,1.14-1.979,1.14c-1.403,0-2.482-1.188-2.482-2.951c-0.013-1.931,1.188-3.118,2.603-3.118
			c0.888,0,1.487,0.419,1.751,0.887h0.023v-3.466H68.709z M67.653,48.878c0-0.132-0.012-0.312-0.048-0.444
			c-0.155-0.672-0.731-1.224-1.522-1.224c-1.092,0-1.739,0.959-1.739,2.243c0,1.175,0.575,2.147,1.715,2.147
			c0.708,0,1.355-0.468,1.547-1.26c0.036-0.144,0.048-0.288,0.048-0.456V48.878z"/>
		<path fill="#7F7F7F" d="M73.678,52.32l-0.084-0.731h-0.036c-0.324,0.455-0.947,0.863-1.775,0.863
			c-1.175,0-1.774-0.828-1.774-1.667c0-1.404,1.247-2.171,3.49-2.159v-0.12c0-0.479-0.132-1.343-1.319-1.343
			c-0.54,0-1.104,0.168-1.512,0.432l-0.239-0.695c0.479-0.312,1.175-0.516,1.906-0.516c1.775,0,2.207,1.211,2.207,2.375v2.171
			c0,0.504,0.024,0.995,0.096,1.392H73.678z M73.521,49.357c-1.151-0.024-2.458,0.18-2.458,1.308c0,0.684,0.455,1.008,0.995,1.008
			c0.756,0,1.235-0.48,1.403-0.972c0.036-0.108,0.06-0.229,0.06-0.336V49.357z"/>
		<path fill="#7F7F7F" d="M81.261,43.805v7.017c0,0.516,0.012,1.103,0.048,1.499h-0.947l-0.048-1.008h-0.024
			c-0.323,0.647-1.031,1.14-1.979,1.14c-1.403,0-2.482-1.188-2.482-2.951c-0.013-1.931,1.188-3.118,2.603-3.118
			c0.888,0,1.487,0.419,1.751,0.887h0.023v-3.466H81.261z M80.205,48.878c0-0.132-0.012-0.312-0.048-0.444
			c-0.155-0.672-0.731-1.224-1.523-1.224c-1.091,0-1.738,0.959-1.738,2.243c0,1.175,0.575,2.147,1.715,2.147
			c0.708,0,1.355-0.468,1.547-1.26c0.036-0.144,0.048-0.288,0.048-0.456V48.878z"/>
		<path fill="#7F7F7F" d="M17.595,66.36c-0.468,0.168-1.391,0.443-2.482,0.443c-1.224,0-2.231-0.312-3.022-1.067
			c-0.695-0.672-1.127-1.751-1.127-3.01c0.012-2.411,1.667-4.174,4.378-4.174c0.935,0,1.667,0.204,2.015,0.371l-0.252,0.852
			c-0.432-0.191-0.971-0.348-1.787-0.348c-1.967,0-3.25,1.224-3.25,3.25c0,2.052,1.235,3.263,3.118,3.263
			c0.684,0,1.151-0.096,1.391-0.216v-2.411h-1.643v-0.839h2.663V66.36z"/>
		<path fill="#7F7F7F" d="M24.016,65.137c0,0.6,0.012,1.128,0.048,1.583h-0.936l-0.06-0.947h-0.024
			c-0.276,0.468-0.887,1.079-1.919,1.079c-0.911,0-2.003-0.503-2.003-2.542v-3.395h1.056v3.215c0,1.103,0.336,1.847,1.295,1.847
			c0.708,0,1.199-0.492,1.391-0.96c0.06-0.155,0.096-0.348,0.096-0.539v-3.563h1.056V65.137z"/>
		<path fill="#7F7F7F" d="M25.722,66.72c0.024-0.396,0.048-0.983,0.048-1.499v-7.016h1.043v3.646h0.024
			c0.372-0.647,1.043-1.067,1.979-1.067c1.439,0,2.458,1.199,2.447,2.963c0,2.074-1.308,3.105-2.603,3.105
			c-0.84,0-1.511-0.323-1.943-1.091h-0.036l-0.048,0.959H25.722z M26.813,64.394c0,0.132,0.024,0.264,0.048,0.384
			c0.204,0.731,0.815,1.235,1.583,1.235c1.104,0,1.763-0.899,1.763-2.231c0-1.163-0.6-2.158-1.727-2.158
			c-0.72,0-1.391,0.491-1.607,1.295c-0.024,0.12-0.06,0.264-0.06,0.432V64.394z"/>
		<path fill="#7F7F7F" d="M33.186,64.01c0.024,1.427,0.936,2.015,1.991,2.015c0.755,0,1.211-0.132,1.607-0.3l0.18,0.756
			c-0.372,0.168-1.007,0.359-1.931,0.359c-1.787,0-2.854-1.175-2.854-2.927c0-1.751,1.032-3.13,2.723-3.13
			c1.895,0,2.399,1.667,2.399,2.734c0,0.216-0.024,0.384-0.036,0.492H33.186z M36.28,63.254c0.012-0.672-0.276-1.715-1.463-1.715
			c-1.067,0-1.535,0.983-1.619,1.715H36.28z"/>
		<path fill="#7F7F7F" d="M38.609,62.727c0-0.684-0.012-1.271-0.048-1.812h0.923l0.036,1.14h0.048
			c0.264-0.779,0.899-1.271,1.607-1.271c0.12,0,0.204,0.012,0.3,0.036v0.995c-0.108-0.023-0.216-0.036-0.359-0.036
			c-0.744,0-1.271,0.564-1.416,1.355c-0.024,0.145-0.048,0.312-0.048,0.492v3.094h-1.043V62.727z"/>
		<path fill="#7F7F7F" d="M42.581,62.486c0-0.6-0.012-1.092-0.048-1.571h0.936l0.06,0.96h0.024c0.288-0.552,0.959-1.092,1.919-1.092
			c0.803,0,2.051,0.479,2.051,2.471v3.466h-1.056v-3.346c0-0.936-0.348-1.715-1.343-1.715c-0.695,0-1.235,0.491-1.415,1.079
			c-0.048,0.132-0.072,0.312-0.072,0.491v3.49h-1.056V62.486z"/>
		<path fill="#7F7F7F" d="M52.455,66.72l-0.084-0.731h-0.036c-0.324,0.456-0.947,0.863-1.775,0.863
			c-1.175,0-1.774-0.827-1.774-1.667c0-1.403,1.247-2.171,3.49-2.158v-0.12c0-0.479-0.132-1.344-1.319-1.344
			c-0.54,0-1.104,0.168-1.511,0.432l-0.24-0.695c0.48-0.312,1.175-0.516,1.907-0.516c1.775,0,2.207,1.211,2.207,2.375v2.171
			c0,0.503,0.024,0.995,0.096,1.391H52.455z M52.299,63.758c-1.151-0.024-2.458,0.18-2.458,1.307c0,0.684,0.456,1.008,0.996,1.008
			c0.756,0,1.235-0.479,1.403-0.972c0.036-0.107,0.06-0.228,0.06-0.336V63.758z"/>
		<path fill="#7F7F7F" d="M55.025,62.486c0-0.6-0.013-1.092-0.049-1.571H55.9l0.048,0.936h0.036
			c0.324-0.552,0.863-1.067,1.823-1.067c0.791,0,1.391,0.479,1.643,1.163h0.024c0.18-0.323,0.407-0.575,0.647-0.755
			c0.348-0.265,0.731-0.408,1.283-0.408c0.768,0,1.907,0.504,1.907,2.519v3.418h-1.031v-3.286c0-1.115-0.408-1.787-1.26-1.787
			c-0.6,0-1.067,0.444-1.247,0.96c-0.048,0.144-0.084,0.336-0.084,0.527v3.586h-1.031v-3.478c0-0.924-0.408-1.596-1.212-1.596
			c-0.659,0-1.139,0.528-1.307,1.056c-0.061,0.156-0.084,0.336-0.084,0.516v3.502h-1.031V62.486z"/>
		<path fill="#7F7F7F" d="M65.62,64.01c0.024,1.427,0.936,2.015,1.991,2.015c0.756,0,1.211-0.132,1.607-0.3l0.18,0.756
			c-0.372,0.168-1.008,0.359-1.931,0.359c-1.787,0-2.854-1.175-2.854-2.927c0-1.751,1.031-3.13,2.723-3.13
			c1.895,0,2.398,1.667,2.398,2.734c0,0.216-0.024,0.384-0.036,0.492H65.62z M68.715,63.254c0.012-0.672-0.276-1.715-1.463-1.715
			c-1.067,0-1.535,0.983-1.619,1.715H68.715z"/>
		<path fill="#7F7F7F" d="M71.045,62.486c0-0.6-0.013-1.092-0.049-1.571h0.936l0.061,0.96h0.023c0.288-0.552,0.96-1.092,1.919-1.092
			c0.804,0,2.051,0.479,2.051,2.471v3.466h-1.055v-3.346c0-0.936-0.348-1.715-1.344-1.715c-0.695,0-1.235,0.491-1.415,1.079
			C72.124,62.87,72.1,63.05,72.1,63.229v3.49h-1.055V62.486z"/>
		<path fill="#7F7F7F" d="M78.928,59.248v1.667h1.512v0.804h-1.512v3.13c0,0.72,0.204,1.128,0.792,1.128
			c0.275,0,0.479-0.036,0.611-0.072l0.048,0.792c-0.203,0.084-0.527,0.144-0.936,0.144c-0.491,0-0.887-0.156-1.139-0.443
			c-0.3-0.313-0.408-0.828-0.408-1.512v-3.166h-0.899v-0.804h0.899v-1.391L78.928,59.248z"/>
		<path fill="#7F7F7F" d="M84.843,66.72l-0.084-0.731h-0.036c-0.323,0.456-0.947,0.863-1.775,0.863
			c-1.175,0-1.774-0.827-1.774-1.667c0-1.403,1.247-2.171,3.49-2.158v-0.12c0-0.479-0.132-1.344-1.319-1.344
			c-0.54,0-1.104,0.168-1.512,0.432l-0.239-0.695c0.479-0.312,1.175-0.516,1.906-0.516c1.775,0,2.207,1.211,2.207,2.375v2.171
			c0,0.503,0.024,0.995,0.096,1.391H84.843z M84.687,63.758c-1.151-0.024-2.458,0.18-2.458,1.307c0,0.684,0.455,1.008,0.995,1.008
			c0.756,0,1.235-0.479,1.403-0.972c0.036-0.107,0.06-0.228,0.06-0.336V63.758z"/>
		<path fill="#7F7F7F" d="M87.413,58.205h1.055v8.515h-1.055V58.205z"/>
	</g>
</g>
<path fill="none" stroke="#7F7F7F" stroke-miterlimit="10" d="M100,92c0,4.418-3.582,8-8,8H8c-4.418,0-8-3.582-8-8V8
	c0-4.418,3.582-8,8-8h84c4.418,0,8,3.582,8,8V92z"/>
</svg>
