<?xml version="1.0" encoding="utf-8"?>
<!-- Generator: Adobe Illustrator 17.0.0, SVG Export Plug-In . SVG Version: 6.00 Build 0)  -->
<!DOCTYPE svg PUBLIC "-//W3C//DTD SVG 1.1//EN" "http://www.w3.org/Graphics/SVG/1.1/DTD/svg11.dtd">
<svg version="1.1" id="Capa_1" xmlns="http://www.w3.org/2000/svg" xmlns:xlink="http://www.w3.org/1999/xlink" x="0px" y="0px"
	 width="229px" height="114px" viewBox="0 0 229 114" enable-background="new 0 0 229 114" xml:space="preserve">
<g>
	<g>
		<polygon fill="#038D4F" points="38.355,40.172 44.319,37.838 50.282,40.172 50.282,44.841 44.319,47.176 38.355,44.841 		"/>
		<polygon fill="#038D4F" points="14.5,49.51 20.464,47.176 26.427,49.51 26.427,54.179 20.464,56.513 14.5,54.179 		"/>
		<polygon fill="#038D4F" points="14.5,40.172 20.464,37.838 26.427,40.172 26.427,44.841 20.464,47.176 14.5,44.841 		"/>
		<polygon fill="#038D4F" points="26.427,35.504 32.391,33.169 38.355,35.504 38.355,40.172 32.391,42.507 26.427,40.172 		"/>
		<polygon fill="#038D4F" points="38.355,30.835 44.319,28.5 50.282,30.835 50.282,35.504 44.319,37.838 38.355,35.504 		"/>
		<polygon fill="#038D4F" points="50.282,35.504 56.246,33.169 62.21,35.504 62.21,40.172 56.246,42.507 50.282,40.172 		"/>
		<polygon fill="#038D4F" points="62.21,40.172 68.173,37.838 74.137,40.172 74.137,44.841 68.173,47.176 62.21,44.841 		"/>
		<polygon fill="#038D4F" points="62.21,49.51 68.173,47.176 74.137,49.51 74.137,54.179 68.173,56.513 62.21,54.179 		"/>
		<polygon fill="#038D4F" points="74.137,54.179 80.101,51.844 86.064,54.179 86.064,58.848 80.101,61.182 74.137,58.848 		"/>
		<polygon fill="#038D4F" points="86.064,49.51 92.028,47.176 97.992,49.51 97.992,54.179 92.028,56.513 86.064,54.179 		"/>
		<polygon fill="#038D4F" points="86.064,40.172 92.028,37.838 97.992,40.172 97.992,44.841 92.028,47.176 86.064,44.841 		"/>
		<polygon fill="#038D4F" points="62.21,58.848 68.173,56.513 74.137,58.848 74.137,63.516 68.173,65.851 62.21,63.516 		"/>
		<polygon fill="#038D4F" points="50.282,44.841 56.246,42.507 62.21,44.841 62.21,49.51 56.246,51.844 50.282,49.51 		"/>
		<polygon fill="#038D4F" points="50.282,54.179 56.246,51.844 62.21,54.179 62.21,58.848 56.246,61.182 50.282,58.848 		"/>
		<polygon fill="#038D4F" points="38.355,49.51 44.319,47.176 50.282,49.51 50.282,54.179 44.319,56.513 38.355,54.179 		"/>
	</g>
	<g>
		<path fill="#038D4F" d="M28.605,84.56c-0.871,0.436-2.614,0.871-4.848,0.871c-5.175,0-9.069-3.268-9.069-9.287
			c0-5.746,3.894-9.641,9.586-9.641c2.287,0,3.731,0.49,4.357,0.817l-0.572,1.933c-0.899-0.435-2.179-0.762-3.704-0.762
			c-4.303,0-7.163,2.75-7.163,7.571c0,4.493,2.587,7.381,7.054,7.381c1.444,0,2.914-0.3,3.867-0.763L28.605,84.56z"/>
		<path fill="#038D4F" d="M46.689,75.791c0,6.318-3.84,9.668-8.524,9.668c-4.848,0-8.252-3.759-8.252-9.315
			c0-5.828,3.622-9.641,8.524-9.641C43.449,66.503,46.689,70.343,46.689,75.791z M32.446,76.09c0,3.922,2.124,7.435,5.855,7.435
			c3.758,0,5.883-3.459,5.883-7.625c0-3.65-1.906-7.462-5.855-7.462C34.407,68.437,32.446,72.059,32.446,76.09z"/>
		<path fill="#038D4F" d="M49.768,85.159V66.803h2.587l5.883,9.287c1.362,2.152,2.424,4.086,3.296,5.965l0.054-0.027
			c-0.218-2.451-0.273-4.684-0.273-7.544v-7.68h2.233v18.356h-2.397l-5.828-9.314c-1.28-2.043-2.505-4.14-3.432-6.128l-0.082,0.027
			c0.136,2.315,0.191,4.521,0.191,7.571v7.843H49.768z"/>
		<path fill="#038D4F" d="M70.657,79.385l-1.906,5.773H66.3l6.237-18.356h2.86l6.264,18.356h-2.533l-1.961-5.773H70.657z
			 M76.676,77.534l-1.798-5.284c-0.408-1.198-0.681-2.287-0.953-3.349h-0.054c-0.272,1.089-0.572,2.206-0.926,3.322l-1.798,5.311
			H76.676z"/>
		<path fill="#038D4F" d="M96.776,84.56c-0.871,0.436-2.614,0.871-4.848,0.871c-5.175,0-9.069-3.268-9.069-9.287
			c0-5.746,3.895-9.641,9.586-9.641c2.288,0,3.731,0.49,4.357,0.817l-0.572,1.933c-0.899-0.435-2.179-0.762-3.704-0.762
			c-4.303,0-7.163,2.75-7.163,7.571c0,4.493,2.587,7.381,7.054,7.381c1.444,0,2.914-0.3,3.867-0.763L96.776,84.56z"/>
	</g>
	<g>
		<g>
			<path fill="#6C6C68" d="M113.133,56.533c-0.492,0.246-1.475,0.492-2.734,0.492c-2.919,0-5.116-1.843-5.116-5.239
				c0-3.241,2.197-5.438,5.408-5.438c1.29,0,2.105,0.277,2.458,0.461l-0.323,1.09c-0.507-0.245-1.229-0.43-2.089-0.43
				c-2.427,0-4.04,1.551-4.04,4.271c0,2.534,1.459,4.163,3.979,4.163c0.814,0,1.644-0.169,2.182-0.43L113.133,56.533z"/>
			<path fill="#6C6C68" d="M121.325,53.092c0,2.75-1.905,3.948-3.703,3.948c-2.013,0-3.564-1.475-3.564-3.825
				c0-2.489,1.628-3.948,3.687-3.948C119.88,49.267,121.325,50.818,121.325,53.092z M115.426,53.169
				c0,1.628,0.937,2.857,2.258,2.857c1.29,0,2.258-1.213,2.258-2.888c0-1.259-0.63-2.858-2.227-2.858
				C116.116,50.281,115.426,51.755,115.426,53.169z"/>
			<path fill="#6C6C68" d="M123.032,51.448c0-0.768-0.015-1.398-0.061-2.012h1.198l0.077,1.229h0.031
				c0.368-0.707,1.229-1.398,2.458-1.398c1.029,0,2.627,0.614,2.627,3.164v4.44h-1.352v-4.286c0-1.198-0.445-2.196-1.721-2.196
				c-0.891,0-1.582,0.63-1.813,1.382c-0.061,0.169-0.092,0.4-0.092,0.63v4.47h-1.352V51.448z"/>
			<path fill="#6C6C68" d="M131.377,55.489c0.4,0.261,1.107,0.537,1.782,0.537c0.983,0,1.445-0.492,1.445-1.106
				c0-0.645-0.384-0.999-1.383-1.367c-1.337-0.477-1.966-1.214-1.966-2.105c0-1.198,0.968-2.181,2.565-2.181
				c0.753,0,1.414,0.215,1.828,0.461l-0.338,0.983c-0.292-0.184-0.83-0.431-1.52-0.431c-0.799,0-1.245,0.461-1.245,1.014
				c0,0.615,0.445,0.891,1.414,1.26c1.29,0.492,1.951,1.137,1.951,2.243c0,1.306-1.014,2.227-2.781,2.227
				c-0.814,0-1.567-0.199-2.09-0.507L131.377,55.489z"/>
			<path fill="#6C6C68" d="M138.401,53.399c0.03,1.828,1.198,2.581,2.55,2.581c0.968,0,1.552-0.169,2.058-0.384l0.231,0.968
				c-0.476,0.215-1.29,0.461-2.473,0.461c-2.289,0-3.656-1.505-3.656-3.748c0-2.243,1.321-4.009,3.487-4.009
				c2.427,0,3.072,2.135,3.072,3.502c0,0.277-0.03,0.492-0.046,0.63H138.401z M142.363,52.431c0.015-0.86-0.353-2.196-1.874-2.196
				c-1.367,0-1.966,1.259-2.074,2.196H142.363z"/>
			<path fill="#6C6C68" d="M143.533,59.022c0.614-0.046,1.152-0.215,1.475-0.568c0.369-0.431,0.507-1.014,0.507-2.796v-6.222h1.352
				v6.743c0,1.445-0.231,2.382-0.891,3.058c-0.599,0.599-1.582,0.845-2.304,0.845L143.533,59.022z M147.021,47.346
				c0.015,0.446-0.307,0.83-0.845,0.83c-0.507,0-0.83-0.384-0.83-0.83c0-0.476,0.353-0.844,0.86-0.844
				C146.698,46.502,147.021,46.87,147.021,47.346z"/>
			<path fill="#6C6C68" d="M155.809,53.092c0,2.75-1.905,3.948-3.702,3.948c-2.013,0-3.565-1.475-3.565-3.825
				c0-2.489,1.628-3.948,3.687-3.948C154.365,49.267,155.809,50.818,155.809,53.092z M149.91,53.169
				c0,1.628,0.937,2.857,2.258,2.857c1.29,0,2.259-1.213,2.259-2.888c0-1.259-0.63-2.858-2.228-2.858S149.91,51.755,149.91,53.169z"
				/>
			<path fill="#6C6C68" d="M160.821,56.871V46.517h1.459l3.318,5.239c0.768,1.214,1.367,2.304,1.858,3.365l0.031-0.015
				c-0.123-1.383-0.154-2.642-0.154-4.255v-4.333h1.259v10.354h-1.351l-3.288-5.254c-0.722-1.152-1.414-2.335-1.936-3.457
				l-0.046,0.015c0.076,1.306,0.107,2.551,0.107,4.271v4.424H160.821z"/>
			<path fill="#6C6C68" d="M175.004,56.871l-0.107-0.937h-0.046c-0.414,0.583-1.214,1.106-2.274,1.106
				c-1.506,0-2.274-1.06-2.274-2.135c0-1.797,1.597-2.781,4.47-2.765v-0.154c0-0.614-0.169-1.72-1.689-1.72
				c-0.691,0-1.414,0.215-1.936,0.553l-0.308-0.891c0.615-0.4,1.506-0.661,2.443-0.661c2.274,0,2.826,1.551,2.826,3.041v2.781
				c0,0.645,0.031,1.275,0.123,1.782H175.004z M174.804,53.077c-1.475-0.03-3.149,0.231-3.149,1.675c0,0.876,0.584,1.29,1.276,1.29
				c0.968,0,1.582-0.614,1.797-1.244c0.046-0.138,0.076-0.292,0.076-0.43V53.077z"/>
			<path fill="#6C6C68" d="M183.595,56.595c-0.353,0.184-1.137,0.43-2.135,0.43c-2.243,0-3.703-1.52-3.703-3.795
				c0-2.289,1.567-3.947,3.994-3.947c0.799,0,1.506,0.199,1.875,0.384l-0.307,1.045c-0.323-0.184-0.83-0.353-1.567-0.353
				c-1.706,0-2.627,1.259-2.627,2.811c0,1.72,1.106,2.781,2.581,2.781c0.769,0,1.276-0.2,1.659-0.369L183.595,56.595z"/>
			<path fill="#6C6C68" d="M186.685,47.346c0.015,0.461-0.323,0.83-0.86,0.83c-0.476,0-0.814-0.368-0.814-0.83
				c0-0.476,0.353-0.844,0.845-0.844C186.362,46.502,186.685,46.87,186.685,47.346z M185.179,56.871v-7.435h1.352v7.435H185.179z"/>
			<path fill="#6C6C68" d="M195.504,53.092c0,2.75-1.905,3.948-3.702,3.948c-2.013,0-3.565-1.475-3.565-3.825
				c0-2.489,1.628-3.948,3.687-3.948C194.06,49.267,195.504,50.818,195.504,53.092z M189.605,53.169
				c0,1.628,0.937,2.857,2.258,2.857c1.29,0,2.259-1.213,2.259-2.888c0-1.259-0.63-2.858-2.228-2.858
				C190.296,50.281,189.605,51.755,189.605,53.169z"/>
			<path fill="#6C6C68" d="M197.212,51.448c0-0.768-0.015-1.398-0.061-2.012h1.198l0.077,1.229h0.031
				c0.368-0.707,1.229-1.398,2.458-1.398c1.029,0,2.627,0.614,2.627,3.164v4.44h-1.352v-4.286c0-1.198-0.446-2.196-1.721-2.196
				c-0.891,0-1.582,0.63-1.813,1.382c-0.061,0.169-0.092,0.4-0.092,0.63v4.47h-1.352V51.448z"/>
			<path fill="#6C6C68" d="M209.858,56.871l-0.107-0.937h-0.046c-0.414,0.583-1.214,1.106-2.274,1.106
				c-1.506,0-2.274-1.06-2.274-2.135c0-1.797,1.598-2.781,4.47-2.765v-0.154c0-0.614-0.169-1.72-1.689-1.72
				c-0.691,0-1.414,0.215-1.936,0.553l-0.308-0.891c0.615-0.4,1.506-0.661,2.443-0.661c2.274,0,2.826,1.551,2.826,3.041v2.781
				c0,0.645,0.031,1.275,0.123,1.782H209.858z M209.658,53.077c-1.475-0.03-3.149,0.231-3.149,1.675c0,0.876,0.584,1.29,1.276,1.29
				c0.968,0,1.582-0.614,1.797-1.244c0.046-0.138,0.076-0.292,0.076-0.43V53.077z"/>
			<path fill="#6C6C68" d="M213.148,45.964h1.352v10.907h-1.352V45.964z"/>
		</g>
		<g>
			<path fill="#6C6C68" d="M112.273,60.133v8.987c0,0.661,0.015,1.413,0.061,1.92h-1.214l-0.061-1.29h-0.031
				c-0.415,0.83-1.321,1.459-2.535,1.459c-1.797,0-3.18-1.52-3.18-3.779c-0.015-2.473,1.521-3.994,3.334-3.994
				c1.137,0,1.905,0.537,2.243,1.137h0.03v-4.44H112.273z M110.92,66.631c0-0.169-0.015-0.399-0.061-0.568
				c-0.2-0.86-0.937-1.567-1.951-1.567c-1.398,0-2.228,1.229-2.228,2.873c0,1.505,0.737,2.75,2.197,2.75
				c0.906,0,1.736-0.599,1.982-1.613c0.046-0.184,0.061-0.369,0.061-0.584V66.631z"/>
			<path fill="#6C6C68" d="M115.271,67.568c0.031,1.828,1.198,2.581,2.55,2.581c0.968,0,1.552-0.169,2.059-0.384l0.231,0.968
				c-0.477,0.215-1.291,0.461-2.473,0.461c-2.289,0-3.656-1.505-3.656-3.748c0-2.243,1.321-4.009,3.487-4.009
				c2.427,0,3.072,2.135,3.072,3.502c0,0.277-0.031,0.492-0.046,0.63H115.271z M119.234,66.6c0.015-0.86-0.353-2.196-1.875-2.196
				c-1.367,0-1.966,1.259-2.074,2.196H119.234z"/>
			<path fill="#6C6C68" d="M127.196,67.783l-1.076,3.257h-1.382l3.518-10.354h1.613l3.534,10.354h-1.429l-1.106-3.257H127.196z
				 M130.591,66.739l-1.014-2.98c-0.23-0.676-0.384-1.29-0.538-1.89h-0.03c-0.154,0.614-0.323,1.245-0.522,1.875l-1.014,2.996
				H130.591z"/>
			<path fill="#6C6C68" d="M134.834,65.924c0-0.875-0.015-1.628-0.061-2.319h1.182l0.046,1.459h0.062
				c0.338-0.999,1.152-1.628,2.058-1.628c0.154,0,0.261,0.015,0.384,0.046v1.276c-0.138-0.031-0.277-0.046-0.461-0.046
				c-0.953,0-1.629,0.722-1.813,1.736c-0.031,0.184-0.062,0.4-0.062,0.63v3.964h-1.337V65.924z"/>
			<path fill="#6C6C68" d="M139.921,65.617c0-0.768-0.015-1.398-0.061-2.012h1.182l0.062,1.198h0.046
				c0.414-0.706,1.106-1.367,2.335-1.367c1.014,0,1.783,0.614,2.105,1.49h0.03c0.231-0.415,0.522-0.738,0.83-0.968
				c0.446-0.337,0.938-0.522,1.644-0.522c0.983,0,2.443,0.645,2.443,3.226v4.378h-1.321v-4.209c0-1.428-0.522-2.289-1.613-2.289
				c-0.768,0-1.367,0.568-1.597,1.229c-0.062,0.184-0.107,0.431-0.107,0.676v4.593h-1.321v-4.455c0-1.182-0.522-2.043-1.552-2.043
				c-0.845,0-1.459,0.676-1.675,1.352c-0.076,0.199-0.107,0.43-0.107,0.661v4.485h-1.321V65.617z"/>
			<path fill="#6C6C68" d="M159.466,67.261c0,2.75-1.905,3.948-3.702,3.948c-2.013,0-3.565-1.475-3.565-3.825
				c0-2.489,1.628-3.948,3.687-3.948C158.022,63.436,159.466,64.987,159.466,67.261z M153.567,67.338
				c0,1.628,0.937,2.857,2.258,2.857c1.29,0,2.259-1.213,2.259-2.888c0-1.259-0.63-2.858-2.228-2.858S153.567,65.924,153.567,67.338
				z"/>
			<path fill="#6C6C68" d="M161.174,65.617c0-0.768-0.015-1.398-0.061-2.012h1.198l0.077,1.229h0.031
				c0.368-0.707,1.229-1.398,2.458-1.398c1.029,0,2.627,0.614,2.627,3.164v4.44h-1.352v-4.286c0-1.198-0.446-2.196-1.721-2.196
				c-0.891,0-1.582,0.63-1.813,1.382c-0.061,0.169-0.092,0.4-0.092,0.63v4.47h-1.352V65.617z"/>
			<path fill="#6C6C68" d="M171.209,61.515c0.015,0.461-0.323,0.83-0.86,0.83c-0.476,0-0.814-0.368-0.814-0.83
				c0-0.476,0.353-0.844,0.845-0.844C170.886,60.671,171.209,61.039,171.209,61.515z M169.703,71.04v-7.435h1.352v7.435H169.703z"/>
			<path fill="#6C6C68" d="M172.454,70.257l3.365-4.378c0.323-0.4,0.63-0.753,0.968-1.152v-0.031h-4.025v-1.09h5.669l-0.015,0.844
				l-3.318,4.317c-0.307,0.415-0.614,0.783-0.952,1.168v0.031h4.347v1.075h-6.037V70.257z"/>
			<path fill="#6C6C68" d="M183.994,71.04l-0.107-0.937h-0.046c-0.415,0.583-1.214,1.106-2.274,1.106
				c-1.506,0-2.274-1.06-2.274-2.135c0-1.797,1.597-2.781,4.47-2.765v-0.154c0-0.614-0.169-1.72-1.689-1.72
				c-0.691,0-1.414,0.215-1.936,0.553l-0.308-0.891c0.615-0.4,1.506-0.661,2.443-0.661c2.274,0,2.826,1.551,2.826,3.041v2.781
				c0,0.645,0.031,1.275,0.123,1.782H183.994z M183.794,67.245c-1.475-0.03-3.149,0.231-3.149,1.675c0,0.876,0.584,1.29,1.276,1.29
				c0.968,0,1.582-0.614,1.797-1.244c0.046-0.138,0.076-0.292,0.076-0.43V67.245z"/>
			<path fill="#6C6C68" d="M192.584,70.764c-0.353,0.184-1.137,0.43-2.135,0.43c-2.243,0-3.703-1.52-3.703-3.795
				c0-2.289,1.567-3.947,3.994-3.947c0.799,0,1.506,0.199,1.875,0.384l-0.307,1.045c-0.323-0.184-0.83-0.353-1.567-0.353
				c-1.706,0-2.627,1.259-2.627,2.811c0,1.72,1.106,2.781,2.581,2.781c0.769,0,1.276-0.2,1.659-0.369L192.584,70.764z"/>
			<path fill="#6C6C68" d="M195.674,61.515c0.015,0.461-0.323,0.83-0.86,0.83c-0.476,0-0.814-0.368-0.814-0.83
				c0-0.476,0.353-0.844,0.845-0.844C195.351,60.671,195.674,61.039,195.674,61.515z M194.168,71.04v-7.435h1.352v7.435H194.168z"/>
			<path fill="#6C6C68" d="M204.493,67.261c0,2.75-1.905,3.948-3.702,3.948c-2.013,0-3.565-1.475-3.565-3.825
				c0-2.489,1.628-3.948,3.687-3.948C203.049,63.436,204.493,64.987,204.493,67.261z M198.594,67.338
				c0,1.628,0.937,2.857,2.258,2.857c1.29,0,2.259-1.213,2.259-2.888c0-1.259-0.63-2.858-2.228-2.858S198.594,65.924,198.594,67.338
				z M202.88,60.394l-1.875,2.197h-0.968l1.352-2.197H202.88z"/>
			<path fill="#6C6C68" d="M206.202,65.617c0-0.768-0.015-1.398-0.061-2.012h1.198l0.077,1.229h0.031
				c0.368-0.707,1.229-1.398,2.458-1.398c1.029,0,2.627,0.614,2.627,3.164v4.44h-1.352v-4.286c0-1.198-0.445-2.196-1.721-2.196
				c-0.891,0-1.582,0.63-1.813,1.382c-0.061,0.169-0.092,0.4-0.092,0.63v4.47h-1.352V65.617z"/>
		</g>
		<g>
			<path fill="#6C6C68" d="M113.133,84.993c-0.492,0.246-1.475,0.492-2.734,0.492c-2.919,0-5.116-1.843-5.116-5.239
				c0-3.241,2.197-5.438,5.408-5.438c1.29,0,2.105,0.277,2.458,0.461l-0.323,1.09c-0.507-0.245-1.229-0.43-2.089-0.43
				c-2.427,0-4.04,1.551-4.04,4.271c0,2.534,1.459,4.163,3.979,4.163c0.814,0,1.644-0.169,2.182-0.43L113.133,84.993z"/>
			<path fill="#6C6C68" d="M121.325,81.552c0,2.75-1.905,3.948-3.703,3.948c-2.013,0-3.564-1.475-3.564-3.825
				c0-2.489,1.628-3.948,3.687-3.948C119.88,77.727,121.325,79.278,121.325,81.552z M115.426,81.629
				c0,1.628,0.937,2.857,2.258,2.857c1.29,0,2.258-1.213,2.258-2.888c0-1.259-0.63-2.858-2.227-2.858
				C116.116,78.74,115.426,80.215,115.426,81.629z"/>
			<path fill="#6C6C68" d="M123.032,79.908c0-0.768-0.015-1.398-0.061-2.012h1.198l0.077,1.229h0.031
				c0.368-0.707,1.229-1.398,2.458-1.398c1.029,0,2.627,0.614,2.627,3.164v4.44h-1.352v-4.286c0-1.198-0.445-2.196-1.721-2.196
				c-0.891,0-1.582,0.63-1.813,1.382c-0.061,0.169-0.092,0.4-0.092,0.63v4.47h-1.352V79.908z"/>
			<path fill="#6C6C68" d="M133.128,75.76v2.135h1.936v1.029h-1.936v4.01c0,0.921,0.262,1.444,1.014,1.444
				c0.353,0,0.614-0.046,0.783-0.092l0.062,1.013c-0.262,0.108-0.676,0.184-1.198,0.184c-0.63,0-1.137-0.199-1.459-0.568
				c-0.384-0.4-0.522-1.06-0.522-1.936v-4.056h-1.152v-1.029h1.152v-1.782L133.128,75.76z"/>
			<path fill="#6C6C68" d="M140.704,85.331l-0.107-0.937h-0.046c-0.414,0.583-1.214,1.106-2.274,1.106
				c-1.506,0-2.274-1.06-2.274-2.135c0-1.797,1.598-2.781,4.47-2.765v-0.154c0-0.614-0.169-1.72-1.689-1.72
				c-0.691,0-1.414,0.215-1.936,0.553l-0.308-0.891c0.615-0.4,1.506-0.661,2.443-0.661c2.274,0,2.826,1.551,2.826,3.041v2.781
				c0,0.645,0.031,1.275,0.123,1.782H140.704z M140.504,81.536c-1.475-0.03-3.149,0.231-3.149,1.675c0,0.876,0.584,1.29,1.276,1.29
				c0.968,0,1.582-0.614,1.797-1.244c0.046-0.138,0.076-0.292,0.076-0.43V81.536z"/>
			<path fill="#6C6C68" d="M143.933,85.331c0.03-0.507,0.061-1.259,0.061-1.92v-8.987h1.337v4.67h0.031
				c0.476-0.83,1.337-1.367,2.534-1.367c1.844,0,3.149,1.536,3.134,3.795c0,2.657-1.675,3.978-3.333,3.978
				c-1.076,0-1.936-0.414-2.489-1.398h-0.046l-0.062,1.229H143.933z M145.331,82.35c0,0.169,0.031,0.338,0.062,0.492
				c0.261,0.938,1.044,1.583,2.027,1.583c1.414,0,2.258-1.152,2.258-2.858c0-1.49-0.768-2.765-2.212-2.765
				c-0.921,0-1.782,0.63-2.058,1.659c-0.031,0.154-0.077,0.338-0.077,0.553V82.35z"/>
			<path fill="#6C6C68" d="M152.738,74.424h1.352v10.907h-1.352V74.424z"/>
			<path fill="#6C6C68" d="M157.118,81.859c0.03,1.828,1.198,2.581,2.55,2.581c0.968,0,1.552-0.169,2.058-0.384l0.231,0.968
				c-0.476,0.215-1.29,0.461-2.473,0.461c-2.289,0-3.656-1.505-3.656-3.748c0-2.243,1.321-4.009,3.487-4.009
				c2.427,0,3.072,2.135,3.072,3.502c0,0.277-0.03,0.492-0.046,0.63H157.118z M161.081,80.891c0.015-0.86-0.353-2.196-1.874-2.196
				c-1.368,0-1.966,1.259-2.074,2.196H161.081z"/>
		</g>
	</g>
</g>
</svg>
