<?xml version="1.0" encoding="utf-8"?>
<!-- Generator: Adobe Illustrator 17.0.0, SVG Export Plug-In . SVG Version: 6.00 Build 0)  -->
<!DOCTYPE svg PUBLIC "-//W3C//DTD SVG 1.1//EN" "http://www.w3.org/Graphics/SVG/1.1/DTD/svg11.dtd">
<svg version="1.1" id="Capa_1" xmlns="http://www.w3.org/2000/svg" xmlns:xlink="http://www.w3.org/1999/xlink" x="0px" y="0px"
	 width="229px" height="114px" viewBox="0 0 229 114" enable-background="new 0 0 229 114" xml:space="preserve">
<g>
	<g>
		<rect x="14.655" y="80.55" fill="#6ABC9F" width="199.981" height="0.935"/>
		<g>
			<g>
				<path fill="#666666" d="M14.665,88.899l1.226-0.127c0.073,0.43,0.222,0.741,0.448,0.946c0.223,0.201,0.529,0.301,0.91,0.301
					c0.406,0,0.71-0.089,0.916-0.27c0.205-0.177,0.308-0.385,0.308-0.628c0-0.154-0.044-0.283-0.129-0.392
					c-0.087-0.106-0.237-0.201-0.455-0.28c-0.147-0.054-0.481-0.149-1.004-0.282c-0.674-0.177-1.147-0.386-1.418-0.64
					c-0.382-0.359-0.572-0.793-0.572-1.309c0-0.333,0.09-0.641,0.269-0.931C15.34,85,15.6,84.781,15.939,84.63
					c0.336-0.151,0.747-0.225,1.225-0.225c0.782,0,1.37,0.177,1.765,0.535c0.395,0.356,0.604,0.838,0.621,1.433l-1.259,0.057
					c-0.054-0.334-0.17-0.573-0.346-0.719c-0.175-0.146-0.442-0.219-0.797-0.219c-0.365,0-0.651,0.078-0.857,0.231
					c-0.133,0.1-0.199,0.234-0.199,0.404c0,0.152,0.063,0.28,0.186,0.392c0.159,0.139,0.545,0.28,1.154,0.435
					c0.612,0.151,1.066,0.309,1.358,0.468c0.295,0.16,0.524,0.382,0.688,0.661c0.167,0.279,0.25,0.622,0.25,1.034
					c0,0.374-0.1,0.722-0.298,1.045c-0.199,0.33-0.478,0.571-0.843,0.728c-0.365,0.158-0.814,0.233-1.356,0.233
					c-0.787,0-1.395-0.188-1.815-0.568C14.997,90.177,14.748,89.623,14.665,88.899z"/>
				<path fill="#666666" d="M20.783,85.662v-1.153h1.193v1.153H20.783z M20.783,91.012v-4.714h1.193v4.714H20.783z"/>
				<path fill="#666666" d="M22.782,89.668l1.2-0.185c0.051,0.24,0.156,0.424,0.312,0.549c0.156,0.125,0.375,0.189,0.658,0.189
					c0.312,0,0.544-0.063,0.701-0.179c0.106-0.082,0.157-0.195,0.157-0.334c0-0.094-0.026-0.173-0.084-0.231
					c-0.06-0.061-0.193-0.115-0.402-0.166c-0.964-0.222-1.576-0.427-1.835-0.608c-0.359-0.254-0.536-0.604-0.536-1.057
					c0-0.409,0.156-0.752,0.465-1.032c0.31-0.279,0.788-0.419,1.441-0.419c0.615,0,1.077,0.106,1.378,0.318
					c0.3,0.212,0.508,0.522,0.619,0.931l-1.127,0.216c-0.049-0.179-0.137-0.321-0.273-0.418c-0.133-0.095-0.326-0.145-0.575-0.145
					c-0.315,0-0.541,0.045-0.678,0.136c-0.09,0.066-0.134,0.148-0.134,0.255c0,0.087,0.039,0.161,0.122,0.227
					c0.107,0.082,0.478,0.198,1.116,0.346c0.637,0.154,1.08,0.336,1.333,0.556c0.249,0.222,0.373,0.535,0.373,0.929
					c0,0.433-0.172,0.801-0.518,1.113c-0.346,0.31-0.858,0.467-1.538,0.467c-0.615,0-1.103-0.128-1.462-0.388
					C23.128,90.469,22.895,90.116,22.782,89.668z"/>
				<path fill="#666666" d="M30.116,86.298v0.996h-0.817V89.2c0,0.383,0.007,0.607,0.024,0.673c0.017,0.063,0.05,0.116,0.107,0.155
					c0.056,0.042,0.122,0.064,0.203,0.064c0.11,0,0.272-0.04,0.482-0.119l0.103,0.963c-0.278,0.125-0.594,0.183-0.944,0.183
					c-0.217,0-0.412-0.034-0.582-0.113c-0.173-0.078-0.3-0.174-0.381-0.292c-0.08-0.119-0.136-0.28-0.169-0.485
					c-0.026-0.148-0.037-0.435-0.037-0.881v-2.057h-0.546v-0.995h0.546v-0.94l1.194-0.731v1.666h0.817L30.116,86.298L30.116,86.298z
					"/>
				<path fill="#666666" d="M33.575,89.513l1.19,0.209c-0.154,0.456-0.396,0.805-0.727,1.044c-0.33,0.237-0.745,0.358-1.242,0.358
					c-0.785,0-1.368-0.267-1.744-0.801c-0.298-0.431-0.448-0.969-0.448-1.624c0-0.783,0.196-1.394,0.588-1.836
					c0.392-0.438,0.887-0.662,1.486-0.662c0.672,0,1.203,0.23,1.592,0.692c0.389,0.462,0.572,1.171,0.559,2.125h-2.998
					c0.007,0.37,0.106,0.656,0.29,0.864c0.185,0.206,0.416,0.309,0.692,0.309c0.186,0,0.345-0.052,0.472-0.16
					C33.412,89.922,33.508,89.749,33.575,89.513z M33.636,88.251c-0.009-0.362-0.097-0.638-0.269-0.822
					c-0.172-0.189-0.376-0.28-0.619-0.28c-0.263,0-0.476,0.097-0.648,0.295c-0.172,0.198-0.255,0.467-0.252,0.807
					C31.848,88.251,33.636,88.251,33.636,88.251z"/>
				<path fill="#666666" d="M35.711,86.298h1.103v0.643c0.393-0.497,0.863-0.746,1.405-0.746c0.289,0,0.539,0.063,0.754,0.183
					c0.213,0.127,0.388,0.312,0.521,0.564c0.199-0.252,0.415-0.435,0.642-0.564c0.23-0.125,0.476-0.183,0.738-0.183
					c0.33,0,0.612,0.072,0.841,0.212c0.229,0.14,0.401,0.345,0.515,0.62c0.08,0.201,0.122,0.528,0.122,0.974v3.013h-1.194V88.32
					c0-0.467-0.039-0.77-0.122-0.902c-0.11-0.179-0.279-0.267-0.511-0.267c-0.167,0-0.323,0.052-0.471,0.161
					c-0.149,0.104-0.255,0.261-0.32,0.467c-0.064,0.207-0.096,0.532-0.096,0.974v2.265h-1.194v-2.58
					c0-0.459-0.023-0.755-0.063-0.889c-0.043-0.134-0.11-0.231-0.199-0.297c-0.09-0.066-0.213-0.098-0.366-0.098
					c-0.185,0-0.352,0.052-0.499,0.157c-0.149,0.103-0.253,0.252-0.319,0.447c-0.064,0.195-0.093,0.519-0.093,0.971v2.289h-1.196
					L35.711,86.298L35.711,86.298z"/>
				<path fill="#666666" d="M44.437,87.735l-1.084-0.203c0.122-0.455,0.33-0.793,0.629-1.01c0.298-0.219,0.742-0.331,1.33-0.331
					c0.534,0,0.933,0.069,1.193,0.197c0.262,0.131,0.448,0.298,0.552,0.5c0.107,0.204,0.162,0.577,0.162,1.116L47.2,89.462
					c0,0.416,0.019,0.717,0.057,0.916c0.037,0.195,0.11,0.407,0.215,0.632h-1.186c-0.031-0.081-0.07-0.203-0.116-0.365
					c-0.023-0.079-0.033-0.125-0.043-0.146c-0.205,0.209-0.422,0.362-0.655,0.465c-0.232,0.104-0.478,0.155-0.745,0.155
					c-0.465,0-0.831-0.128-1.1-0.395c-0.269-0.265-0.402-0.595-0.402-0.998c0-0.268,0.06-0.504,0.18-0.713
					c0.122-0.21,0.293-0.37,0.515-0.482c0.22-0.113,0.536-0.21,0.951-0.289c0.561-0.11,0.947-0.213,1.162-0.307v-0.127
					c0-0.237-0.057-0.409-0.172-0.509c-0.113-0.103-0.326-0.154-0.642-0.154c-0.212,0-0.378,0.04-0.499,0.13
					C44.608,87.364,44.512,87.519,44.437,87.735z M46.039,88.743c-0.153,0.055-0.396,0.121-0.728,0.194
					c-0.333,0.076-0.549,0.146-0.652,0.218c-0.157,0.118-0.236,0.264-0.236,0.44c0,0.177,0.063,0.33,0.187,0.456
					c0.123,0.127,0.283,0.192,0.478,0.192c0.216,0,0.418-0.075,0.615-0.225c0.144-0.113,0.239-0.252,0.286-0.415
					c0.03-0.107,0.046-0.312,0.046-0.61L46.039,88.743L46.039,88.743z"/>
				<path fill="#666666" d="M54.955,91.012h-1.112v-0.689c-0.185,0.271-0.402,0.471-0.654,0.601c-0.25,0.131-0.504,0.197-0.76,0.197
					c-0.518,0-0.961-0.218-1.333-0.653c-0.369-0.434-0.556-1.044-0.556-1.826c0-0.796,0.18-1.405,0.539-1.82
					c0.362-0.418,0.817-0.626,1.369-0.626c0.505,0,0.943,0.221,1.31,0.658v-2.343h1.193L54.955,91.012L54.955,91.012z
					 M51.767,88.556c0,0.5,0.067,0.867,0.2,1.09c0.193,0.328,0.462,0.489,0.807,0.489c0.276,0,0.511-0.127,0.704-0.37
					c0.193-0.242,0.289-0.607,0.289-1.095c0-0.538-0.093-0.931-0.279-1.169c-0.187-0.237-0.426-0.358-0.718-0.358
					c-0.282,0-0.519,0.119-0.711,0.353C51.862,87.734,51.767,88.086,51.767,88.556z"/>
				<path fill="#666666" d="M58.753,89.513l1.19,0.209c-0.153,0.456-0.395,0.805-0.725,1.044c-0.33,0.237-0.745,0.358-1.24,0.358
					c-0.787,0-1.369-0.267-1.745-0.801c-0.299-0.431-0.448-0.969-0.448-1.624c0-0.783,0.196-1.394,0.588-1.836
					c0.391-0.438,0.888-0.662,1.486-0.662c0.672,0,1.202,0.23,1.592,0.692c0.388,0.462,0.572,1.171,0.558,2.125h-2.997
					c0.009,0.37,0.106,0.656,0.29,0.864c0.185,0.206,0.415,0.309,0.691,0.309c0.187,0,0.346-0.052,0.473-0.16
					C58.591,89.922,58.687,89.749,58.753,89.513z M58.816,88.251c-0.009-0.362-0.097-0.638-0.269-0.822
					c-0.17-0.189-0.376-0.28-0.619-0.28c-0.263,0-0.478,0.097-0.649,0.295c-0.172,0.198-0.255,0.467-0.25,0.807
					C57.028,88.251,58.816,88.251,58.816,88.251z"/>
				<path fill="#666666" d="M68.702,91.012h-1.368l-0.539-1.474h-2.493l-0.515,1.474h-1.336l2.42-6.506h1.343L68.702,91.012z
					 M66.391,88.441l-0.863-2.415l-0.843,2.415H66.391z"/>
				<path fill="#666666" d="M73.31,87.695l-1.183,0.221c-0.039-0.242-0.129-0.431-0.269-0.552c-0.14-0.127-0.323-0.185-0.548-0.185
					c-0.298,0-0.536,0.107-0.714,0.322c-0.176,0.216-0.268,0.576-0.268,1.078c0,0.559,0.09,0.955,0.269,1.187
					c0.179,0.23,0.422,0.343,0.725,0.343c0.227,0,0.415-0.067,0.559-0.201c0.146-0.133,0.247-0.364,0.309-0.691l1.176,0.209
					c-0.122,0.561-0.358,0.986-0.704,1.269c-0.346,0.286-0.808,0.433-1.39,0.433c-0.661,0-1.189-0.218-1.582-0.65
					c-0.392-0.434-0.589-1.04-0.589-1.809c0-0.777,0.197-1.384,0.591-1.815c0.395-0.433,0.928-0.652,1.598-0.652
					c0.554,0,0.99,0.125,1.312,0.373C72.932,86.812,73.167,87.186,73.31,87.695z"/>
				<path fill="#666666" d="M78.152,87.695l-1.179,0.221c-0.04-0.242-0.129-0.431-0.27-0.552c-0.14-0.127-0.322-0.185-0.546-0.185
					c-0.298,0-0.536,0.107-0.714,0.322c-0.177,0.216-0.268,0.576-0.268,1.078c0,0.559,0.089,0.955,0.269,1.187
					c0.179,0.23,0.422,0.343,0.727,0.343c0.227,0,0.413-0.067,0.558-0.201c0.146-0.133,0.249-0.364,0.31-0.691l1.174,0.209
					c-0.122,0.561-0.358,0.986-0.704,1.269c-0.346,0.286-0.808,0.433-1.392,0.433c-0.661,0-1.187-0.218-1.579-0.65
					c-0.393-0.434-0.589-1.04-0.589-1.809c0-0.777,0.196-1.384,0.591-1.815c0.395-0.433,0.928-0.652,1.599-0.652
					c0.552,0,0.987,0.125,1.312,0.373C77.776,86.82,78.011,87.186,78.152,87.695z"/>
				<path fill="#666666" d="M81.678,89.513l1.19,0.209c-0.153,0.456-0.395,0.805-0.725,1.044c-0.33,0.237-0.745,0.358-1.242,0.358
					c-0.787,0-1.368-0.267-1.745-0.801c-0.298-0.431-0.448-0.969-0.448-1.624c0-0.783,0.196-1.394,0.588-1.836
					c0.391-0.438,0.887-0.662,1.486-0.662c0.671,0,1.202,0.23,1.592,0.692c0.391,0.462,0.572,1.171,0.558,2.125h-2.998
					c0.01,0.37,0.106,0.656,0.29,0.864c0.183,0.206,0.415,0.309,0.691,0.309c0.187,0,0.345-0.052,0.471-0.16
					C81.518,89.922,81.614,89.749,81.678,89.513z M81.744,88.251c-0.011-0.362-0.097-0.638-0.269-0.822
					c-0.172-0.189-0.378-0.28-0.621-0.28c-0.263,0-0.476,0.097-0.648,0.295c-0.172,0.198-0.255,0.467-0.253,0.807
					C79.953,88.251,81.744,88.251,81.744,88.251z"/>
				<path fill="#666666" d="M83.482,89.668l1.2-0.185c0.051,0.24,0.154,0.424,0.312,0.549c0.154,0.125,0.373,0.189,0.655,0.189
					c0.313,0,0.545-0.063,0.702-0.179c0.106-0.082,0.157-0.195,0.157-0.334c0-0.094-0.027-0.173-0.084-0.231
					c-0.06-0.061-0.193-0.115-0.401-0.166c-0.966-0.222-1.579-0.427-1.835-0.608c-0.359-0.254-0.536-0.604-0.536-1.057
					c0-0.409,0.156-0.752,0.465-1.032c0.309-0.279,0.788-0.419,1.439-0.419c0.617,0,1.077,0.106,1.379,0.318
					c0.3,0.212,0.508,0.522,0.619,0.931l-1.126,0.216c-0.05-0.179-0.14-0.321-0.273-0.418c-0.134-0.095-0.326-0.145-0.575-0.145
					c-0.318,0-0.541,0.045-0.678,0.136c-0.09,0.066-0.136,0.148-0.136,0.255c0,0.087,0.039,0.161,0.12,0.227
					c0.109,0.082,0.479,0.198,1.116,0.346c0.637,0.154,1.081,0.336,1.333,0.556c0.25,0.222,0.372,0.535,0.372,0.929
					c0,0.433-0.172,0.801-0.516,1.113c-0.346,0.31-0.858,0.467-1.539,0.467c-0.614,0-1.103-0.128-1.461-0.388
					C83.827,90.469,83.592,90.116,83.482,89.668z"/>
				<path fill="#666666" d="M88.472,88.591c0-0.413,0.097-0.814,0.295-1.199c0.195-0.386,0.472-0.686,0.831-0.892
					c0.358-0.204,0.76-0.304,1.2-0.304c0.684,0,1.245,0.231,1.682,0.694c0.436,0.462,0.655,1.047,0.655,1.757
					c0,0.711-0.22,1.302-0.661,1.772c-0.441,0.47-0.997,0.702-1.664,0.702c-0.416,0-0.81-0.095-1.184-0.292
					c-0.378-0.192-0.662-0.482-0.858-0.856C88.571,89.592,88.472,89.131,88.472,88.591z M89.698,88.658
					c0,0.468,0.106,0.826,0.319,1.075c0.213,0.249,0.473,0.374,0.787,0.374c0.312,0,0.572-0.125,0.785-0.374
					c0.21-0.249,0.316-0.608,0.316-1.084c0-0.465-0.106-0.82-0.316-1.066c-0.213-0.249-0.474-0.376-0.785-0.376
					c-0.313,0-0.574,0.127-0.787,0.376C89.804,87.829,89.698,88.189,89.698,88.658z"/>
				<path fill="#666666" d="M97.385,87.735L96.3,87.532c0.122-0.455,0.333-0.793,0.631-1.01c0.299-0.219,0.742-0.331,1.33-0.331
					c0.534,0,0.93,0.069,1.193,0.197c0.262,0.131,0.445,0.298,0.551,0.5c0.109,0.204,0.162,0.577,0.162,1.116l-0.02,1.459
					c0,0.416,0.021,0.717,0.059,0.916c0.037,0.195,0.11,0.407,0.216,0.632h-1.184c-0.03-0.081-0.07-0.203-0.117-0.365
					c-0.02-0.079-0.031-0.125-0.043-0.146c-0.203,0.209-0.419,0.362-0.655,0.465c-0.232,0.104-0.479,0.155-0.744,0.155
					c-0.465,0-0.831-0.128-1.1-0.395c-0.269-0.265-0.402-0.595-0.402-0.998c0-0.268,0.063-0.504,0.183-0.713
					c0.119-0.21,0.292-0.37,0.512-0.482c0.222-0.113,0.536-0.21,0.953-0.289c0.559-0.11,0.948-0.213,1.162-0.307v-0.127
					c0-0.237-0.059-0.409-0.172-0.509c-0.116-0.103-0.329-0.154-0.645-0.154c-0.212,0-0.378,0.04-0.496,0.13
					C97.554,87.364,97.458,87.519,97.385,87.735z M98.988,88.743c-0.154,0.055-0.399,0.121-0.728,0.194
					c-0.332,0.076-0.549,0.146-0.655,0.218c-0.156,0.118-0.233,0.264-0.233,0.44c0,0.177,0.063,0.33,0.186,0.456
					c0.124,0.127,0.285,0.192,0.478,0.192c0.216,0,0.421-0.075,0.617-0.225c0.144-0.113,0.24-0.252,0.286-0.415
					c0.03-0.107,0.047-0.312,0.047-0.61L98.988,88.743L98.988,88.743z"/>
				<path fill="#666666" d="M103.757,91.012v-6.506h1.193v6.506H103.757z"/>
				<path fill="#666666" d="M107.074,87.735l-1.087-0.203c0.123-0.455,0.332-0.793,0.629-1.01c0.299-0.219,0.742-0.331,1.33-0.331
					c0.535,0,0.933,0.069,1.196,0.197c0.262,0.131,0.446,0.298,0.551,0.5c0.106,0.204,0.16,0.577,0.16,1.116l-0.019,1.459
					c0,0.416,0.019,0.72,0.057,0.916c0.037,0.195,0.109,0.407,0.215,0.632h-1.186c-0.03-0.081-0.069-0.203-0.114-0.365
					c-0.021-0.079-0.034-0.125-0.043-0.146c-0.205,0.209-0.422,0.362-0.655,0.465c-0.232,0.104-0.481,0.155-0.745,0.155
					c-0.465,0-0.83-0.128-1.1-0.395c-0.269-0.265-0.402-0.595-0.402-0.998c0-0.268,0.062-0.504,0.183-0.713
					c0.122-0.21,0.292-0.37,0.512-0.482c0.222-0.113,0.536-0.21,0.951-0.289c0.561-0.11,0.947-0.213,1.162-0.307v-0.127
					c0-0.237-0.057-0.409-0.172-0.509c-0.114-0.103-0.328-0.154-0.642-0.154c-0.215,0-0.379,0.04-0.501,0.13
					C107.243,87.364,107.147,87.519,107.074,87.735z M108.672,88.743c-0.153,0.055-0.396,0.121-0.728,0.194
					c-0.33,0.073-0.551,0.146-0.651,0.218c-0.157,0.118-0.235,0.264-0.235,0.44c0,0.177,0.064,0.33,0.187,0.456
					s0.283,0.192,0.475,0.192c0.217,0,0.421-0.075,0.618-0.225c0.144-0.113,0.239-0.252,0.285-0.415
					c0.03-0.107,0.047-0.312,0.047-0.61L108.672,88.743L108.672,88.743z"/>
				<path fill="#666666" d="M113.416,91.012v-6.506h1.262v6.506H113.416z"/>
				<path fill="#666666" d="M119.973,91.012h-1.194v-2.403c0-0.51-0.026-0.84-0.076-0.992c-0.052-0.149-0.134-0.265-0.252-0.345
					c-0.114-0.082-0.252-0.128-0.416-0.128c-0.209,0-0.395,0.06-0.559,0.179c-0.167,0.118-0.279,0.276-0.34,0.471
					c-0.062,0.191-0.09,0.553-0.09,1.083v2.134h-1.193v-4.714h1.112v0.691c0.395-0.532,0.891-0.793,1.488-0.793
					c0.268,0,0.506,0.048,0.724,0.149c0.219,0.097,0.382,0.227,0.496,0.38c0.113,0.154,0.192,0.33,0.235,0.525
					c0.041,0.194,0.067,0.474,0.067,0.84L119.973,91.012L119.973,91.012z"/>
				<path fill="#666666" d="M120.667,86.298h0.664v-0.35c0-0.398,0.039-0.692,0.123-0.89c0.08-0.194,0.229-0.35,0.446-0.476
					c0.219-0.124,0.492-0.182,0.824-0.182c0.339,0,0.672,0.054,1.001,0.158l-0.162,0.864c-0.192-0.046-0.375-0.073-0.554-0.073
					c-0.172,0-0.296,0.043-0.372,0.128c-0.074,0.085-0.113,0.246-0.113,0.485v0.333h0.895v0.981h-0.895v3.735h-1.194v-3.735h-0.664
					L120.667,86.298L120.667,86.298z"/>
				<path fill="#666666" d="M123.813,88.591c0-0.413,0.097-0.814,0.292-1.199c0.197-0.386,0.474-0.686,0.833-0.892
					c0.36-0.204,0.76-0.304,1.2-0.304c0.684,0,1.245,0.231,1.681,0.694c0.436,0.462,0.655,1.047,0.655,1.757
					c0,0.711-0.222,1.302-0.661,1.772c-0.442,0.47-0.997,0.702-1.665,0.702c-0.416,0-0.808-0.095-1.183-0.292
					c-0.375-0.192-0.662-0.482-0.858-0.856C123.91,89.592,123.813,89.131,123.813,88.591z M125.036,88.658
					c0,0.468,0.107,0.826,0.319,1.075c0.215,0.249,0.474,0.374,0.788,0.374c0.312,0,0.571-0.125,0.782-0.374
					c0.212-0.249,0.319-0.608,0.319-1.084c0-0.465-0.106-0.82-0.319-1.066c-0.21-0.249-0.471-0.376-0.782-0.376
					c-0.315,0-0.572,0.127-0.788,0.376C125.142,87.829,125.036,88.189,125.036,88.658z"/>
				<path fill="#666666" d="M130.552,91.012h-1.196v-4.714h1.112v0.671c0.192-0.319,0.365-0.526,0.515-0.626
					c0.152-0.1,0.322-0.149,0.515-0.149c0.27,0,0.532,0.078,0.785,0.233l-0.368,1.087c-0.2-0.134-0.388-0.203-0.565-0.203
					c-0.17,0-0.31,0.048-0.426,0.142c-0.117,0.095-0.207,0.273-0.272,0.525c-0.067,0.251-0.099,0.78-0.099,1.581v1.456h-0.001
					V91.012z"/>
				<path fill="#666666" d="M132.712,86.298h1.103v0.643c0.393-0.497,0.863-0.746,1.405-0.746c0.289,0,0.539,0.063,0.752,0.183
					c0.213,0.127,0.386,0.312,0.521,0.564c0.199-0.252,0.416-0.435,0.642-0.564c0.23-0.125,0.474-0.183,0.737-0.183
					c0.33,0,0.614,0.072,0.841,0.212c0.23,0.14,0.403,0.345,0.515,0.62c0.083,0.201,0.122,0.528,0.122,0.974v3.013h-1.193V88.32
					c0-0.467-0.04-0.77-0.123-0.902c-0.112-0.179-0.279-0.267-0.511-0.267c-0.167,0-0.325,0.052-0.471,0.161
					c-0.147,0.104-0.256,0.261-0.319,0.467c-0.063,0.207-0.097,0.532-0.097,0.974v2.265h-1.196v-2.58
					c0-0.459-0.021-0.755-0.064-0.889c-0.041-0.134-0.109-0.231-0.199-0.297c-0.087-0.066-0.21-0.098-0.365-0.098
					c-0.183,0-0.352,0.052-0.499,0.157c-0.147,0.103-0.253,0.252-0.32,0.447c-0.066,0.195-0.096,0.519-0.096,0.971v2.289h-1.194
					L132.712,86.298L132.712,86.298z"/>
				<path fill="#666666" d="M141.444,87.735l-1.087-0.203c0.122-0.455,0.332-0.793,0.631-1.01c0.296-0.219,0.74-0.331,1.328-0.331
					c0.535,0,0.934,0.069,1.196,0.197c0.263,0.131,0.446,0.298,0.555,0.5c0.106,0.204,0.159,0.577,0.159,1.116l-0.02,1.459
					c0,0.416,0.02,0.717,0.057,0.916c0.037,0.195,0.11,0.407,0.216,0.632h-1.184c-0.031-0.081-0.073-0.203-0.117-0.365
					c-0.02-0.079-0.031-0.125-0.041-0.146c-0.207,0.209-0.421,0.362-0.655,0.465c-0.23,0.104-0.482,0.155-0.745,0.155
					c-0.463,0-0.83-0.128-1.099-0.395c-0.269-0.265-0.405-0.595-0.405-0.998c0-0.268,0.066-0.504,0.185-0.713
					c0.123-0.21,0.292-0.37,0.515-0.482c0.219-0.113,0.535-0.21,0.951-0.289c0.558-0.11,0.944-0.213,1.16-0.307v-0.127
					c0-0.237-0.057-0.409-0.172-0.509c-0.116-0.103-0.325-0.154-0.642-0.154c-0.215,0-0.379,0.04-0.501,0.13
					C141.612,87.364,141.517,87.519,141.444,87.735z M143.041,88.743c-0.152,0.055-0.395,0.121-0.728,0.194
					c-0.33,0.073-0.549,0.146-0.651,0.218c-0.159,0.118-0.233,0.264-0.233,0.44c0,0.177,0.062,0.33,0.186,0.456
					c0.123,0.127,0.28,0.192,0.475,0.192c0.217,0,0.421-0.075,0.617-0.225c0.144-0.113,0.239-0.252,0.285-0.415
					c0.03-0.107,0.046-0.312,0.046-0.61L143.041,88.743L143.041,88.743z"/>
				<path fill="#666666" d="M149.336,87.695l-1.18,0.221c-0.039-0.242-0.13-0.431-0.269-0.552c-0.143-0.127-0.325-0.185-0.551-0.185
					c-0.3,0-0.536,0.107-0.712,0.322c-0.177,0.216-0.269,0.576-0.269,1.078c0,0.559,0.09,0.955,0.269,1.187
					c0.182,0.23,0.422,0.343,0.728,0.343c0.223,0,0.413-0.067,0.559-0.201c0.146-0.133,0.247-0.364,0.308-0.691l1.174,0.209
					c-0.123,0.561-0.356,0.986-0.701,1.269c-0.348,0.286-0.808,0.433-1.395,0.433c-0.661,0-1.189-0.218-1.581-0.65
					c-0.392-0.434-0.589-1.04-0.589-1.809c0-0.777,0.197-1.384,0.592-1.815c0.392-0.433,0.927-0.652,1.598-0.652
					c0.551,0,0.988,0.125,1.315,0.373C148.958,86.812,149.193,87.186,149.336,87.695z"/>
				<path fill="#666666" d="M150.238,85.662v-1.153h1.194v1.153H150.238z M150.238,91.012v-4.714h1.194v4.714H150.238z"/>
				<path fill="#666666" d="M152.381,88.591c0-0.413,0.097-0.814,0.293-1.199c0.196-0.386,0.474-0.686,0.831-0.892
					c0.359-0.204,0.758-0.304,1.2-0.304c0.685,0,1.246,0.231,1.682,0.694c0.438,0.462,0.658,1.047,0.658,1.757
					c0,0.711-0.22,1.302-0.662,1.772c-0.441,0.47-0.997,0.702-1.664,0.702c-0.416,0-0.808-0.095-1.187-0.292
					c-0.373-0.192-0.661-0.482-0.857-0.856C152.48,89.592,152.381,89.131,152.381,88.591z M153.607,88.658
					c0,0.468,0.107,0.826,0.319,1.075c0.212,0.249,0.475,0.374,0.785,0.374c0.315,0,0.572-0.125,0.787-0.374
					c0.21-0.249,0.316-0.608,0.316-1.084c0-0.465-0.104-0.82-0.316-1.066c-0.213-0.249-0.472-0.376-0.787-0.376
					c-0.31,0-0.572,0.127-0.785,0.376C153.714,87.829,153.607,88.189,153.607,88.658z M154.167,85.691l0.588-1.324h1.335
					l-1.166,1.324H154.167z"/>
				<path fill="#666666" d="M162.089,91.012h-1.193v-2.403c0-0.51-0.024-0.84-0.074-0.992c-0.053-0.149-0.136-0.265-0.252-0.345
					c-0.116-0.082-0.255-0.128-0.418-0.128c-0.207,0-0.392,0.06-0.558,0.179c-0.167,0.118-0.278,0.276-0.34,0.471
					c-0.063,0.191-0.09,0.553-0.09,1.083v2.134h-1.196v-4.714h1.111v0.691c0.392-0.532,0.89-0.793,1.488-0.793
					c0.267,0,0.508,0.048,0.724,0.149c0.22,0.097,0.383,0.227,0.496,0.38c0.113,0.154,0.19,0.33,0.233,0.525
					c0.043,0.194,0.066,0.474,0.066,0.84L162.089,91.012L162.089,91.012z"/>
				<path fill="#666666" d="M165.719,91.012v-6.506h1.887l1.127,4.438l1.113-4.438h1.888v6.506h-1.164l-0.003-5.12l-1.236,5.12
					h-1.213l-1.232-5.12l-0.003,5.12H165.719z"/>
				<path fill="#666666" d="M175.601,89.513l1.19,0.209c-0.153,0.456-0.393,0.805-0.725,1.044c-0.328,0.237-0.745,0.358-1.243,0.358
					c-0.785,0-1.366-0.267-1.742-0.801c-0.299-0.431-0.448-0.969-0.448-1.624c0-0.783,0.197-1.394,0.588-1.836
					c0.392-0.438,0.885-0.662,1.486-0.662c0.672,0,1.203,0.23,1.594,0.692c0.388,0.462,0.574,1.171,0.561,2.125h-2.998
					c0.007,0.37,0.106,0.656,0.289,0.864c0.182,0.206,0.416,0.309,0.691,0.309c0.189,0,0.345-0.052,0.471-0.16
					C175.442,89.922,175.538,89.749,175.601,89.513z M175.668,88.251c-0.013-0.362-0.1-0.638-0.269-0.822
					c-0.172-0.189-0.378-0.28-0.618-0.28c-0.265,0-0.478,0.097-0.651,0.295c-0.172,0.198-0.255,0.467-0.25,0.807
					C173.88,88.251,175.668,88.251,175.668,88.251z"/>
				<path fill="#666666" d="M177.253,91.012l1.629-2.425l-1.562-2.286h1.459l0.801,1.298l0.848-1.298h1.399l-1.531,2.234
					l1.671,2.477h-1.462l-0.924-1.46l-0.924,1.46H177.253L177.253,91.012z"/>
				<path fill="#666666" d="M182.671,85.662v-1.153h1.197v1.153H182.671z M182.671,91.012v-4.714h1.197v4.714H182.671z"/>
				<path fill="#666666" d="M188.048,92.803v-2.368c-0.156,0.213-0.352,0.38-0.584,0.501c-0.232,0.124-0.484,0.182-0.752,0.182
					c-0.514,0-0.937-0.201-1.267-0.604c-0.392-0.47-0.588-1.105-0.588-1.912c0-0.756,0.183-1.35,0.551-1.772
					c0.368-0.425,0.823-0.64,1.368-0.64c0.3,0,0.562,0.069,0.78,0.2c0.22,0.128,0.416,0.333,0.585,0.6v-0.696h1.103V92.8
					L188.048,92.803L188.048,92.803z M188.084,88.6c0-0.486-0.093-0.844-0.282-1.078c-0.189-0.234-0.422-0.352-0.707-0.352
					c-0.288,0-0.528,0.119-0.722,0.359c-0.195,0.237-0.29,0.62-0.29,1.142c0,0.518,0.092,0.892,0.279,1.122
					c0.186,0.228,0.416,0.342,0.691,0.342s0.514-0.128,0.721-0.386S188.084,89.11,188.084,88.6z"/>
				<path fill="#666666" d="M193.384,91.012v-0.704c-0.163,0.252-0.379,0.45-0.647,0.594c-0.269,0.143-0.549,0.218-0.845,0.218
					c-0.308,0-0.575-0.069-0.815-0.209c-0.242-0.14-0.416-0.333-0.522-0.588c-0.107-0.252-0.162-0.598-0.162-1.044v-2.986h1.194
					v2.166c0,0.664,0.026,1.071,0.067,1.218c0.043,0.149,0.123,0.268,0.24,0.355c0.117,0.086,0.268,0.128,0.443,0.128
					c0.207,0,0.388-0.058,0.549-0.174c0.162-0.122,0.269-0.262,0.33-0.435c0.062-0.174,0.09-0.595,0.09-1.272v-1.99h1.196v4.716
					L193.384,91.012L193.384,91.012z"/>
				<path fill="#666666" d="M198.358,89.513l1.19,0.209c-0.153,0.456-0.398,0.805-0.727,1.044c-0.329,0.239-0.744,0.358-1.242,0.358
					c-0.785,0-1.366-0.267-1.744-0.801c-0.298-0.431-0.448-0.969-0.448-1.624c0-0.783,0.196-1.394,0.587-1.836
					c0.392-0.438,0.887-0.662,1.486-0.662c0.672,0,1.203,0.23,1.591,0.692c0.388,0.462,0.572,1.171,0.558,2.125h-2.997
					c0.007,0.37,0.104,0.656,0.29,0.864c0.183,0.206,0.415,0.309,0.689,0.309c0.189,0,0.346-0.052,0.473-0.16
					C198.196,89.922,198.292,89.749,198.358,89.513z M198.422,88.251c-0.011-0.362-0.097-0.638-0.269-0.822
					c-0.172-0.189-0.378-0.28-0.621-0.28c-0.262,0-0.478,0.097-0.648,0.295c-0.172,0.198-0.256,0.467-0.25,0.807
					C196.634,88.251,198.422,88.251,198.422,88.251z"/>
				<path fill="#666666" d="M204.691,91.012h-1.194v-2.403c0-0.51-0.026-0.84-0.074-0.992c-0.051-0.149-0.136-0.265-0.252-0.345
					c-0.116-0.082-0.253-0.128-0.418-0.128c-0.207,0-0.392,0.06-0.558,0.179c-0.167,0.118-0.276,0.276-0.339,0.471
					c-0.062,0.191-0.092,0.553-0.092,1.083v2.134h-1.194v-4.714h1.111v0.691c0.395-0.532,0.891-0.793,1.491-0.793
					c0.263,0,0.506,0.048,0.72,0.149c0.22,0.097,0.386,0.227,0.499,0.38c0.11,0.154,0.187,0.33,0.233,0.525
					c0.041,0.194,0.064,0.474,0.064,0.84v2.928h0.003V91.012z"/>
				<path fill="#666666" d="M205.483,89.668l1.202-0.185c0.05,0.24,0.153,0.424,0.312,0.549c0.156,0.125,0.376,0.189,0.658,0.189
					c0.31,0,0.544-0.063,0.7-0.179c0.106-0.082,0.159-0.195,0.159-0.334c0-0.094-0.027-0.173-0.084-0.231
					c-0.059-0.061-0.193-0.115-0.401-0.166c-0.966-0.222-1.579-0.427-1.838-0.608c-0.358-0.254-0.535-0.604-0.535-1.057
					c0-0.409,0.155-0.752,0.465-1.032c0.309-0.279,0.791-0.419,1.439-0.419c0.619,0,1.077,0.106,1.38,0.318
					c0.302,0.212,0.509,0.522,0.621,0.931l-1.127,0.216c-0.047-0.179-0.14-0.321-0.27-0.418c-0.134-0.095-0.328-0.145-0.576-0.145
					c-0.316,0-0.542,0.045-0.677,0.136c-0.09,0.066-0.137,0.148-0.137,0.255c0,0.087,0.04,0.161,0.12,0.227
					c0.112,0.082,0.482,0.198,1.119,0.346c0.632,0.154,1.081,0.336,1.332,0.556c0.252,0.222,0.375,0.535,0.375,0.929
					c0,0.433-0.17,0.801-0.518,1.113c-0.345,0.31-0.858,0.467-1.536,0.467c-0.615,0-1.103-0.128-1.461-0.388
					C205.829,90.469,205.593,90.116,205.483,89.668z"/>
				<path fill="#666666" d="M213.37,89.513l1.19,0.209c-0.152,0.456-0.393,0.805-0.724,1.044c-0.33,0.237-0.745,0.358-1.243,0.358
					c-0.787,0-1.369-0.267-1.744-0.801c-0.298-0.431-0.448-0.969-0.448-1.624c0-0.783,0.197-1.394,0.585-1.836
					c0.392-0.438,0.888-0.662,1.488-0.662c0.674,0,1.202,0.23,1.592,0.692c0.388,0.462,0.574,1.171,0.561,2.125h-2.998
					c0.007,0.37,0.103,0.656,0.288,0.864c0.185,0.206,0.416,0.309,0.692,0.309c0.186,0,0.345-0.052,0.472-0.16
					C213.209,89.922,213.305,89.749,213.37,89.513z M213.432,88.251c-0.009-0.362-0.097-0.638-0.268-0.822
					c-0.173-0.189-0.379-0.28-0.622-0.28c-0.262,0-0.475,0.097-0.647,0.295c-0.17,0.198-0.255,0.467-0.25,0.807
					C211.646,88.251,213.432,88.251,213.432,88.251z"/>
			</g>
		</g>
	</g>
	<g>
		<g>
			<ellipse fill="#6ABC9F" cx="94.856" cy="28.187" rx="6.705" ry="6.99"/>
			
				<radialGradient id="SVGID_1_" cx="511.1082" cy="1227.8419" r="4.6515" gradientTransform="matrix(0.9289 0 0 0.9685 -378.7452 -1164.2766)" gradientUnits="userSpaceOnUse">
				<stop  offset="0" style="stop-color:#FFFFFF"/>
				<stop  offset="0.75" style="stop-color:#FFFFFF;stop-opacity:0"/>
			</radialGradient>
			<ellipse fill="url(#SVGID_1_)" cx="94.856" cy="28.187" rx="5.935" ry="6.188"/>
			
				<linearGradient id="SVGID_2_" gradientUnits="userSpaceOnUse" x1="472.8563" y1="1206.3751" x2="472.8563" y2="1193.9993" gradientTransform="matrix(1 0 0 1 -378 -1172)">
				<stop  offset="0" style="stop-color:#FFFFFF"/>
				<stop  offset="0.8589" style="stop-color:#FFFFFF;stop-opacity:0"/>
			</linearGradient>
			<ellipse fill="url(#SVGID_2_)" cx="94.856" cy="28.187" rx="5.935" ry="6.188"/>
			<polygon opacity="0.1" fill="#6ABC9F" enable-background="new    " points="113.09,42.961 112.294,43.905 116.015,46.041 
				99.849,76.913 120.63,49.257 			"/>
			<polygon opacity="0.3" fill="#6ABC9F" enable-background="new    " points="99.849,76.913 116.015,46.041 112.294,43.905 
				107.489,41.145 106.87,42.211 110.905,43.671 109.693,46.99 			"/>
			<polygon opacity="0.5" fill="#6ABC9F" enable-background="new    " points="106.87,42.211 101.657,40.323 101.232,41.479 
				105.463,42.221 104.847,45.698 103.268,54.608 99.849,76.913 109.693,46.99 110.905,43.671 			"/>
			<polygon opacity="0.1" fill="#6ABC9F" enable-background="new    " points="76.979,42.961 77.777,43.905 74.057,46.041 
				90.221,76.913 69.44,49.257 			"/>
			<polygon opacity="0.3" fill="#6ABC9F" enable-background="new    " points="90.221,76.913 74.057,46.041 77.777,43.905 
				82.583,41.145 83.201,42.211 79.164,43.671 80.377,46.99 			"/>
			<polygon opacity="0.5" fill="#6ABC9F" enable-background="new    " points="83.201,42.211 88.415,40.323 88.838,41.479 
				84.608,42.221 85.225,45.698 86.803,54.608 90.221,76.913 80.377,46.99 79.164,43.671 			"/>
			<polygon opacity="0.7" fill="#6ABC9F" enable-background="new    " points="101.232,41.479 95.768,40.52 95.035,44.657 
				94.303,40.52 88.838,41.479 84.608,42.221 85.225,45.698 86.803,54.608 90.221,76.913 95.035,76.068 99.849,76.913 
				103.268,54.608 104.847,45.698 105.463,42.221 			"/>
			<g>
				<path fill="#6ABC9F" d="M90.221,76.913V38.128h9.629v38.786H90.221z"/>
			</g>
			<g enable-background="new    ">
				<g>
					
						<linearGradient id="SVGID_3_" gradientUnits="userSpaceOnUse" x1="472.9951" y1="1248.1111" x2="472.9951" y2="1210.924" gradientTransform="matrix(1 0 0 1 -378 -1172)">
						<stop  offset="0" style="stop-color:#FFFFFF"/>
						<stop  offset="0.0896" style="stop-color:#FFFFFF;stop-opacity:0.9104"/>
						<stop  offset="1" style="stop-color:#FFFFFF;stop-opacity:0"/>
					</linearGradient>
					<path fill="url(#SVGID_3_)" d="M91.085,76.111V38.924h7.819v37.187H91.085z"/>
				</g>
			</g>
		</g>
		<g>
			<path fill="#666666" d="M79.116,76.913H71.57l-3.001-8.136H54.834L52,76.913h-7.36l13.382-35.821h7.334L79.116,76.913z
				 M66.343,62.74L61.61,49.45l-4.639,13.29H66.343z"/>
			<path fill="#666666" d="M113.662,76.913V41.092h10.383l6.233,24.435l6.164-24.435h10.404v35.821h-6.443V48.717l-6.819,28.195
				h-6.68l-6.795-28.195v28.195h-6.446V76.913z"/>
			<path fill="#666666" d="M153.736,76.913V41.092h25.476v6.06h-18.538v7.939h17.248v6.036h-17.248v9.748h19.19v6.037h-26.128
				V76.913z"/>
			<path fill="#666666" d="M182.256,76.913l11.74-18.692l-10.639-17.128h8.108l6.889,11.508l6.746-11.509h8.038l-10.687,17.396
				l11.74,18.424h-8.366l-7.617-12.389l-7.639,12.389h-8.317L182.256,76.913L182.256,76.913z"/>
			<path fill="#666666" d="M40.929,60.773c-0.913-1.539-2.18-2.753-3.797-3.641c-1.616-0.889-4.113-1.748-7.487-2.579
				c-3.375-0.829-5.499-1.626-6.374-2.392c-0.688-0.601-1.031-1.327-1.031-2.174c0-0.929,0.366-1.67,1.103-2.224
				c1.14-0.864,2.718-1.295,4.732-1.295h13.242v-5.987H28.145c-2.641,0-4.894,0.416-6.762,1.247
				c-1.867,0.832-3.297,2.04-4.287,3.629c-0.993,1.587-1.491,3.295-1.491,5.119c0,2.835,1.053,5.236,3.163,7.208
				c1.499,1.4,4.11,2.579,7.826,3.544c2.891,0.747,4.742,1.271,5.558,1.562c1.186,0.437,2.018,0.956,2.493,1.553
				c0.476,0.592,0.715,1.314,0.715,2.163c0,1.32-0.566,2.473-1.699,3.457s-2.817,1.477-5.05,1.477H14.365v6.106h14.179
				c2.984,0,5.476-0.433,7.473-1.305c2-0.871,3.549-2.203,4.641-3.994c1.093-1.791,1.641-3.712,1.641-5.766
				C42.299,64.216,41.842,62.312,40.929,60.773z"/>
		</g>
		<g>
			
				<linearGradient id="SVGID_4_" gradientUnits="userSpaceOnUse" x1="439.8716" y1="1213.9978" x2="439.8716" y2="1248.0096" gradientTransform="matrix(1 0 0 1 -378 -1172)">
				<stop  offset="0" style="stop-color:#FFFFFF"/>
				<stop  offset="0.4552" style="stop-color:#FFFFFF;stop-opacity:0.0896"/>
				<stop  offset="0.5" style="stop-color:#FFFFFF;stop-opacity:0"/>
			</linearGradient>
			<path opacity="0.5" fill="url(#SVGID_4_)" enable-background="new    " d="M58.619,41.998L45.911,76.007h5.482l2.628-7.541
				c0.122-0.358,0.451-0.592,0.813-0.592h13.736c0.36,0,0.682,0.23,0.808,0.58l2.785,7.556h5.669L64.774,41.998
				C64.774,41.998,58.619,41.998,58.619,41.998z M67.056,63.257c-0.162,0.242-0.428,0.386-0.711,0.386h-9.374
				c-0.282,0-0.549-0.142-0.711-0.383c-0.163-0.24-0.203-0.549-0.106-0.829l4.639-13.293c0.124-0.355,0.449-0.594,0.813-0.594
				c0.001,0,0.003,0,0.003,0c0.363,0,0.687,0.236,0.813,0.589l4.734,13.292C67.256,62.703,67.219,63.015,67.056,63.257z"/>
			
				<linearGradient id="SVGID_5_" gradientUnits="userSpaceOnUse" x1="508.257" y1="1213.9978" x2="508.257" y2="1248.0082" gradientTransform="matrix(1 0 0 1 -378 -1172)">
				<stop  offset="0" style="stop-color:#FFFFFF"/>
				<stop  offset="0.4552" style="stop-color:#FFFFFF;stop-opacity:0.0896"/>
				<stop  offset="0.5" style="stop-color:#FFFFFF;stop-opacity:0"/>
			</linearGradient>
			<path opacity="0.5" fill="url(#SVGID_5_)" enable-background="new    " d="M130.277,66.429c-0.392,0-0.738-0.277-0.838-0.673
				l-6.062-23.758h-8.845v34.009h4.711v-27.29c0-0.458,0.325-0.843,0.76-0.898c0.034-0.004,0.074-0.007,0.107-0.007
				c0.393,0,0.745,0.28,0.841,0.685l6.632,27.512h5.329l6.653-27.514c0.097-0.404,0.448-0.683,0.84-0.683
				c0.037,0,0.073,0.003,0.109,0.007c0.433,0.057,0.76,0.44,0.76,0.898v27.292h4.711v-34.01h-8.871l-5.995,23.757
				C131.015,66.151,130.672,66.429,130.277,66.429L130.277,66.429z"/>
			
				<linearGradient id="SVGID_6_" gradientUnits="userSpaceOnUse" x1="544.7986" y1="1213.9993" x2="544.7986" y2="1248.0082" gradientTransform="matrix(1 0 0 1 -378 -1172)">
				<stop  offset="0" style="stop-color:#FFFFFF"/>
				<stop  offset="0.4552" style="stop-color:#FFFFFF;stop-opacity:0.0896"/>
				<stop  offset="0.5" style="stop-color:#FFFFFF;stop-opacity:0"/>
			</linearGradient>
			<path opacity="0.5" fill="url(#SVGID_6_)" enable-background="new    " d="M159.806,70.876v-9.748
				c0-0.498,0.388-0.902,0.867-0.902h16.381v-4.225h-16.381c-0.479,0-0.867-0.404-0.867-0.905v-7.94c0-0.5,0.388-0.905,0.867-0.905
				h17.668v-4.251H154.6v34.009h24.397v-4.225h-18.326C160.193,71.782,159.806,71.377,159.806,70.876z"/>
			
				<linearGradient id="SVGID_7_" gradientUnits="userSpaceOnUse" x1="576.2197" y1="1213.9963" x2="576.2197" y2="1248.0067" gradientTransform="matrix(1 0 0 1 -378 -1172)">
				<stop  offset="0" style="stop-color:#FFFFFF"/>
				<stop  offset="0.4552" style="stop-color:#FFFFFF;stop-opacity:0.0896"/>
				<stop  offset="0.5" style="stop-color:#FFFFFF;stop-opacity:0"/>
			</linearGradient>
			<path opacity="0.5" fill="url(#SVGID_7_)" enable-background="new    " d="M201.737,58.988c-0.192-0.298-0.196-0.686-0.011-0.987
				l9.833-16.004h-5.968l-6.493,11.074c-0.156,0.268-0.438,0.433-0.738,0.433h-0.003c-0.3,0-0.578-0.16-0.738-0.425l-6.636-11.081
				h-6.032l9.775,15.732c0.185,0.298,0.183,0.691-0.003,0.986l-10.863,17.293h6.244l7.381-11.973c0.16-0.26,0.435-0.415,0.728-0.415
				l0,0c0.296,0,0.569,0.155,0.731,0.416l7.361,11.972h6.277L201.737,58.988z"/>
			
				<linearGradient id="SVGID_8_" gradientUnits="userSpaceOnUse" x1="406.3263" y1="1213.3862" x2="406.3263" y2="1248.6421" gradientTransform="matrix(1 0 0 1 -378 -1172)">
				<stop  offset="0" style="stop-color:#FFFFFF"/>
				<stop  offset="0.4552" style="stop-color:#FFFFFF;stop-opacity:0.0896"/>
				<stop  offset="0.5" style="stop-color:#FFFFFF;stop-opacity:0"/>
			</linearGradient>
			<path opacity="0.5" fill="url(#SVGID_8_)" enable-background="new    " d="M36.728,57.934c-1.544-0.847-3.994-1.688-7.283-2.498
				c-3.589-0.884-5.731-1.706-6.733-2.582c-0.89-0.78-1.342-1.745-1.342-2.867c0-1.213,0.505-2.236,1.461-2.956
				c1.287-0.972,3.051-1.468,5.241-1.468h12.372v-4.177H28.143c-2.512,0-4.673,0.395-6.42,1.174
				c-1.697,0.755-3.013,1.864-3.904,3.29c-0.894,1.432-1.348,2.987-1.348,4.626c0,2.588,0.941,4.726,2.872,6.532
				c1.388,1.296,3.895,2.419,7.457,3.338c2.948,0.765,4.788,1.284,5.629,1.587c1.355,0.504,2.295,1.099,2.88,1.828
				c0.608,0.758,0.916,1.679,0.916,2.74c0,1.593-0.677,2.987-2.01,4.154c-1.29,1.117-3.174,1.688-5.608,1.688h-13.38v4.298h13.311
				c2.854,0,5.257-0.416,7.141-1.239c1.822-0.79,3.252-2.018,4.24-3.645c1.001-1.635,1.503-3.411,1.503-5.281
				c0-2.082-0.416-3.845-1.242-5.232C39.363,59.856,38.2,58.739,36.728,57.934z"/>
		</g>
	</g>
</g>
</svg>
