<?xml version="1.0" encoding="utf-8"?>
<!-- Generator: Adobe Illustrator 17.0.0, SVG Export Plug-In . SVG Version: 6.00 Build 0)  -->
<!DOCTYPE svg PUBLIC "-//W3C//DTD SVG 1.1//EN" "http://www.w3.org/Graphics/SVG/1.1/DTD/svg11.dtd">
<svg version="1.1" xmlns="http://www.w3.org/2000/svg" xmlns:xlink="http://www.w3.org/1999/xlink" x="0px" y="0px" width="100px"
	 height="100px" viewBox="0 0 100 100" enable-background="new 0 0 100 100" xml:space="preserve">
<g id="fondo">
	<linearGradient id="SVGID_1_" gradientUnits="userSpaceOnUse" x1="50" y1="100" x2="50" y2="-2.243723e-009">
		<stop  offset="0" style="stop-color:#003003"/>
		<stop  offset="0.031" style="stop-color:#0D3710"/>
		<stop  offset="0.1857" style="stop-color:#2D5322"/>
		<stop  offset="0.3435" style="stop-color:#3F692C"/>
		<stop  offset="0.5026" style="stop-color:#4D7B31"/>
		<stop  offset="0.6637" style="stop-color:#588934"/>
		<stop  offset="0.8279" style="stop-color:#5E9035"/>
		<stop  offset="1" style="stop-color:#609235"/>
	</linearGradient>
	<rect fill="url(#SVGID_1_)" width="100" height="100"/>
</g>
<g id="Capa_3">
</g>
<g id="Capa_2">
	<g>
		<g>
			<path fill="#F7F7F8" d="M49.784,32.949c0.04-0.146-0.044-0.335-0.243-0.359c-0.201-0.024-0.404-0.035-0.606-0.05
				c-0.927-2.624-1.725-5.281-2.575-7.929c0.07-0.012,0.14-0.03,0.21-0.058c0.366-0.145,0.629-0.474,0.712-0.84
				c0.69-0.107,1.38-0.213,2.072-0.321c0.25-0.039,0.189-0.446-0.059-0.439c-0.692,0.021-1.381,0.067-2.067,0.134
				c-0.019-0.044-0.033-0.089-0.058-0.131c-0.278-0.462-1.037-0.698-1.495-0.372c-0.326,0.079-0.555,0.416-0.605,0.78
				c-1.323,0.205-2.639,0.468-3.951,0.755c-0.03-0.596-0.41-1.151-0.943-1.358c-0.024-0.402-0.046-0.805-0.077-1.206
				c-0.053-0.682-1.068-0.701-1.075,0c-0.005,0.412,0,0.824-0.002,1.235c-0.097,0.029-0.189,0.071-0.271,0.124
				c-0.526,0.339-0.717,1.046-0.558,1.629c0.022,0.079,0.056,0.149,0.089,0.22c-1.358,0.312-2.717,0.618-4.081,0.884
				c-0.148-0.186-0.38-0.336-0.629-0.409c-0.494-0.322-1.103,0.233-1.248,0.742c-0.522,0.083-1.045,0.163-1.57,0.226
				c-0.256,0.031-0.27,0.398,0,0.41c0.528,0.022,1.056-0.001,1.584-0.044c0.074,0.217,0.22,0.403,0.405,0.536
				c-1.106,2.523-1.817,5.355-2.514,8.007c-0.251-0.015-0.5-0.027-0.752-0.045c-0.263-0.019-0.329,0.378-0.105,0.472
				c0.321,1.093,2.008,1.547,2.953,1.646c1.623,0.17,3.191-0.309,4.543-1.19c0.375-0.244,0.061-0.82-0.309-0.66
				c-0.019,0-0.039-0.001-0.058-0.001c-0.93-2.651-1.68-5.501-2.932-8.014c-0.008-0.015-0.019-0.021-0.031-0.027
				c0.019-0.003,0.038-0.003,0.057-0.007c0.46-0.11,0.774-0.55,0.8-1.004c1.443-0.277,2.878-0.673,4.293-1.009
				c0.102,0.08,0.211,0.151,0.33,0.203c0.018,3.672,0.075,7.342-0.027,11.019c-1.179,0.025-2.309,0.36-3,1.11
				c-0.035,0.022-0.061,0.048-0.079,0.086c-0.016,0.02-0.036,0.036-0.052,0.056c-0.127,0.161,0.018,0.364,0.208,0.295
				c0.549,0.382,1.994,0.186,2.522,0.2c1.506,0.04,3.013,0.056,4.519,0.083c0.364,0.007,0.465-0.476,0.179-0.66
				c-0.951-0.611-2.018-1.171-3.111-1.214c0.119-3.639,0.228-7.314,0.126-10.967c0.27-0.121,0.506-0.325,0.662-0.623
				c0.013-0.024,0.018-0.05,0.029-0.075c1.404-0.276,2.809-0.519,4.219-0.748c0.115,0.199,0.287,0.356,0.485,0.458
				c-0.981,2.611-1.624,5.395-2.467,8.053c-0.302,0.032-0.6,0.082-0.891,0.165c-0.108,0.031-0.127,0.168-0.055,0.237
				c-0.021,0.905,1.701,1.425,2.357,1.537c1.744,0.299,3.456-0.409,5.023-1.089C49.847,33.32,49.862,33.11,49.784,32.949z
				 M35.853,35.321c-1.664-0.041-3.314-0.079-4.973-0.166c0.763-2.595,1.695-5.221,2.287-7.858c0.094,0.018,0.193,0.018,0.292,0.008
				c-0.023,0.018-0.04,0.044-0.034,0.077C33.929,30.066,35.006,32.717,35.853,35.321z M46.071,25.063
				c0.511,2.531,1.292,5.013,2.171,7.439c-0.835-0.026-1.674-0.005-2.508,0.009c-0.615,0.01-1.25-0.02-1.877,0
				C44.621,30.066,45.524,27.574,46.071,25.063z"/>
		</g>
		<g>
			<g>
				<polygon fill="#FFFFFF" points="22.084,63.228 19.002,56.848 19.002,86.262 50.644,86.332 50.644,83.248 22.084,83.19 				"/>
				<path fill="#FFFFFF" d="M64.468,30.682v1.594h3.087v-6.087L54.991,13.668H19.002V22.2h3.082v-5.448h29.672v13.933L64.468,30.682
					L64.468,30.682z M54.837,17.868l9.631,9.601V27.6h-9.631V17.868z"/>
				<path fill="#FFFFFF" d="M85.453,34.888L58.32,34.87c-0.081-0.005-0.222-0.015-0.407-0.015c-2.268,0-4.923,1.359-4.923,5.191
					v46.267H90V40.043C89.997,36.628,87.024,35.176,85.453,34.888z M87.522,83.726H55.464V40.043c0-0.642,0-2.604,2.45-2.604
					c0.119,0,0.197,0.008,0.21,0.008l26.994,0.008c0.46,0.106,2.412,0.674,2.412,2.587v43.685H87.522z"/>
				<rect x="58.343" y="54.981" fill="#FFFFFF" width="11.662" height="3.231"/>
				<rect x="72.958" y="54.981" fill="#FFFFFF" width="11.667" height="3.231"/>
				<rect x="58.479" y="61.015" fill="#FFFFFF" width="4.693" height="4.966"/>
				<rect x="65.416" y="61.015" fill="#FFFFFF" width="4.698" height="4.966"/>
				<rect x="72.604" y="61.015" fill="#FFFFFF" width="4.696" height="4.966"/>
				<rect x="79.967" y="61.015" fill="#FFFFFF" width="4.693" height="4.966"/>
				<rect x="58.479" y="67.994" fill="#FFFFFF" width="4.696" height="4.968"/>
				<rect x="65.416" y="67.994" fill="#FFFFFF" width="4.701" height="4.968"/>
				<rect x="72.465" y="67.994" fill="#FFFFFF" width="4.698" height="4.968"/>
				<rect x="79.831" y="67.994" fill="#FFFFFF" width="4.693" height="4.968"/>
				<rect x="58.32" y="74.976" fill="#FFFFFF" width="4.693" height="4.963"/>
				<rect x="65.261" y="74.976" fill="#FFFFFF" width="4.698" height="4.963"/>
				<rect x="72.604" y="74.976" fill="#FFFFFF" width="4.696" height="4.963"/>
				<rect x="79.831" y="74.976" fill="#FFFFFF" width="4.691" height="4.963"/>
				<path fill="#FFFFFF" d="M84.625,41.773H58.32v9.54h26.305C84.625,51.313,84.625,41.773,84.625,41.773z M72.637,49.043h-1.334
					V46.32h-1.051v-0.978c0.162,0.005,0.321-0.01,0.475-0.043c0.157-0.035,0.293-0.091,0.419-0.169
					c0.124-0.078,0.227-0.187,0.303-0.318c0.078-0.134,0.126-0.298,0.134-0.493h1.053V49.043z M77.898,49.043h-3.872
					c-0.015-0.232,0.01-0.442,0.066-0.639c0.056-0.194,0.141-0.371,0.255-0.53c0.093-0.134,0.202-0.263,0.321-0.379
					c0.124-0.116,0.258-0.225,0.394-0.326c0.139-0.106,0.283-0.2,0.434-0.296c0.149-0.096,0.296-0.184,0.434-0.273
					c0.053-0.038,0.119-0.078,0.189-0.124c0.073-0.043,0.136-0.093,0.2-0.149c0.058-0.056,0.111-0.116,0.154-0.184
					c0.045-0.068,0.061-0.147,0.061-0.23c0-0.217-0.053-0.369-0.157-0.452c-0.104-0.083-0.232-0.124-0.381-0.124
					c-0.26,0-0.434,0.093-0.535,0.265c-0.101,0.182-0.149,0.414-0.139,0.702h-1.21c-0.018-0.323,0.015-0.614,0.096-0.869
					c0.081-0.253,0.205-0.47,0.371-0.639c0.162-0.174,0.369-0.308,0.611-0.399s0.513-0.136,0.811-0.136
					c0.268,0,0.518,0.03,0.74,0.093c0.225,0.061,0.419,0.157,0.578,0.275c0.159,0.124,0.285,0.278,0.369,0.465
					c0.088,0.189,0.134,0.409,0.134,0.657c0,0.303-0.061,0.558-0.187,0.765c-0.124,0.21-0.28,0.389-0.475,0.546
					c-0.189,0.159-0.402,0.298-0.637,0.424c-0.23,0.126-0.452,0.258-0.662,0.394v0.008h2.026v1.154H77.898z M82.081,48.085
					c-0.058,0.172-0.157,0.328-0.301,0.482c-0.144,0.146-0.336,0.275-0.578,0.376c-0.245,0.101-0.548,0.154-0.909,0.154
					c-0.333,0-0.616-0.038-0.849-0.111c-0.235-0.078-0.422-0.172-0.571-0.288c-0.149-0.119-0.26-0.25-0.338-0.392
					c-0.081-0.144-0.139-0.283-0.174-0.422c-0.035-0.139-0.053-0.265-0.053-0.379c0-0.111,0-0.2,0.003-0.258h1.22
					c-0.01,0.255,0.051,0.442,0.172,0.566c0.058,0.076,0.134,0.131,0.227,0.162c0.093,0.033,0.197,0.048,0.311,0.048
					c0.182,0,0.326-0.04,0.434-0.119s0.159-0.217,0.159-0.412c0-0.104-0.018-0.189-0.053-0.253s-0.078-0.109-0.134-0.146
					c-0.056-0.038-0.121-0.063-0.192-0.073c-0.071-0.008-0.149-0.018-0.217-0.018c-0.099,0-0.169,0.003-0.222,0.013
					c-0.053,0.005-0.109,0.013-0.154,0.023v-0.922c0.045,0.003,0.099,0.01,0.157,0.015c0.056,0.008,0.129,0.013,0.217,0.013
					c0.063,0,0.139-0.005,0.207-0.013c0.071-0.01,0.139-0.03,0.197-0.061c0.058-0.033,0.109-0.076,0.149-0.131
					c0.038-0.056,0.053-0.131,0.053-0.22c0-0.073-0.018-0.139-0.053-0.192s-0.081-0.099-0.139-0.129
					c-0.053-0.033-0.119-0.053-0.187-0.071c-0.071-0.015-0.141-0.023-0.202-0.023c-0.086,0-0.167,0.013-0.248,0.038
					s-0.144,0.061-0.197,0.111c-0.056,0.053-0.099,0.109-0.134,0.184c-0.033,0.071-0.045,0.159-0.043,0.258h-1.207
					c0.005-0.28,0.053-0.523,0.154-0.727c0.099-0.205,0.235-0.371,0.404-0.508c0.172-0.131,0.369-0.23,0.589-0.296
					c0.225-0.066,0.462-0.101,0.715-0.101c0.326,0,0.599,0.043,0.818,0.134c0.222,0.091,0.397,0.194,0.533,0.321
					c0.134,0.129,0.23,0.26,0.288,0.402c0.058,0.141,0.088,0.26,0.088,0.359c0,0.25-0.033,0.442-0.093,0.576
					c-0.061,0.134-0.129,0.232-0.202,0.296c-0.073,0.063-0.144,0.101-0.207,0.114c-0.058,0.015-0.091,0.025-0.091,0.03v0.008
					c0,0.008,0.018,0.018,0.053,0.025c0.035,0.008,0.081,0.028,0.134,0.053c0.053,0.025,0.114,0.061,0.179,0.104
					c0.063,0.043,0.121,0.104,0.174,0.184c0.053,0.078,0.101,0.177,0.134,0.301c0.035,0.116,0.053,0.265,0.053,0.442
					C82.17,47.754,82.142,47.914,82.081,48.085z"/>
				<path fill="#FFFFFF" d="M38.752,77.522l-0.139-14.996l-13.597-28.34l0.02-0.008l-4.37-9.073L10,30.24l4.37,9.073l0.015-0.005
					l13.536,28.111L38.752,77.522z M32.402,67.3l0.318-3.198l2.915,1.642l1.435-4.006l0.447,0.922l0.073,8.56l-2.642,1.273
					l-6.08-5.643l-0.616-1.283L32.402,67.3z M14.562,34.627l-1.617-3.354l6.694-3.221l1.619,3.357L14.562,34.627z"/>
			</g>
		</g>
	</g>
</g>
</svg>
