<?xml version="1.0" encoding="utf-8"?>
<!-- Generator: Adobe Illustrator 17.0.0, SVG Export Plug-In . SVG Version: 6.00 Build 0)  -->
<!DOCTYPE svg PUBLIC "-//W3C//DTD SVG 1.1//EN" "http://www.w3.org/Graphics/SVG/1.1/DTD/svg11.dtd">
<svg version="1.1" xmlns="http://www.w3.org/2000/svg" xmlns:xlink="http://www.w3.org/1999/xlink" x="0px" y="0px" width="857px"
	 height="248px" viewBox="0 0 857 248" enable-background="new 0 0 857 248" xml:space="preserve">
<g id="Fondo">
	<rect fill="#A1211D" width="857" height="248"/>
</g>
<g id="Logo">
	<g>
		<g>
			<g>
				<path fill="#FFFFFF" d="M202.263,30.852h34.299l44.76,65.765V30.852h34.623v118.871h-34.623l-44.517-65.269v65.269h-34.542
					V30.852z"/>
			</g>
			<g>
				<path fill="#FFFFFF" d="M281.318,149.723V30.852h61.22c11.353,0,20.028,0.972,26.029,2.919c6,1.946,10.837,5.554,14.514,10.824
					c3.675,5.271,5.514,11.691,5.514,19.258c0,6.595-1.406,12.285-4.219,17.068c-2.813,4.785-6.682,8.664-11.602,11.635
					c-3.137,1.893-7.437,3.461-12.901,4.703c4.375,1.462,7.564,2.924,9.563,4.383c1.35,0.974,3.307,3.057,5.875,6.249
					c2.566,3.194,4.281,5.655,5.145,7.385l17.789,34.445h-41.505l-19.634-36.327c-2.487-4.702-4.702-7.756-6.648-9.162
					c-2.65-1.836-5.65-2.757-9.001-2.757h-3.244v48.246H281.318z M318.211,79.017h15.488c1.675,0,4.919-0.54,9.731-1.622
					c2.433-0.487,4.419-1.729,5.96-3.731c1.541-1.999,2.31-4.296,2.31-6.892c0-3.837-1.215-6.782-3.648-8.838
					c-2.433-2.053-7.002-3.081-13.704-3.081h-16.136V79.017z"/>
			</g>
		</g>
		<polygon fill="#FFFFFF" points="411.878,180.101 411.878,188.041 196.962,184.071 		"/>
		<polygon fill="#FFFFFF" points="445.122,188.041 445.122,180.101 660.038,184.071 		"/>
		<g>
			<g>
				<path fill="#FFFFFF" d="M204.547,240.007v-30.301h7.22l5.677,11.106c1.622,3.19,3.244,6.966,4.46,10.383h0.121
					c-0.405-4.001-0.527-8.092-0.527-12.632v-8.856h5.68v30.301h-6.491l-5.84-11.69c-1.622-3.236-3.407-7.147-4.745-10.7
					l-0.121,0.046c0.16,4.001,0.243,8.273,0.243,13.219v9.125H204.547z"/>
				<path fill="#FFFFFF" d="M238.827,211.909c0,1.888-1.297,3.417-3.324,3.417c-1.947,0-3.247-1.529-3.205-3.417
					c-0.041-1.978,1.258-3.461,3.244-3.461C237.53,208.448,238.788,209.93,238.827,211.909z M232.46,240.007v-21.985h6.165v21.985
					H232.46z"/>
				<path fill="#FFFFFF" d="M258.464,239.467c-1.095,0.54-3.164,0.989-5.517,0.989c-6.408,0-10.504-4.316-10.504-11.238
					c0-6.431,3.975-11.69,11.356-11.69c1.622,0,3.407,0.313,4.706,0.852l-0.974,5.083c-0.731-0.362-1.826-0.677-3.448-0.677
					c-3.244,0-5.354,2.565-5.313,6.16c0,4.047,2.433,6.16,5.434,6.16c1.459,0,2.596-0.271,3.528-0.674L258.464,239.467z"/>
				<path fill="#FFFFFF" d="M281.022,228.766c0,8.048-5.153,11.734-10.465,11.734c-5.798,0-10.261-4.225-10.261-11.328
					s4.218-11.643,10.587-11.643C276.964,217.529,281.022,222.16,281.022,228.766z M266.664,228.991
					c0,3.779,1.418,6.609,4.055,6.609c2.392,0,3.934-2.653,3.934-6.609c0-3.28-1.136-6.607-3.934-6.607
					C267.759,222.384,266.664,225.755,266.664,228.991z"/>
				<path fill="#FFFFFF" d="M284.842,208.086h6.165v31.921h-6.165V208.086z"/>
				<path fill="#FFFFFF" d="M307.273,240.007l-0.364-2.203h-0.121c-1.299,1.754-3.327,2.696-5.68,2.696
					c-4.014,0-6.408-3.236-6.408-6.741c0-5.711,4.626-8.453,11.641-8.407v-0.315c0-1.17-0.568-2.833-3.608-2.833
					c-2.03,0-4.179,0.764-5.475,1.663l-1.136-4.406c1.379-0.855,4.096-1.932,7.707-1.932c6.609,0,8.719,4.316,8.719,9.487v7.642
					c0,2.113,0.08,4.135,0.284,5.349H307.273z M306.545,229.621c-3.247-0.044-5.76,0.808-5.76,3.461
					c0,1.754,1.054,2.609,2.433,2.609c1.542,0,2.8-1.124,3.205-2.518c0.08-0.359,0.121-0.764,0.121-1.167V229.621z M310.641,208.448
					l-4.949,6.831h-4.259l3.489-6.831H310.641z"/>
				<path fill="#FFFFFF" d="M317.382,234.028c1.136,0.764,3.489,1.663,5.313,1.663c1.867,0,2.637-0.718,2.637-1.844
					c0-1.124-0.61-1.663-2.921-2.516c-4.096-1.529-5.677-4.003-5.636-6.609c0-4.091,3.161-7.193,8.071-7.193
					c2.312,0,4.38,0.584,5.597,1.258l-1.095,4.721c-0.894-0.54-2.596-1.258-4.3-1.258c-1.501,0-2.353,0.674-2.353,1.798
					c0,1.033,0.772,1.573,3.205,2.518c3.771,1.439,5.354,3.551,5.393,6.788c0,4.091-2.919,7.103-8.598,7.103
					c-2.596,0-4.907-0.63-6.408-1.529L317.382,234.028z"/>
			</g>
			<g>
				<path fill="#FFFFFF" d="M345.108,210.111c1.785-0.405,4.34-0.63,6.773-0.63c3.771,0,6.204,0.764,7.908,2.474
					c1.379,1.348,2.149,3.417,2.149,5.754c0,4.001-2.27,6.653-5.15,7.73v0.137c2.108,0.808,3.365,2.965,4.016,6.113
					c0.891,4.225,1.539,7.147,2.108,8.317h-3.649c-0.447-0.855-1.054-3.461-1.826-7.237c-0.811-4.182-2.27-5.754-5.475-5.891h-3.324
					v13.128h-3.529V210.111z M348.638,223.913h3.608c3.773,0,6.165-2.294,6.165-5.754c0-3.913-2.554-5.62-6.286-5.664
					c-1.702,0-2.921,0.178-3.487,0.359V223.913z"/>
				<path fill="#FFFFFF" d="M384.742,228.947c0,8.048-5.029,11.553-9.773,11.553c-5.313,0-9.409-4.316-9.409-11.194
					c0-7.283,4.298-11.553,9.732-11.553C380.93,217.753,384.742,222.294,384.742,228.947z M369.168,229.172
					c0,4.765,2.474,8.363,5.964,8.363c3.407,0,5.961-3.551,5.961-8.453c0-3.686-1.663-8.36-5.881-8.36
					C370.994,220.721,369.168,225.037,369.168,229.172z"/>
				<path fill="#FFFFFF" d="M389.252,224.138c0-2.25-0.039-4.091-0.16-5.889h3.123l0.16,3.505h0.124
					c1.095-2.069,2.919-4.001,6.163-4.001c2.678,0,4.706,1.798,5.558,4.36h0.08c0.61-1.214,1.379-2.157,2.19-2.831
					c1.178-0.989,2.474-1.529,4.339-1.529c2.596,0,6.449,1.888,6.449,9.44v12.813h-3.487v-12.317c0-4.182-1.379-6.7-4.259-6.7
					c-2.027,0-3.611,1.663-4.218,3.598c-0.163,0.54-0.284,1.258-0.284,1.978v13.441h-3.489v-13.038c0-3.461-1.379-5.979-4.096-5.979
					c-2.229,0-3.851,1.978-4.419,3.957c-0.204,0.584-0.284,1.258-0.284,1.932v13.128h-3.489V224.138z"/>
				<path fill="#FFFFFF" d="M425.08,229.846c0.08,5.352,3.164,7.552,6.732,7.552c2.554,0,4.096-0.493,5.434-1.124l0.607,2.833
					c-1.258,0.63-3.407,1.348-6.529,1.348c-6.042,0-9.651-4.406-9.651-10.969s3.487-11.734,9.205-11.734
					c6.407,0,8.111,6.248,8.111,10.251c0,0.808-0.08,1.439-0.121,1.842H425.08z M435.542,227.015
					c0.041-2.518-0.932-6.429-4.947-6.429c-3.608,0-5.191,3.686-5.475,6.429H435.542z"/>
				<path fill="#FFFFFF" d="M443.417,225.037c0-2.562-0.039-4.765-0.16-6.788h3.123l0.121,4.269h0.163
					c0.891-2.921,3.04-4.765,5.434-4.765c0.405,0,0.69,0.046,1.012,0.134v3.732c-0.364-0.09-0.728-0.134-1.216-0.134
					c-2.513,0-4.298,2.113-4.786,5.08c-0.08,0.537-0.16,1.167-0.16,1.842v11.599h-3.531V225.037z"/>
				<path fill="#FFFFFF" d="M474.043,228.947c0,8.048-5.029,11.553-9.773,11.553c-5.313,0-9.409-4.316-9.409-11.194
					c0-7.283,4.298-11.553,9.732-11.553C470.231,217.753,474.043,222.294,474.043,228.947z M458.469,229.172
					c0,4.765,2.474,8.363,5.964,8.363c3.407,0,5.961-3.551,5.961-8.453c0-3.686-1.663-8.36-5.881-8.36
					S458.469,225.037,458.469,229.172z"/>
			</g>
			<g>
				<path fill="#FFFFFF" d="M499.132,240.097v-1.976l2.281-2.454c5.486-5.783,7.965-8.856,7.999-12.444
					c0-2.417-1.059-4.649-4.264-4.649c-1.95,0-3.569,1.098-4.561,2.012l-0.925-2.268c1.485-1.392,3.6-2.417,6.08-2.417
					c4.628,0,6.578,3.515,6.578,6.919c0,4.391-2.877,7.942-7.405,12.774l-1.718,1.756v0.072h9.652v2.673H499.132z"/>
				<path fill="#FFFFFF" d="M530.361,227.945c0,8.089-2.709,12.555-7.469,12.555c-4.197,0-7.041-4.357-7.105-12.227
					c0-7.978,3.107-12.372,7.469-12.372C527.783,215.902,530.361,220.367,530.361,227.945z M518.694,228.312
					c0,6.186,1.718,9.698,4.362,9.698c2.975,0,4.396-3.843,4.396-9.918c0-5.858-1.356-9.701-4.362-9.701
					C520.544,218.391,518.694,221.832,518.694,228.312z"/>
				<path fill="#FFFFFF" d="M539.346,219.306h-0.067l-3.735,2.234l-0.56-2.454l4.693-2.782h2.479v23.793h-2.81V219.306z"/>
				<path fill="#FFFFFF" d="M562.245,218.575c-0.594-0.036-1.353,0-2.18,0.147c-4.561,0.842-6.974,4.538-7.469,8.453h0.098
					c1.025-1.501,2.81-2.745,5.189-2.745c3.802,0,6.48,3.04,6.48,7.689c0,4.355-2.678,8.381-7.141,8.381
					c-4.592,0-7.601-3.954-7.601-10.14c0-4.685,1.521-8.381,3.637-10.724c1.785-1.94,4.163-3.148,6.875-3.515
					c0.857-0.145,1.586-0.181,2.113-0.181V218.575z M561.421,232.3c0-3.404-1.754-5.452-4.43-5.452c-1.751,0-3.37,1.206-4.166,2.929
					c-0.196,0.364-0.331,0.839-0.331,1.426c0.067,3.918,1.687,6.808,4.727,6.808C559.735,238.01,561.421,235.704,561.421,232.3z"/>
				<path fill="#FFFFFF" d="M581.608,229.007v2.379h-8.164v-2.379H581.608z"/>
				<path fill="#FFFFFF" d="M591.09,240.097v-1.976l2.281-2.454c5.486-5.783,7.965-8.856,7.999-12.444
					c0-2.417-1.059-4.649-4.264-4.649c-1.95,0-3.569,1.098-4.561,2.012l-0.925-2.268c1.485-1.392,3.6-2.417,6.08-2.417
					c4.628,0,6.578,3.515,6.578,6.919c0,4.391-2.877,7.942-7.405,12.774l-1.718,1.756v0.072h9.652v2.673H591.09z"/>
				<path fill="#FFFFFF" d="M622.318,227.945c0,8.089-2.709,12.555-7.469,12.555c-4.197,0-7.041-4.357-7.105-12.227
					c0-7.978,3.107-12.372,7.469-12.372C619.74,215.902,622.318,220.367,622.318,227.945z M610.652,228.312
					c0,6.186,1.718,9.698,4.362,9.698c2.975,0,4.396-3.843,4.396-9.918c0-5.858-1.356-9.701-4.362-9.701
					C612.501,218.391,610.652,221.832,610.652,228.312z"/>
				<path fill="#FFFFFF" d="M631.303,219.306h-0.067l-3.735,2.234l-0.56-2.454l4.693-2.782h2.479v23.793h-2.81V219.306z"/>
				<path fill="#FFFFFF" d="M641.676,234.059c0-3.001,1.622-5.124,4.264-6.369l-0.034-0.111c-2.379-1.245-3.404-3.293-3.404-5.344
					c0-3.771,2.877-6.333,6.645-6.333c4.163,0,6.245,2.893,6.245,5.858c0,2.012-0.891,4.171-3.536,5.563v0.111
					c2.676,1.17,4.329,3.257,4.329,6.147c0,4.138-3.205,6.919-7.304,6.919C644.388,240.5,641.676,237.535,641.676,234.059z
					 M653.244,233.911c0-2.893-1.816-4.282-4.727-5.197c-2.51,0.803-3.866,2.634-3.866,4.905c-0.098,2.415,1.555,4.538,4.298,4.538
					C651.56,238.157,653.244,236.362,653.244,233.911z M645.248,222.015c0,2.379,1.619,3.66,4.096,4.393
					c1.852-0.697,3.272-2.159,3.272-4.321c0-1.901-1.023-3.879-3.634-3.879C646.568,218.208,645.248,219.964,645.248,222.015z"/>
			</g>
		</g>
		<g>
			<path fill="#FFFFFF" d="M433.433,125.965l2.96,10.79c0.325,1.304,0.731,2.921,0.974,4.091h0.121
				c0.284-1.17,0.61-2.833,0.894-4.091l2.433-10.79h6.612l-4.626,14.475c-2.838,8.722-4.745,12.229-6.974,14.433
				c-2.151,2.066-4.422,2.787-5.964,3.012l-1.298-5.801c0.771-0.134,1.745-0.537,2.677-1.167c0.932-0.54,1.947-1.619,2.554-2.743
				c0.204-0.315,0.325-0.674,0.325-0.989c0-0.225-0.041-0.584-0.284-1.124l-7.26-20.095H433.433z"/>
			<path fill="#FFFFFF" d="M458.426,118.053c1.989-0.36,4.949-0.63,8.234-0.63c4.055,0,6.896,0.674,8.841,2.383
				c1.625,1.439,2.516,3.553,2.516,6.339c0,3.866-2.474,6.519-4.827,7.462v0.137c1.906,0.852,2.962,2.877,3.652,5.664
				c0.85,3.417,1.702,7.371,2.229,8.541h-6.325c-0.447-0.855-1.095-3.327-1.906-7.059c-0.731-3.776-1.906-4.809-4.422-4.856h-1.865
				v11.914h-6.126V118.053z M464.553,131.091h2.433c3.081,0,4.907-1.71,4.907-4.362c0-2.787-1.705-4.18-4.543-4.225
				c-1.501,0-2.353,0.136-2.797,0.225V131.091z"/>
			<path fill="#FFFFFF" d="M487.03,139.136c0.204,2.833,2.717,4.182,5.597,4.182c2.11,0,3.812-0.315,5.475-0.899l0.811,4.631
				c-2.027,0.899-4.502,1.348-7.178,1.348c-6.733,0-10.587-4.316-10.587-11.194c0-5.574,3.123-11.734,10.019-11.734
				c6.408,0,8.841,5.53,8.841,10.969c0,1.17-0.121,2.203-0.201,2.696H487.03z M494.291,134.461c0-1.663-0.648-4.45-3.487-4.45
				c-2.596,0-3.652,2.606-3.815,4.45H494.291z"/>
			<path fill="#FFFFFF" d="M503.669,141.97c1.136,0.764,3.489,1.663,5.313,1.663c1.867,0,2.637-0.718,2.637-1.844
				c0-1.124-0.61-1.663-2.921-2.516c-4.096-1.529-5.677-4.003-5.636-6.609c0-4.091,3.161-7.193,8.071-7.193
				c2.312,0,4.38,0.584,5.597,1.258l-1.095,4.721c-0.894-0.54-2.596-1.258-4.3-1.258c-1.501,0-2.353,0.674-2.353,1.798
				c0,1.033,0.772,1.573,3.205,2.518c3.771,1.439,5.354,3.551,5.393,6.788c0,4.091-2.919,7.103-8.598,7.103
				c-2.596,0-4.907-0.63-6.408-1.529L503.669,141.97z"/>
			<path fill="#FFFFFF" d="M540.016,140.89c0,2.877,0.08,5.215,0.163,7.059h-5.354l-0.284-3.102h-0.121
				c-0.77,1.348-2.637,3.595-6.206,3.595c-4.014,0-6.976-2.787-6.976-9.574v-12.902h6.206v11.823c0,3.192,0.932,5.127,3.081,5.127
				c1.705,0,2.678-1.304,3.084-2.384c0.163-0.406,0.201-0.945,0.201-1.483v-13.083h6.206V140.89z"/>
			<path fill="#FFFFFF" d="M544.973,116.029h6.165v31.919h-6.165V116.029z"/>
			<path fill="#FFFFFF" d="M563.024,119.671v6.294h4.422v5.035h-4.422v7.958c0,2.653,0.568,3.866,2.436,3.866
				c0.77,0,1.379-0.09,1.823-0.181l0.041,5.171c-0.811,0.359-2.27,0.584-4.016,0.584c-1.986,0-3.649-0.764-4.623-1.888
				c-1.134-1.304-1.702-3.417-1.702-6.519v-8.991h-2.637v-5.035h2.637V121.2L563.024,119.671z"/>
			<path fill="#FFFFFF" d="M582.296,147.949l-0.364-2.203h-0.121c-1.299,1.754-3.327,2.696-5.68,2.696
				c-4.014,0-6.408-3.236-6.408-6.741c0-5.711,4.626-8.453,11.641-8.407v-0.315c0-1.17-0.568-2.833-3.608-2.833
				c-2.03,0-4.179,0.764-5.476,1.663l-1.136-4.406c1.379-0.854,4.096-1.932,7.707-1.932c6.609,0,8.719,4.316,8.719,9.487v7.642
				c0,2.113,0.08,4.135,0.284,5.349H582.296z M581.568,137.563c-3.247-0.044-5.76,0.808-5.76,3.461c0,1.754,1.054,2.609,2.433,2.609
				c1.542,0,2.8-1.124,3.205-2.518c0.08-0.359,0.121-0.764,0.121-1.167V137.563z"/>
			<path fill="#FFFFFF" d="M611.668,116.029v25.356c0,2.472,0.083,5.08,0.163,6.563h-5.476l-0.284-3.236h-0.08
				c-1.258,2.472-3.652,3.73-6.206,3.73c-4.703,0-8.477-4.45-8.477-11.282c-0.041-7.42,4.138-11.69,8.882-11.69
				c2.433,0,4.339,0.944,5.233,2.472h0.08v-11.913H611.668z M605.503,135.27c0-0.359-0.039-0.852-0.08-1.214
				c-0.364-1.842-1.705-3.371-3.611-3.371c-2.797,0-4.259,2.787-4.259,6.248c0,3.732,1.663,6.07,4.22,6.07
				c1.785,0,3.203-1.348,3.567-3.28c0.124-0.496,0.163-0.989,0.163-1.575V135.27z"/>
			<path fill="#FFFFFF" d="M636.217,136.708c0,8.048-5.153,11.734-10.465,11.734c-5.798,0-10.261-4.225-10.261-11.328
				c0-7.103,4.218-11.643,10.587-11.643C632.159,125.471,636.217,130.102,636.217,136.708z M621.859,136.933
				c0,3.779,1.418,6.609,4.055,6.609c2.392,0,3.934-2.653,3.934-6.609c0-3.28-1.136-6.607-3.934-6.607
				C622.954,130.326,621.859,133.697,621.859,136.933z"/>
			<path fill="#FFFFFF" d="M639.998,141.97c1.136,0.764,3.489,1.663,5.313,1.663c1.867,0,2.637-0.718,2.637-1.844
				c0-1.124-0.609-1.663-2.921-2.516c-4.096-1.529-5.677-4.003-5.636-6.609c0-4.091,3.161-7.193,8.071-7.193
				c2.312,0,4.38,0.584,5.597,1.258l-1.095,4.721c-0.894-0.54-2.596-1.258-4.3-1.258c-1.501,0-2.353,0.674-2.353,1.798
				c0,1.033,0.772,1.573,3.205,2.518c3.771,1.439,5.354,3.551,5.393,6.788c0,4.091-2.919,7.103-8.598,7.103
				c-2.596,0-4.907-0.63-6.408-1.529L639.998,141.97z"/>
		</g>
		<g>
			<path fill="#FFFFFF" d="M446.937,70.503v25.356c0,2.472,0.083,5.08,0.163,6.563h-5.475l-0.284-3.236h-0.08
				c-1.258,2.472-3.652,3.73-6.206,3.73c-4.703,0-8.475-4.45-8.475-11.282c-0.04-7.42,4.138-11.69,8.881-11.69
				c2.433,0,4.339,0.944,5.233,2.472h0.08V70.503H446.937z M440.772,89.743c0-0.359-0.039-0.852-0.08-1.214
				c-0.364-1.842-1.705-3.371-3.611-3.371c-2.797,0-4.259,2.787-4.259,6.248c0,3.732,1.663,6.07,4.22,6.07
				c1.785,0,3.203-1.348,3.567-3.28c0.124-0.496,0.163-0.989,0.163-1.575V89.743z"/>
			<path fill="#FFFFFF" d="M456.64,93.61c0.204,2.833,2.717,4.182,5.597,4.182c2.11,0,3.812-0.315,5.475-0.899l0.811,4.631
				c-2.027,0.899-4.502,1.348-7.178,1.348c-6.733,0-10.587-4.316-10.587-11.194c0-5.574,3.123-11.734,10.019-11.734
				c6.408,0,8.841,5.53,8.841,10.969c0,1.17-0.121,2.203-0.201,2.696H456.64z M463.901,88.935c0-1.663-0.648-4.45-3.487-4.45
				c-2.596,0-3.652,2.606-3.815,4.45H463.901z"/>
			<path fill="#FFFFFF" d="M485.407,77.875h-7.34v-5.754h21.008v5.754h-7.464v24.547h-6.204V77.875z"/>
			<path fill="#FFFFFF" d="M499.977,87.677c0-3.239-0.083-5.352-0.163-7.238h5.313l0.204,4.046h0.163
				c1.012-3.192,3.445-4.541,5.352-4.541c0.568,0,0.852,0,1.299,0.089v6.43c-0.447-0.09-0.974-0.181-1.663-0.181
				c-2.27,0-3.812,1.348-4.218,3.461c-0.083,0.449-0.121,0.989-0.121,1.529v11.15h-6.165V87.677z"/>
			<path fill="#FFFFFF" d="M526.223,102.422l-0.364-2.203h-0.121c-1.299,1.754-3.327,2.696-5.68,2.696
				c-4.014,0-6.408-3.236-6.408-6.741c0-5.711,4.626-8.453,11.641-8.407v-0.315c0-1.17-0.568-2.833-3.608-2.833
				c-2.03,0-4.179,0.765-5.476,1.663l-1.136-4.406c1.379-0.854,4.096-1.932,7.707-1.932c6.609,0,8.719,4.316,8.719,9.487v7.642
				c0,2.113,0.08,4.135,0.284,5.349H526.223z M525.495,92.037c-3.247-0.044-5.76,0.808-5.76,3.461c0,1.754,1.054,2.609,2.433,2.609
				c1.542,0,2.8-1.124,3.205-2.518c0.08-0.359,0.121-0.765,0.121-1.167V92.037z"/>
			<path fill="#FFFFFF" d="M536.211,102.422c0.08-1.439,0.163-4.091,0.163-6.563V70.503h6.165v12.543h0.08
				c1.178-1.888,3.244-3.102,6.002-3.102c4.745,0,8.234,4.36,8.193,11.103c0,7.914-4.541,11.868-9.084,11.868
				c-2.312,0-4.543-0.943-5.964-3.551h-0.08l-0.243,3.058H536.211z M542.539,93.07c0,0.452,0.039,0.855,0.121,1.214
				c0.406,1.844,1.826,3.239,3.608,3.239c2.637,0,4.259-2.25,4.259-6.204c0-3.417-1.379-6.116-4.259-6.116
				c-1.661,0-3.203,1.395-3.608,3.373c-0.083,0.405-0.121,0.808-0.121,1.258V93.07z"/>
			<path fill="#FFFFFF" d="M571.91,102.422l-0.364-2.203h-0.121c-1.299,1.754-3.327,2.696-5.68,2.696
				c-4.014,0-6.408-3.236-6.408-6.741c0-5.711,4.626-8.453,11.641-8.407v-0.315c0-1.17-0.568-2.833-3.608-2.833
				c-2.03,0-4.179,0.765-5.476,1.663l-1.136-4.406c1.379-0.854,4.096-1.932,7.707-1.932c6.609,0,8.719,4.316,8.719,9.487v7.642
				c0,2.113,0.08,4.135,0.284,5.349H571.91z M571.182,92.037c-3.247-0.044-5.76,0.808-5.76,3.461c0,1.754,1.054,2.609,2.433,2.609
				c1.542,0,2.8-1.124,3.205-2.518c0.08-0.359,0.121-0.765,0.121-1.167V92.037z"/>
			<path fill="#FFFFFF" d="M577.964,106.469c1.622-0.137,2.88-0.54,3.649-1.439c0.894-1.036,1.216-2.789,1.216-7.149V80.439h6.206
				v19.062c0,4.809-0.974,7.73-2.8,9.621c-1.823,1.888-4.703,2.696-7.666,2.696L577.964,106.469z M589.199,74.324
				c0,1.888-1.258,3.417-3.327,3.417c-1.947,0-3.205-1.529-3.205-3.417c0-1.978,1.258-3.461,3.285-3.461
				C587.941,70.863,589.158,72.346,589.199,74.324z"/>
			<path fill="#FFFFFF" d="M613.456,91.182c0,8.048-5.153,11.734-10.465,11.734c-5.798,0-10.261-4.225-10.261-11.328
				c0-7.103,4.218-11.643,10.587-11.643C609.399,79.944,613.456,84.575,613.456,91.182z M599.099,91.407
				c0,3.779,1.418,6.609,4.055,6.609c2.392,0,3.934-2.653,3.934-6.609c0-3.28-1.136-6.607-3.934-6.607
				C600.194,84.8,599.099,88.17,599.099,91.407z"/>
		</g>
		<g>
			<path fill="#FFFFFF" d="M449.007,55.643c-1.581,0.628-4.703,1.663-8.394,1.663c-4.138,0-7.544-1.17-10.223-4.001
				c-2.353-2.518-3.812-6.565-3.812-11.284c0.04-9.037,5.638-15.645,14.804-15.645c3.164,0,5.638,0.763,6.813,1.393l-0.852,3.192
				c-1.459-0.719-3.285-1.304-6.041-1.304c-6.653,0-10.992,4.586-10.992,12.183c0,7.689,4.176,12.229,10.545,12.229
				c2.312,0,3.892-0.362,4.703-0.811v-9.035h-5.556v-3.148h9.004V55.643z"/>
			<path fill="#FFFFFF" d="M472.257,45.932c0,8.048-5.029,11.553-9.773,11.553c-5.313,0-9.409-4.316-9.409-11.194
				c0-7.283,4.298-11.553,9.732-11.553C468.445,34.738,472.257,39.278,472.257,45.932z M456.683,46.156
				c0,4.765,2.474,8.363,5.964,8.363c3.407,0,5.961-3.551,5.961-8.453c0-3.686-1.663-8.36-5.881-8.36S456.683,42.021,456.683,46.156
				z"/>
			<path fill="#FFFFFF" d="M476.606,56.991c0.08-1.483,0.16-3.686,0.16-5.62V25.072h3.531v13.667h0.08
				c1.258-2.428,3.528-4.001,6.692-4.001c4.866,0,8.314,4.497,8.273,11.103c0,7.779-4.419,11.643-8.8,11.643
				c-2.838,0-5.111-1.214-6.571-4.091h-0.121l-0.163,3.598H476.606z M480.297,48.269c0,0.496,0.08,0.989,0.16,1.439
				c0.69,2.743,2.758,4.631,5.354,4.631c3.732,0,5.961-3.371,5.961-8.363c0-4.36-2.027-8.092-5.84-8.092
				c-2.433,0-4.703,1.844-5.434,4.856c-0.08,0.449-0.201,0.989-0.201,1.619V48.269z"/>
			<path fill="#FFFFFF" d="M503.829,29.118c0.041,1.35-0.852,2.428-2.27,2.428c-1.258,0-2.149-1.078-2.149-2.428
				c0-1.393,0.932-2.472,2.229-2.472C502.977,26.646,503.829,27.724,503.829,29.118z M499.854,56.991V35.232h3.569v21.759H499.854z"
				/>
			<path fill="#FFFFFF" d="M511.337,46.83c0.08,5.352,3.164,7.552,6.731,7.552c2.557,0,4.099-0.493,5.437-1.124l0.607,2.833
				c-1.258,0.63-3.407,1.348-6.529,1.348c-6.044,0-9.652-4.406-9.652-10.969s3.487-11.734,9.205-11.734
				c6.408,0,8.112,6.248,8.112,10.251c0,0.808-0.08,1.439-0.121,1.842H511.337z M521.8,44c0.041-2.518-0.932-6.429-4.949-6.429
				c-3.608,0-5.191,3.686-5.475,6.429H521.8z"/>
			<path fill="#FFFFFF" d="M529.675,42.021c0-2.562-0.039-4.765-0.16-6.789h3.123l0.121,4.271h0.163
				c0.891-2.921,3.04-4.765,5.434-4.765c0.406,0,0.69,0.045,1.012,0.134v3.732c-0.364-0.09-0.728-0.134-1.216-0.134
				c-2.513,0-4.298,2.113-4.786,5.08c-0.08,0.537-0.163,1.167-0.163,1.842v11.599h-3.528V42.021z"/>
			<path fill="#FFFFFF" d="M543.105,41.122c0-2.25-0.039-4.091-0.16-5.89h3.161l0.204,3.597h0.08
				c0.974-2.069,3.247-4.091,6.491-4.091c2.717,0,6.935,1.798,6.935,9.262v12.991h-3.569V44.449c0-3.507-1.175-6.429-4.543-6.429
				c-2.35,0-4.176,1.842-4.786,4.045c-0.16,0.496-0.243,1.17-0.243,1.844v13.082h-3.569V41.122z"/>
			<path fill="#FFFFFF" d="M583.389,45.932c0,8.048-5.029,11.553-9.773,11.553c-5.313,0-9.409-4.316-9.409-11.194
				c0-7.283,4.298-11.553,9.732-11.553C579.577,34.738,583.389,39.278,583.389,45.932z M567.815,46.156
				c0,4.765,2.474,8.363,5.964,8.363c3.407,0,5.961-3.551,5.961-8.453c0-3.686-1.663-8.36-5.881-8.36
				C569.641,37.705,567.815,42.021,567.815,46.156z"/>
		</g>
		<g>
			<path fill-rule="evenodd" clip-rule="evenodd" fill="#FFFFFF" stroke="#A1211D" stroke-width="1.5" stroke-miterlimit="10" d="
				M294.754,9.569c6.248-0.398,9.286,4.633,6.444,11.248c-2.842,6.616-10.242,11.739-16.194,11.45
				c-5.622-0.273-7.864-5.311-5.31-11.258C282.249,15.061,288.853,9.945,294.754,9.569L294.754,9.569z M260.851,18.279
				c-1.189,18.539,1.988,34.956,21.838,34.811c21.271-0.151,37.137-15.381,54.254-39.447c1.774-2.502,5.182-7.048,3.871-5.983
				c-1.57,1.269-9.727,8.683-21.782,17.289c-10.79,7.71-24.279,12.248-33.739,12.835c-6.602,0.396-12.138-1-16.811-4.465
				C262.628,28.962,261.915,22.45,260.851,18.279L260.851,18.279z"/>
			<path fill-rule="evenodd" clip-rule="evenodd" fill="#FFFFFF" stroke="#A1211D" stroke-width="1.5" stroke-miterlimit="10" d="
				M249.705,145.356c-6.673-2.606-9.743-10.914-7.202-18.677c2.542-7.764,9.951-12.71,16.901-10.948
				c7.383,1.872,11.393,10.48,8.566,19.114C265.143,143.479,256.794,148.125,249.705,145.356L249.705,145.356z M303.936,163.476
				c3.947-34.182-4.685-61.853-31.109-69.539c-20.883-6.079-35.61,3.979-51.103,23.612c-1.511,1.92-4.313,5.28-3.382,4.71
				c1.128-0.684,7.397-5.271,17.033-10.003c9.618-4.731,22.348-4.947,32.221-1.561c7.741,2.675,14.624,7.789,20.68,16.241
				C296.766,138.809,302.454,154.128,303.936,163.476L303.936,163.476z"/>
			<g>
				<path fill-rule="evenodd" clip-rule="evenodd" fill="#FFFFFF" stroke="#A1211D" stroke-width="1.5" stroke-miterlimit="10" d="
					M254.364,24.549c0,0-0.432,49.081-33.081,64c0,0,11.433,6.107,21.838-6.054C243.121,82.495,269.067,54.603,254.364,24.549z"/>
				
					<ellipse transform="matrix(-0.9153 -0.4027 0.4027 -0.9153 434.9884 211.821)" fill-rule="evenodd" clip-rule="evenodd" fill="#FFFFFF" stroke="#A1211D" stroke-width="1.5" stroke-miterlimit="10" cx="239.761" cy="60.184" rx="4.517" ry="11.995"/>
			</g>
			<g>
				
					<ellipse transform="matrix(0.9763 0.2162 -0.2162 0.9763 25.776 -72.1089)" fill-rule="evenodd" clip-rule="evenodd" fill="#FFFFFF" stroke="#A1211D" stroke-width="1.5" stroke-miterlimit="10" cx="342.45" cy="81.75" rx="16.912" ry="20.835"/>
				<path fill-rule="evenodd" clip-rule="evenodd" fill="#FFFFFF" stroke="#A1211D" stroke-width="1.5" stroke-miterlimit="10" d="
					M354.021,161.179c-124.232-70.738-2.251-147.16-2.251-147.16S274.771,85.473,354.021,161.179z"/>
			</g>
		</g>
	</g>
</g>
</svg>
