<?xml version="1.0" encoding="utf-8"?>
<!-- Generator: Adobe Illustrator 17.0.0, SVG Export Plug-In . SVG Version: 6.00 Build 0)  -->
<!DOCTYPE svg PUBLIC "-//W3C//DTD SVG 1.1//EN" "http://www.w3.org/Graphics/SVG/1.1/DTD/svg11.dtd">
<svg version="1.1" xmlns="http://www.w3.org/2000/svg" xmlns:xlink="http://www.w3.org/1999/xlink" x="0px" y="0px" width="282px"
	 height="158px" viewBox="0 0 282 158" enable-background="new 0 0 282 158" xml:space="preserve">
<g id="Fondo">
	<rect fill="#D7D8DB" width="282" height="158"/>
</g>
<g id="Logo">
	<g>
		<g>
			<g>
				<path fill="#626264" d="M27.167,32.132h17.258l22.521,33.09v-33.09h17.421v59.811H66.946L44.547,59.102v32.841h-17.38V32.132z"
					/>
			</g>
			<g>
				<path fill="#626264" d="M66.944,91.943V32.132h30.803c5.712,0,10.077,0.489,13.097,1.468c3.019,0.979,5.453,2.795,7.303,5.446
					c1.849,2.652,2.775,5.882,2.775,9.69c0,3.318-0.708,6.181-2.123,8.588c-1.415,2.407-3.362,4.359-5.838,5.854
					c-1.578,0.953-3.742,1.741-6.491,2.366c2.201,0.736,3.806,1.471,4.812,2.205c0.679,0.49,1.664,1.538,2.956,3.144
					c1.291,1.607,2.154,2.845,2.589,3.716l8.951,17.331h-20.884l-9.879-18.278c-1.251-2.366-2.366-3.903-3.345-4.61
					c-1.333-0.924-2.843-1.387-4.529-1.387h-1.632v24.275H66.944z M85.508,56.366H93.3c0.843,0,2.475-0.272,4.896-0.816
					c1.224-0.245,2.224-0.87,2.999-1.877c0.775-1.006,1.162-2.162,1.162-3.468c0-1.93-0.611-3.413-1.836-4.447
					c-1.224-1.033-3.523-1.55-6.895-1.55h-8.119V56.366z"/>
			</g>
		</g>
		<polygon fill="#626264" points="132.637,107.228 132.637,111.223 24.5,109.225 		"/>
		<polygon fill="#626264" points="149.363,111.223 149.363,107.228 257.5,109.225 		"/>
		<g>
			<g>
				<path fill="#626264" d="M28.317,137.37v-15.246h3.633l2.856,5.588c0.816,1.605,1.632,3.505,2.244,5.224h0.061
					c-0.204-2.013-0.265-4.071-0.265-6.356v-4.456h2.858v15.246h-3.266l-2.938-5.882c-0.816-1.628-1.714-3.596-2.387-5.384
					l-0.061,0.023c0.081,2.013,0.122,4.162,0.122,6.651v4.591H28.317z"/>
				<path fill="#626264" d="M45.565,123.232c0,0.95-0.652,1.719-1.673,1.719c-0.98,0-1.634-0.769-1.613-1.719
					c-0.021-0.995,0.633-1.741,1.632-1.741C44.912,121.49,45.545,122.236,45.565,123.232z M42.361,137.37v-11.062h3.102v11.062
					H42.361z"/>
				<path fill="#626264" d="M55.445,137.098c-0.551,0.272-1.592,0.498-2.776,0.498c-3.224,0-5.285-2.172-5.285-5.654
					c0-3.236,2-5.882,5.714-5.882c0.816,0,1.714,0.157,2.368,0.429l-0.49,2.558c-0.368-0.182-0.919-0.34-1.735-0.34
					c-1.632,0-2.694,1.29-2.673,3.099c0,2.036,1.224,3.099,2.734,3.099c0.734,0,1.306-0.136,1.775-0.339L55.445,137.098z"/>
				<path fill="#626264" d="M66.795,131.714c0,4.049-2.593,5.904-5.266,5.904c-2.917,0-5.163-2.126-5.163-5.7
					c0-3.574,2.122-5.858,5.327-5.858C64.754,126.06,66.795,128.39,66.795,131.714z M59.571,131.827c0,1.901,0.713,3.326,2.04,3.326
					c1.203,0,1.979-1.335,1.979-3.326c0-1.65-0.572-3.324-1.979-3.324C60.122,128.503,59.571,130.199,59.571,131.827z"/>
				<path fill="#626264" d="M68.717,121.308h3.102v16.061h-3.102V121.308z"/>
				<path fill="#626264" d="M80.004,137.37l-0.183-1.109H79.76c-0.654,0.882-1.674,1.357-2.858,1.357
					c-2.019,0-3.224-1.628-3.224-3.392c0-2.873,2.327-4.253,5.857-4.23v-0.159c0-0.589-0.286-1.426-1.815-1.426
					c-1.021,0-2.103,0.385-2.755,0.837l-0.572-2.217c0.694-0.43,2.061-0.972,3.878-0.972c3.326,0,4.387,2.172,4.387,4.773v3.845
					c0,1.063,0.04,2.081,0.143,2.691H80.004z M79.637,132.144c-1.634-0.022-2.898,0.407-2.898,1.741c0,0.882,0.53,1.313,1.224,1.313
					c0.776,0,1.409-0.565,1.613-1.267c0.04-0.181,0.061-0.385,0.061-0.587V132.144z M81.699,121.49l-2.49,3.437h-2.143l1.756-3.437
					H81.699z"/>
				<path fill="#626264" d="M85.09,134.361c0.572,0.385,1.756,0.837,2.673,0.837c0.94,0,1.327-0.361,1.327-0.928
					c0-0.565-0.307-0.837-1.47-1.266c-2.061-0.769-2.856-2.014-2.836-3.326c0-2.058,1.591-3.619,4.061-3.619
					c1.163,0,2.204,0.294,2.816,0.633l-0.551,2.376c-0.45-0.272-1.306-0.633-2.164-0.633c-0.755,0-1.184,0.339-1.184,0.904
					c0,0.52,0.389,0.791,1.613,1.267c1.897,0.724,2.694,1.787,2.713,3.415c0,2.058-1.468,3.574-4.326,3.574
					c-1.306,0-2.469-0.317-3.224-0.769L85.09,134.361z"/>
			</g>
			<g>
				<path fill="#626264" d="M99.041,122.327c0.898-0.204,2.184-0.317,3.408-0.317c1.897,0,3.122,0.385,3.979,1.245
					c0.694,0.678,1.081,1.719,1.081,2.895c0,2.013-1.142,3.348-2.591,3.89v0.069c1.06,0.407,1.693,1.492,2.021,3.076
					c0.448,2.126,0.775,3.596,1.06,4.185h-1.836c-0.225-0.43-0.53-1.741-0.919-3.641c-0.408-2.104-1.142-2.895-2.755-2.964h-1.673
					v6.606h-1.776V122.327z M100.817,129.272h1.815c1.899,0,3.102-1.154,3.102-2.895c0-1.969-1.285-2.828-3.163-2.85
					c-0.856,0-1.47,0.09-1.754,0.181V129.272z"/>
				<path fill="#626264" d="M118.983,131.805c0,4.049-2.53,5.813-4.917,5.813c-2.673,0-4.734-2.172-4.734-5.632
					c0-3.665,2.162-5.813,4.897-5.813C117.065,126.173,118.983,128.457,118.983,131.805z M111.147,131.918
					c0,2.398,1.245,4.208,3.001,4.208c1.714,0,2.999-1.787,2.999-4.253c0-1.854-0.837-4.207-2.959-4.207
					C112.066,127.666,111.147,129.837,111.147,131.918z"/>
				<path fill="#626264" d="M121.252,129.385c0-1.132-0.019-2.058-0.081-2.963h1.571l0.081,1.763h0.062
					c0.551-1.041,1.468-2.013,3.101-2.013c1.348,0,2.368,0.904,2.797,2.194h0.04c0.307-0.611,0.694-1.085,1.102-1.424
					c0.593-0.498,1.245-0.769,2.183-0.769c1.306,0,3.245,0.95,3.245,4.75v6.447h-1.754v-6.198c0-2.104-0.694-3.371-2.143-3.371
					c-1.02,0-1.817,0.837-2.122,1.81c-0.082,0.272-0.143,0.633-0.143,0.995v6.763h-1.756v-6.56c0-1.741-0.694-3.008-2.061-3.008
					c-1.121,0-1.938,0.995-2.224,1.991c-0.103,0.294-0.143,0.633-0.143,0.972v6.606h-1.756V129.385z"/>
				<path fill="#626264" d="M139.279,132.257c0.04,2.693,1.592,3.8,3.387,3.8c1.285,0,2.061-0.248,2.734-0.565l0.305,1.426
					c-0.633,0.317-1.714,0.678-3.285,0.678c-3.04,0-4.856-2.217-4.856-5.519c0-3.302,1.754-5.904,4.632-5.904
					c3.224,0,4.081,3.144,4.081,5.158c0,0.407-0.04,0.724-0.061,0.927H139.279z M144.543,130.833
					c0.021-1.267-0.469-3.235-2.489-3.235c-1.815,0-2.612,1.854-2.755,3.235H144.543z"/>
				<path fill="#626264" d="M148.505,129.837c0-1.289-0.02-2.398-0.081-3.415h1.571l0.061,2.148h0.082
					c0.448-1.47,1.53-2.398,2.734-2.398c0.204,0,0.347,0.023,0.509,0.068v1.878c-0.183-0.045-0.366-0.068-0.612-0.068
					c-1.264,0-2.162,1.063-2.408,2.556c-0.04,0.27-0.081,0.587-0.081,0.927v5.836h-1.776V129.837z"/>
				<path fill="#626264" d="M163.915,131.805c0,4.049-2.53,5.813-4.917,5.813c-2.673,0-4.734-2.172-4.734-5.632
					c0-3.665,2.162-5.813,4.897-5.813C161.997,126.173,163.915,128.457,163.915,131.805z M156.079,131.918
					c0,2.398,1.245,4.208,3.001,4.208c1.714,0,2.999-1.787,2.999-4.253c0-1.854-0.837-4.207-2.959-4.207
					S156.079,129.837,156.079,131.918z"/>
			</g>
			<g>
				<path fill="#626264" d="M176.539,137.415v-0.994l1.148-1.235c2.76-2.91,4.008-4.456,4.025-6.261
					c0-1.216-0.533-2.339-2.146-2.339c-0.981,0-1.796,0.552-2.295,1.012l-0.465-1.141c0.747-0.7,1.812-1.216,3.059-1.216
					c2.329,0,3.31,1.769,3.31,3.481c0,2.209-1.448,3.996-3.726,6.428l-0.864,0.884v0.036h4.856v1.345H176.539z"/>
				<path fill="#626264" d="M192.252,131.301c0,4.07-1.363,6.317-3.758,6.317c-2.112,0-3.543-2.192-3.575-6.152
					c0-4.014,1.563-6.225,3.758-6.225C190.955,125.241,192.252,127.488,192.252,131.301z M186.382,131.485
					c0,3.112,0.864,4.88,2.195,4.88c1.497,0,2.212-1.934,2.212-4.99c0-2.947-0.682-4.881-2.195-4.881
					C187.312,126.494,186.382,128.225,186.382,131.485z"/>
				<path fill="#626264" d="M196.773,126.954h-0.034l-1.879,1.124l-0.282-1.235l2.361-1.4h1.248v11.971h-1.414V126.954z"/>
				<path fill="#626264" d="M208.295,126.586c-0.299-0.018-0.681,0-1.097,0.074c-2.295,0.424-3.509,2.283-3.758,4.253h0.049
					c0.516-0.755,1.414-1.381,2.611-1.381c1.913,0,3.261,1.53,3.261,3.869c0,2.191-1.348,4.217-3.593,4.217
					c-2.311,0-3.825-1.99-3.825-5.102c0-2.357,0.765-4.217,1.83-5.396c0.898-0.976,2.095-1.584,3.459-1.769
					c0.431-0.073,0.798-0.091,1.063-0.091V126.586z M207.88,133.492c0-1.713-0.882-2.743-2.229-2.743
					c-0.881,0-1.696,0.607-2.096,1.474c-0.099,0.183-0.166,0.422-0.166,0.717c0.034,1.971,0.849,3.426,2.378,3.426
					C207.032,136.365,207.88,135.204,207.88,133.492z"/>
				<path fill="#626264" d="M218.037,131.835v1.197h-4.108v-1.197H218.037z"/>
				<path fill="#626264" d="M222.808,137.415v-0.994l1.147-1.235c2.76-2.91,4.008-4.456,4.025-6.261
					c0-1.216-0.533-2.339-2.146-2.339c-0.981,0-1.796,0.552-2.295,1.012l-0.465-1.141c0.747-0.7,1.812-1.216,3.059-1.216
					c2.329,0,3.31,1.769,3.31,3.481c0,2.209-1.448,3.996-3.726,6.428l-0.864,0.884v0.036h4.856v1.345H222.808z"/>
				<path fill="#626264" d="M238.521,131.301c0,4.07-1.363,6.317-3.758,6.317c-2.112,0-3.543-2.192-3.575-6.152
					c0-4.014,1.563-6.225,3.758-6.225C237.224,125.241,238.521,127.488,238.521,131.301z M232.651,131.485
					c0,3.112,0.864,4.88,2.195,4.88c1.497,0,2.212-1.934,2.212-4.99c0-2.947-0.682-4.881-2.195-4.881
					C233.581,126.494,232.651,128.225,232.651,131.485z"/>
				<path fill="#626264" d="M243.042,126.954h-0.034l-1.879,1.124l-0.282-1.235l2.361-1.4h1.248v11.971h-1.414V126.954z"/>
				<path fill="#626264" d="M248.261,134.377c0-1.51,0.816-2.578,2.146-3.205l-0.017-0.056c-1.197-0.626-1.713-1.657-1.713-2.689
					c0-1.897,1.448-3.186,3.344-3.186c2.095,0,3.142,1.455,3.142,2.947c0,1.012-0.448,2.099-1.779,2.799v0.056
					c1.346,0.589,2.178,1.639,2.178,3.093c0,2.082-1.613,3.481-3.675,3.481C249.625,137.618,248.261,136.126,248.261,134.377z
					 M254.081,134.303c0-1.455-0.914-2.155-2.378-2.615c-1.263,0.404-1.945,1.326-1.945,2.468c-0.049,1.215,0.782,2.283,2.162,2.283
					C253.234,136.439,254.081,135.536,254.081,134.303z M250.058,128.317c0,1.197,0.815,1.841,2.061,2.211
					c0.932-0.351,1.647-1.086,1.647-2.174c0-0.956-0.515-1.952-1.828-1.952C250.722,126.401,250.058,127.285,250.058,128.317z"/>
			</g>
		</g>
		<g>
			<path fill="#626264" d="M143.482,79.989l1.489,5.429c0.164,0.656,0.368,1.47,0.49,2.058h0.061
				c0.143-0.589,0.307-1.426,0.45-2.058l1.224-5.429h3.327l-2.327,7.283c-1.428,4.389-2.387,6.153-3.509,7.262
				c-1.083,1.04-2.225,1.402-3.001,1.515l-0.653-2.919c0.388-0.068,0.878-0.27,1.347-0.587c0.469-0.272,0.98-0.815,1.285-1.38
				c0.103-0.159,0.164-0.339,0.164-0.498c0-0.113-0.021-0.294-0.143-0.565l-3.653-10.111H143.482z"/>
			<path fill="#626264" d="M156.058,76.008c1.001-0.181,2.49-0.317,4.143-0.317c2.04,0,3.47,0.339,4.448,1.199
				c0.817,0.724,1.266,1.788,1.266,3.19c0,1.945-1.245,3.28-2.429,3.754v0.069c0.959,0.429,1.491,1.448,1.838,2.85
				c0.428,1.719,0.856,3.709,1.122,4.298h-3.183c-0.225-0.43-0.551-1.674-0.959-3.552c-0.368-1.9-0.959-2.42-2.225-2.443h-0.938
				v5.995h-3.083V76.008z M159.14,82.568h1.224c1.55,0,2.469-0.86,2.469-2.195c0-1.402-0.858-2.103-2.286-2.126
				c-0.755,0-1.184,0.068-1.407,0.113V82.568z"/>
			<path fill="#626264" d="M170.45,86.616c0.103,1.426,1.367,2.104,2.816,2.104c1.062,0,1.918-0.159,2.755-0.452l0.408,2.33
				c-1.02,0.452-2.265,0.678-3.611,0.678c-3.388,0-5.327-2.172-5.327-5.632c0-2.804,1.571-5.904,5.041-5.904
				c3.224,0,4.448,2.782,4.448,5.519c0,0.589-0.061,1.109-0.101,1.357H170.45z M174.103,84.264c0-0.837-0.326-2.239-1.754-2.239
				c-1.306,0-1.838,1.311-1.919,2.239H174.103z"/>
			<path fill="#626264" d="M178.822,88.042c0.572,0.385,1.756,0.837,2.673,0.837c0.94,0,1.327-0.361,1.327-0.928
				c0-0.565-0.307-0.837-1.47-1.266c-2.061-0.769-2.856-2.014-2.836-3.326c0-2.058,1.591-3.619,4.061-3.619
				c1.163,0,2.204,0.294,2.816,0.633l-0.551,2.376c-0.45-0.272-1.306-0.633-2.164-0.633c-0.755,0-1.184,0.339-1.184,0.904
				c0,0.52,0.389,0.791,1.613,1.267c1.897,0.724,2.694,1.787,2.713,3.415c0,2.058-1.468,3.574-4.326,3.574
				c-1.306,0-2.469-0.317-3.224-0.769L178.822,88.042z"/>
			<path fill="#626264" d="M197.11,87.498c0,1.448,0.04,2.624,0.082,3.552h-2.694l-0.143-1.561h-0.061
				c-0.387,0.678-1.327,1.809-3.123,1.809c-2.019,0-3.51-1.402-3.51-4.817v-6.492h3.123v5.949c0,1.606,0.469,2.58,1.55,2.58
				c0.858,0,1.348-0.656,1.552-1.199c0.082-0.204,0.101-0.476,0.101-0.746v-6.583h3.123V87.498z"/>
			<path fill="#626264" d="M199.604,74.99h3.102v16.06h-3.102V74.99z"/>
			<path fill="#626264" d="M208.686,76.822v3.167h2.225v2.533h-2.225v4.004c0,1.335,0.286,1.945,1.225,1.945
				c0.387,0,0.694-0.045,0.917-0.091l0.021,2.602c-0.408,0.181-1.142,0.294-2.021,0.294c-0.999,0-1.836-0.385-2.326-0.95
				c-0.571-0.656-0.856-1.719-0.856-3.28v-4.524h-1.327v-2.533h1.327v-2.398L208.686,76.822z"/>
			<path fill="#626264" d="M218.384,91.05l-0.183-1.109h-0.061c-0.654,0.882-1.674,1.357-2.858,1.357
				c-2.019,0-3.224-1.628-3.224-3.392c0-2.873,2.327-4.253,5.857-4.23v-0.159c0-0.589-0.286-1.426-1.815-1.426
				c-1.021,0-2.103,0.385-2.755,0.837l-0.572-2.217c0.694-0.429,2.061-0.972,3.878-0.972c3.326,0,4.387,2.172,4.387,4.773v3.845
				c0,1.063,0.04,2.081,0.143,2.691H218.384z M218.017,85.824c-1.634-0.022-2.898,0.407-2.898,1.741c0,0.882,0.53,1.313,1.224,1.313
				c0.776,0,1.409-0.565,1.613-1.267c0.04-0.181,0.061-0.385,0.061-0.587V85.824z"/>
			<path fill="#626264" d="M233.162,74.99v12.758c0,1.244,0.042,2.556,0.082,3.302h-2.755l-0.143-1.628h-0.04
				c-0.633,1.244-1.838,1.877-3.123,1.877c-2.366,0-4.265-2.239-4.265-5.676c-0.021-3.734,2.082-5.882,4.469-5.882
				c1.224,0,2.183,0.475,2.633,1.244h0.04V74.99H233.162z M230.06,84.671c0-0.181-0.02-0.429-0.04-0.611
				c-0.183-0.927-0.858-1.696-1.817-1.696c-1.407,0-2.143,1.402-2.143,3.144c0,1.878,0.837,3.054,2.123,3.054
				c0.898,0,1.611-0.678,1.795-1.65c0.062-0.25,0.082-0.498,0.082-0.793V84.671z"/>
			<path fill="#626264" d="M245.514,85.394c0,4.049-2.593,5.904-5.266,5.904c-2.917,0-5.163-2.126-5.163-5.7
				s2.122-5.858,5.327-5.858C243.473,79.74,245.514,82.07,245.514,85.394z M238.29,85.507c0,1.901,0.713,3.326,2.04,3.326
				c1.203,0,1.979-1.335,1.979-3.326c0-1.65-0.572-3.324-1.979-3.324C238.841,82.183,238.29,83.879,238.29,85.507z"/>
			<path fill="#626264" d="M247.417,88.042c0.572,0.385,1.756,0.837,2.673,0.837c0.94,0,1.327-0.361,1.327-0.928
				c0-0.565-0.307-0.837-1.47-1.266c-2.061-0.769-2.856-2.014-2.836-3.326c0-2.058,1.591-3.619,4.061-3.619
				c1.163,0,2.204,0.294,2.816,0.633l-0.551,2.376c-0.45-0.272-1.306-0.633-2.164-0.633c-0.755,0-1.184,0.339-1.184,0.904
				c0,0.52,0.389,0.791,1.613,1.267c1.897,0.724,2.694,1.787,2.713,3.415c0,2.058-1.468,3.574-4.326,3.574
				c-1.306,0-2.469-0.317-3.224-0.769L247.417,88.042z"/>
		</g>
		<g>
			<path fill="#626264" d="M150.277,52.083v12.758c0,1.244,0.042,2.556,0.082,3.302h-2.755l-0.143-1.628h-0.04
				c-0.633,1.244-1.838,1.877-3.123,1.877c-2.366,0-4.264-2.239-4.264-5.676c-0.02-3.734,2.082-5.882,4.468-5.882
				c1.224,0,2.183,0.475,2.633,1.244h0.04v-5.994H150.277z M147.175,61.763c0-0.181-0.02-0.429-0.04-0.611
				c-0.183-0.927-0.858-1.696-1.817-1.696c-1.407,0-2.143,1.402-2.143,3.144c0,1.878,0.837,3.054,2.123,3.054
				c0.898,0,1.611-0.678,1.795-1.65c0.062-0.25,0.082-0.498,0.082-0.793V61.763z"/>
			<path fill="#626264" d="M155.159,63.709c0.103,1.426,1.367,2.104,2.816,2.104c1.062,0,1.918-0.159,2.755-0.452l0.408,2.33
				c-1.02,0.452-2.265,0.678-3.611,0.678c-3.388,0-5.327-2.172-5.327-5.632c0-2.804,1.571-5.904,5.041-5.904
				c3.224,0,4.448,2.782,4.448,5.519c0,0.589-0.061,1.109-0.101,1.357H155.159z M158.812,61.357c0-0.837-0.326-2.239-1.754-2.239
				c-1.306,0-1.838,1.311-1.919,2.239H158.812z"/>
			<path fill="#626264" d="M169.633,55.792h-3.693v-2.895h10.57v2.895h-3.756v12.351h-3.122V55.792z"/>
			<path fill="#626264" d="M176.964,60.724c0-1.63-0.042-2.693-0.082-3.642h2.673l0.103,2.036h0.082
				c0.509-1.606,1.734-2.285,2.693-2.285c0.286,0,0.429,0,0.654,0.045v3.235c-0.225-0.045-0.49-0.091-0.837-0.091
				c-1.142,0-1.918,0.678-2.122,1.741c-0.042,0.226-0.061,0.498-0.061,0.769v5.61h-3.102V60.724z"/>
			<path fill="#626264" d="M190.17,68.143l-0.183-1.109h-0.061c-0.654,0.882-1.674,1.357-2.858,1.357
				c-2.019,0-3.224-1.628-3.224-3.392c0-2.873,2.327-4.253,5.857-4.23v-0.159c0-0.589-0.286-1.426-1.815-1.426
				c-1.021,0-2.103,0.385-2.755,0.837l-0.572-2.217c0.694-0.429,2.061-0.972,3.878-0.972c3.326,0,4.387,2.172,4.387,4.773v3.845
				c0,1.063,0.04,2.081,0.143,2.691H190.17z M189.804,62.917c-1.634-0.022-2.898,0.407-2.898,1.741c0,0.882,0.53,1.313,1.224,1.313
				c0.776,0,1.409-0.565,1.613-1.267c0.04-0.181,0.061-0.385,0.061-0.587V62.917z"/>
			<path fill="#626264" d="M195.195,68.143c0.04-0.724,0.082-2.058,0.082-3.302V52.083h3.102v6.311h0.04
				c0.593-0.95,1.632-1.561,3.02-1.561c2.387,0,4.143,2.194,4.122,5.587c0,3.982-2.285,5.971-4.57,5.971
				c-1.163,0-2.286-0.474-3.001-1.787h-0.04l-0.122,1.539H195.195z M198.379,63.437c0,0.227,0.019,0.43,0.061,0.611
				c0.204,0.928,0.919,1.63,1.815,1.63c1.327,0,2.143-1.132,2.143-3.121c0-1.719-0.694-3.077-2.143-3.077
				c-0.836,0-1.611,0.702-1.815,1.697c-0.042,0.204-0.061,0.407-0.061,0.633V63.437z"/>
			<path fill="#626264" d="M213.158,68.143l-0.183-1.109h-0.061c-0.654,0.882-1.674,1.357-2.858,1.357
				c-2.019,0-3.224-1.628-3.224-3.392c0-2.873,2.327-4.253,5.857-4.23v-0.159c0-0.589-0.286-1.426-1.815-1.426
				c-1.021,0-2.103,0.385-2.755,0.837l-0.572-2.217c0.694-0.429,2.061-0.972,3.878-0.972c3.326,0,4.387,2.172,4.387,4.773v3.845
				c0,1.063,0.04,2.081,0.143,2.691H213.158z M212.791,62.917c-1.634-0.022-2.898,0.407-2.898,1.741c0,0.882,0.53,1.313,1.224,1.313
				c0.776,0,1.409-0.565,1.613-1.267c0.04-0.181,0.061-0.385,0.061-0.587V62.917z"/>
			<path fill="#626264" d="M216.204,70.179c0.816-0.069,1.449-0.272,1.836-0.724c0.45-0.521,0.612-1.404,0.612-3.597v-8.776h3.123
				v9.591c0,2.42-0.49,3.89-1.409,4.841c-0.917,0.95-2.366,1.357-3.857,1.357L216.204,70.179z M221.857,54.005
				c0,0.95-0.633,1.719-1.674,1.719c-0.98,0-1.613-0.769-1.613-1.719c0-0.995,0.633-1.741,1.653-1.741
				C221.224,52.264,221.836,53.01,221.857,54.005z"/>
			<path fill="#626264" d="M234.062,62.487c0,4.049-2.593,5.904-5.266,5.904c-2.917,0-5.163-2.126-5.163-5.7
				c0-3.574,2.122-5.858,5.327-5.858C232.02,56.833,234.062,59.163,234.062,62.487z M226.838,62.6c0,1.901,0.713,3.326,2.04,3.326
				c1.203,0,1.979-1.335,1.979-3.326c0-1.65-0.572-3.324-1.979-3.324C227.389,59.276,226.838,60.972,226.838,62.6z"/>
		</g>
		<g>
			<path fill="#626264" d="M151.318,44.606c-0.795,0.316-2.366,0.837-4.224,0.837c-2.082,0-3.796-0.589-5.144-2.013
				c-1.184-1.267-1.918-3.303-1.918-5.678c0.02-4.547,2.837-7.872,7.449-7.872c1.592,0,2.837,0.384,3.428,0.701l-0.429,1.606
				c-0.734-0.362-1.653-0.656-3.04-0.656c-3.348,0-5.531,2.307-5.531,6.13c0,3.869,2.101,6.153,5.306,6.153
				c1.163,0,1.958-0.182,2.366-0.408V38.86h-2.795v-1.584h4.53V44.606z"/>
			<path fill="#626264" d="M163.017,39.719c0,4.049-2.53,5.813-4.917,5.813c-2.673,0-4.734-2.172-4.734-5.632
				c0-3.665,2.162-5.813,4.897-5.813C161.098,34.087,163.017,36.372,163.017,39.719z M155.18,39.832
				c0,2.398,1.245,4.208,3.001,4.208c1.714,0,2.999-1.787,2.999-4.253c0-1.854-0.837-4.207-2.959-4.207
				C156.099,35.58,155.18,37.752,155.18,39.832z"/>
			<path fill="#626264" d="M165.205,45.284c0.04-0.746,0.081-1.854,0.081-2.828V29.224h1.776V36.1h0.04
				c0.633-1.222,1.775-2.013,3.367-2.013c2.448,0,4.183,2.263,4.162,5.587c0,3.914-2.224,5.858-4.428,5.858
				c-1.428,0-2.572-0.611-3.306-2.058h-0.061l-0.082,1.81H165.205z M167.062,40.895c0,0.25,0.04,0.498,0.081,0.724
				c0.347,1.38,1.388,2.33,2.694,2.33c1.878,0,2.999-1.696,2.999-4.208c0-2.194-1.02-4.071-2.938-4.071
				c-1.224,0-2.366,0.928-2.734,2.443c-0.04,0.226-0.101,0.498-0.101,0.815V40.895z"/>
			<path fill="#626264" d="M178.902,31.259c0.021,0.679-0.429,1.222-1.142,1.222c-0.633,0-1.081-0.543-1.081-1.222
				c0-0.701,0.469-1.244,1.122-1.244C178.473,30.016,178.902,30.558,178.902,31.259z M176.902,45.284V34.336h1.796v10.948H176.902z"
				/>
			<path fill="#626264" d="M182.68,40.172c0.04,2.693,1.592,3.8,3.387,3.8c1.287,0,2.062-0.248,2.736-0.565l0.305,1.426
				c-0.633,0.317-1.714,0.678-3.285,0.678c-3.041,0-4.856-2.217-4.856-5.519s1.754-5.904,4.632-5.904
				c3.224,0,4.082,3.144,4.082,5.158c0,0.407-0.04,0.724-0.061,0.927H182.68z M187.944,38.747c0.021-1.267-0.469-3.235-2.49-3.235
				c-1.815,0-2.612,1.854-2.755,3.235H187.944z"/>
			<path fill="#626264" d="M191.907,37.752c0-1.289-0.019-2.398-0.081-3.416h1.571l0.061,2.149h0.082
				c0.448-1.47,1.53-2.398,2.734-2.398c0.204,0,0.347,0.023,0.509,0.068v1.878c-0.183-0.045-0.366-0.068-0.612-0.068
				c-1.264,0-2.162,1.063-2.408,2.556c-0.04,0.27-0.082,0.587-0.082,0.927v5.836h-1.775V37.752z"/>
			<path fill="#626264" d="M198.664,37.3c0-1.132-0.02-2.058-0.081-2.964h1.591l0.103,1.81h0.04c0.49-1.041,1.634-2.058,3.266-2.058
				c1.367,0,3.489,0.904,3.489,4.66v6.537h-1.796v-6.311c0-1.765-0.591-3.235-2.286-3.235c-1.183,0-2.101,0.927-2.408,2.035
				c-0.081,0.25-0.122,0.589-0.122,0.928v6.582h-1.796V37.3z"/>
			<path fill="#626264" d="M218.933,39.719c0,4.049-2.53,5.813-4.917,5.813c-2.673,0-4.734-2.172-4.734-5.632
				c0-3.665,2.162-5.813,4.897-5.813C217.015,34.087,218.933,36.372,218.933,39.719z M211.097,39.832
				c0,2.398,1.245,4.208,3.001,4.208c1.714,0,2.999-1.787,2.999-4.253c0-1.854-0.837-4.207-2.959-4.207
				C212.016,35.58,211.097,37.752,211.097,39.832z"/>
		</g>
		<g>
			<path fill-rule="evenodd" clip-rule="evenodd" fill="#626264" stroke="#D7D8DB" stroke-miterlimit="10" d="M73.705,21.423
				c3.144-0.2,4.672,2.331,3.242,5.66c-1.43,3.329-5.153,5.907-8.148,5.761c-2.829-0.137-3.957-2.672-2.672-5.665
				C67.413,24.187,70.736,21.612,73.705,21.423L73.705,21.423z M56.646,25.806c-0.598,9.328,1,17.588,10.988,17.515
				c10.703-0.076,18.686-7.739,27.298-19.848c0.893-1.259,2.607-3.546,1.948-3.011c-0.79,0.639-4.894,4.369-10.96,8.699
				c-5.429,3.879-12.216,6.163-16.976,6.458c-3.322,0.199-6.107-0.503-8.458-2.247C57.54,31.181,57.182,27.904,56.646,25.806
				L56.646,25.806z"/>
			<path fill-rule="evenodd" clip-rule="evenodd" fill="#626264" stroke="#D7D8DB" stroke-miterlimit="10" d="M51.038,89.745
				c-3.358-1.311-4.902-5.491-3.624-9.397c1.279-3.906,5.007-6.395,8.504-5.509c3.715,0.942,5.732,5.273,4.31,9.617
				C58.806,88.801,54.605,91.138,51.038,89.745L51.038,89.745z M78.325,98.863c1.986-17.199-2.358-31.122-15.653-34.989
				c-10.507-3.059-17.917,2.002-25.713,11.881c-0.76,0.966-2.17,2.657-1.702,2.37c0.567-0.344,3.722-2.652,8.57-5.033
				c4.839-2.38,11.244-2.489,16.212-0.785c3.895,1.346,7.358,3.919,10.405,8.172C74.717,86.451,77.579,94.159,78.325,98.863
				L78.325,98.863z"/>
			<g>
				<path fill-rule="evenodd" clip-rule="evenodd" fill="#626264" stroke="#D7D8DB" stroke-miterlimit="10" d="M53.382,28.961
					c0,0-0.218,24.696-16.645,32.202c0,0,5.753,3.073,10.988-3.046C47.725,58.117,60.78,44.082,53.382,28.961z"/>
				
					<ellipse transform="matrix(-0.9153 -0.4027 0.4027 -0.9153 69.29 108.3491)" fill-rule="evenodd" clip-rule="evenodd" fill="#626264" stroke="#D7D8DB" stroke-miterlimit="10" cx="46.035" cy="46.891" rx="2.273" ry="6.036"/>
			</g>
			<g>
				
					<ellipse transform="matrix(0.9763 0.2162 -0.2162 0.9763 14.7957 -19.759)" fill-rule="evenodd" clip-rule="evenodd" fill="#626264" stroke="#D7D8DB" stroke-miterlimit="10" cx="97.703" cy="57.742" rx="8.51" ry="10.483"/>
				<path fill-rule="evenodd" clip-rule="evenodd" fill="#626264" stroke="#D7D8DB" stroke-miterlimit="10" d="M103.526,97.707
					c-62.508-35.592-1.133-74.044-1.133-74.044S63.65,59.615,103.526,97.707z"/>
			</g>
		</g>
	</g>
</g>
</svg>
